<?xml version="1.0" encoding="UTF-8" standalone="no"?>
<!-- Created with Inkscape (http://www.inkscape.org/) -->

<svg
   width="75"
   height="50"
   viewBox="0 0 19.84375 13.229167"
   version="1.1"
   id="svg5"
   inkscape:version="1.2.2 (732a01da63, 2022-12-09)"
   sodipodi:docname="Button Experimentation.svg"
   inkscape:export-filename="Button Experimentation.png"
   inkscape:export-xdpi="99.333778"
   inkscape:export-ydpi="99.333778"
   xmlns:inkscape="http://www.inkscape.org/namespaces/inkscape"
   xmlns:sodipodi="http://sodipodi.sourceforge.net/DTD/sodipodi-0.dtd"
   xmlns="http://www.w3.org/2000/svg"
   xmlns:svg="http://www.w3.org/2000/svg">
  <sodipodi:namedview
     id="namedview7"
     pagecolor="#ffffff"
     bordercolor="#cccccc"
     borderopacity="1"
     inkscape:showpageshadow="0"
     inkscape:pageopacity="0"
     inkscape:pagecheckerboard="0"
     inkscape:deskcolor="#d1d1d1"
     inkscape:document-units="mm"
     showgrid="false"
     inkscape:zoom="12.315151"
     inkscape:cx="30.612698"
     inkscape:cy="21.477609"
     inkscape:window-width="1920"
     inkscape:window-height="1051"
     inkscape:window-x="-9"
     inkscape:window-y="-9"
     inkscape:window-maximized="1"
     inkscape:current-layer="layer1" />
  <defs
     id="defs2">
    <inkscape:path-effect
       effect="offset"
       id="path-effect2649"
       is_visible="true"
       lpeversion="1.2"
       linejoin_type="miter"
       unit="mm"
       offset="0"
       miter_limit="4"
       attempt_force_join="false"
       update_on_knot_move="true" />
    <inkscape:path-effect
       effect="fillet_chamfer"
       id="path-effect1690"
       is_visible="true"
       lpeversion="1"
       nodesatellites_param="F,0,0,1,0,4.2333333,0,1 @ F,0,0,1,0,4.2333333,0,1 @ F,0,0,1,0,4.2333333,0,1 @ F,0,0,1,0,4.2333333,0,1"
       unit="px"
       method="auto"
       mode="F"
       radius="16"
       chamfer_steps="1"
       flexible="false"
       use_knot_distance="true"
       apply_no_radius="true"
       apply_with_radius="true"
       only_selected="false"
       hide_knots="false" />
    <inkscape:path-effect
       effect="fillet_chamfer"
       id="path-effect392"
       is_visible="true"
       lpeversion="1"
       nodesatellites_param="F,0,0,1,0,4.2333333,0,1 @ F,0,0,1,0,4.2333333,0,1 @ F,0,0,1,0,4.2333333,0,1 @ F,0,0,1,0,4.2333333,0,1"
       unit="px"
       method="auto"
       mode="F"
       radius="16"
       chamfer_steps="1"
       flexible="false"
       use_knot_distance="true"
       apply_no_radius="true"
       apply_with_radius="true"
       only_selected="false"
       hide_knots="false" />
    <inkscape:path-effect
       effect="fillet_chamfer"
       id="path-effect392-3"
       is_visible="true"
       lpeversion="1"
       nodesatellites_param="F,0,0,1,0,1.3229167,0,1 @ F,0,0,1,0,1.3229167,0,1 @ F,0,0,1,0,1.3229167,0,1 @ F,0,0,1,0,1.3229167,0,1"
       unit="px"
       method="auto"
       mode="F"
       radius="5"
       chamfer_steps="1"
       flexible="false"
       use_knot_distance="true"
       apply_no_radius="true"
       apply_with_radius="true"
       only_selected="false"
       hide_knots="false" />
    <inkscape:path-effect
       effect="fillet_chamfer"
       id="path-effect392-0"
       is_visible="true"
       lpeversion="1"
       nodesatellites_param="F,0,0,1,0,1.3229167,0,1 @ F,0,0,1,0,1.3229167,0,1 @ F,0,0,1,0,1.3229167,0,1 @ F,0,0,1,0,1.3229167,0,1"
       unit="px"
       method="auto"
       mode="F"
       radius="5"
       chamfer_steps="1"
       flexible="false"
       use_knot_distance="true"
       apply_no_radius="true"
       apply_with_radius="true"
       only_selected="false"
       hide_knots="false" />
    <inkscape:path-effect
       effect="fillet_chamfer"
       id="path-effect392-5"
       is_visible="true"
       lpeversion="1"
       nodesatellites_param="F,0,0,1,0,1.3229167,0,1 @ F,0,0,1,0,1.3229167,0,1 @ F,0,0,1,0,1.3229167,0,1 @ F,0,0,1,0,1.3229167,0,1"
       unit="px"
       method="auto"
       mode="F"
       radius="5"
       chamfer_steps="1"
       flexible="false"
       use_knot_distance="true"
       apply_no_radius="true"
       apply_with_radius="true"
       only_selected="false"
       hide_knots="false" />
    <inkscape:path-effect
       effect="fillet_chamfer"
       id="path-effect392-00"
       is_visible="false"
       lpeversion="1"
       nodesatellites_param="F,0,0,1,0,1.3229167,0,1 @ F,0,0,1,0,1.3229167,0,1 @ F,0,0,1,0,1.3229167,0,1 @ F,0,0,1,0,1.3229167,0,1"
       unit="px"
       method="auto"
       mode="F"
       radius="5"
       chamfer_steps="1"
       flexible="false"
       use_knot_distance="true"
       apply_no_radius="true"
       apply_with_radius="true"
       only_selected="false"
       hide_knots="false" />
  </defs>
  <g
     inkscape:label="Layer 1"
     inkscape:groupmode="layer"
     id="layer1"
     style="display:inline">
    <path
       id="rect234"
       style="fill:#3d4a5b;fill-opacity:1;stroke:#000000;stroke-width:0.5;stroke-linecap:round;stroke-linejoin:miter;stroke-dasharray:none;paint-order:stroke markers fill;stop-color:#000000"
       d="M 4.6456267,0.41229329 H 15.198124 A 4.2333333,4.2333333 45 0 1 19.431457,4.6456266 V 8.5835397 A 4.2333333,4.2333333 135 0 1 15.198124,12.816873 H 4.6456267 A 4.2333333,4.2333333 45 0 1 0.41229343,8.5835397 V 4.6456266 A 4.2333333,4.2333333 135 0 1 4.6456267,0.41229329 Z"
       inkscape:original-d="M 0.41229343,0.41229329 H 19.431457 V 12.816873 H 0.41229343 Z"
       inkscape:path-effect="#path-effect392"
       sodipodi:nodetypes="ccccc" />
    <path
       id="rect234-3"
       style="fill:#3d4a5b;fill-opacity:1;stroke:#fca109;stroke-width:0.5;stroke-linecap:round;stroke-linejoin:miter;stroke-dasharray:1, 0.5;stroke-dashoffset:0;stroke-opacity:1;paint-order:stroke markers fill;stop-color:#000000"
       d="M 5.1747395,12.287109 H 14.669011 A 4.2333333,4.2333333 135 0 0 18.902344,8.0537757 V 5.1747395 A 4.2333333,4.2333333 45 0 0 14.669011,0.94140625 H 5.1747396 A 4.2333333,4.2333333 135 0 0 0.94140625,5.1747395 V 8.0537757 A 4.2333333,4.2333333 45 0 0 5.1747395,12.287109 Z"
       inkscape:path-effect="#path-effect1690"
       inkscape:original-d="m 0.94140625,12.287109 c 5.98697915,0 11.97395875,0 17.96093775,0 0,-3.7819007 0,-7.5638017 0,-11.34570275 -5.986979,0 -11.9739586,0 -17.96093775,0 0,3.78190105 0,7.56380205 0,11.34570275 z" />
    <path
       id="rect2577"
       style="fill:#ffffff;fill-opacity:0;stroke:#fca109;stroke-width:0.618435;stroke-linecap:round;paint-order:stroke markers fill;stop-color:#000000"
       d="m 6.2310934,2.4238024 h 7.3815616 c 0,0 0.08518,5.682913 -1.34767,7.431309 C 10.697902,11.454775 8.9542848,11.122123 7.6473501,9.9028459 6.04892,8.3044158 6.2310934,2.4238024 6.2310934,2.4238024 Z"
       sodipodi:nodetypes="ccccc"
       inkscape:label="Shield" />
    <rect
       style="fill:#3d4a5b;fill-opacity:1;stroke:#fca109;stroke-width:0.530486;stroke-linecap:round;stroke-linejoin:miter;stroke-dasharray:none;stroke-dashoffset:0;stroke-opacity:0;paint-order:stroke markers fill;stop-color:#000000"
       id="rect2703"
       width="17.157013"
       height="3.1062317"
       x="1.3687592"
       y="5.0425873"
       ry="0" />
    <text
       xml:space="preserve"
       style="font-size:2.91042px;font-family:League;-inkscape-font-specification:League;letter-spacing:0.433917px;display:none;fill:#ffffff;fill-opacity:1;stroke:#fca109;stroke-width:0.499999;stroke-linecap:round;stroke-linejoin:miter;stroke-dasharray:none;stroke-dashoffset:0;stroke-opacity:1;paint-order:stroke markers fill;stop-color:#000000"
       x="1.5633943"
       y="7.6562524"
       id="text2472"
       inkscape:label="Military"><tspan
         sodipodi:role="line"
         id="tspan2470"
         style="font-style:normal;font-variant:normal;font-weight:normal;font-stretch:normal;font-size:2.91042px;font-family:'Arial Rounded MT Bold';-inkscape-font-specification:'Arial Rounded MT Bold, ';stroke-width:0.5;stroke-dasharray:none"
         x="1.5633943"
         y="7.6562524">MILITARY</tspan></text>
    <g
       aria-label="MILITARY"
       id="text1650"
       style="font-size:2.91042px;font-family:League;-inkscape-font-specification:League;letter-spacing:0.433917px;display:inline;fill:#ffffff;stroke:#fca109;stroke-width:0.499999;stroke-linecap:round;paint-order:stroke markers fill;stop-color:#000000"
       inkscape:label="Military">
      <path
         d="M 2.4942171,7.3421885 2.1602578,6.0148779 v 1.4381567 q 0,0.1193727 -0.054002,0.179059 -0.052581,0.059686 -0.1406892,0.059686 -0.085266,0 -0.1392681,-0.058265 -0.054002,-0.059686 -0.054002,-0.1804801 V 5.8045545 q 0,-0.1364259 0.071055,-0.1833223 0.071055,-0.048317 0.191849,-0.048317 h 0.1307415 q 0.1179516,0 0.1705324,0.021317 0.054002,0.021317 0.079582,0.07674 0.02558,0.055423 0.058265,0.1804802 L 2.7770167,6.9925971 3.0797117,5.851451 q 0.032685,-0.1250572 0.058265,-0.1804802 0.02558,-0.055423 0.078161,-0.07674 0.054002,-0.021317 0.1719535,-0.021317 h 0.1307415 q 0.1207938,0 0.191849,0.048317 0.071055,0.046896 0.071055,0.1833223 v 1.6484801 q 0,0.1193727 -0.054002,0.179059 -0.052581,0.059686 -0.1421103,0.059686 -0.083845,0 -0.1378471,-0.059686 -0.054002,-0.059686 -0.054002,-0.179059 V 6.0148779 L 3.0598163,7.3421885 q -0.032685,0.1293204 -0.054002,0.1904279 -0.019895,0.059686 -0.075318,0.1094249 -0.055423,0.049739 -0.1534792,0.049739 -0.073897,0 -0.1250571,-0.032685 -0.05116,-0.031264 -0.079582,-0.081003 -0.028422,-0.049739 -0.045475,-0.109425 -0.015632,-0.061107 -0.032685,-0.1264782 z"
         style="font-family:'Arial Rounded MT Bold';-inkscape-font-specification:'Arial Rounded MT Bold, ';stroke-width:0.5"
         id="path1652" />
      <path
         d="M 4.6661436,7.4345602 V 5.7931857 q 0,-0.1278993 0.058265,-0.191849 0.058265,-0.06395 0.1506369,-0.06395 0.095214,0 0.1534792,0.06395 0.059686,0.062529 0.059686,0.191849 v 1.6413745 q 0,0.1293205 -0.059686,0.1932701 -0.058265,0.06395 -0.1534792,0.06395 -0.090951,0 -0.1506369,-0.06395 -0.058265,-0.065371 -0.058265,-0.1932701 z"
         style="font-family:'Arial Rounded MT Bold';-inkscape-font-specification:'Arial Rounded MT Bold, ';stroke-width:0.5"
         id="path1654" />
      <path
         d="m 6.4074756,5.7931857 v 1.5163174 h 0.8555043 q 0.1023195,0 0.1563214,0.049739 0.055423,0.049739 0.055423,0.1250571 0,0.07674 -0.054002,0.1250571 -0.054002,0.046896 -0.1577425,0.046896 H 6.2440487 q -0.137847,0 -0.1989545,-0.061107 -0.059686,-0.061107 -0.059686,-0.1975334 V 5.7931857 q 0,-0.1278993 0.056844,-0.191849 0.058265,-0.06395 0.1520581,-0.06395 0.095214,0 0.1534792,0.06395 0.059686,0.062529 0.059686,0.191849 z"
         style="font-family:'Arial Rounded MT Bold';-inkscape-font-specification:'Arial Rounded MT Bold, ';stroke-width:0.5"
         id="path1656" />
      <path
         d="M 8.2028098,7.4345602 V 5.7931857 q 0,-0.1278993 0.058265,-0.191849 0.058265,-0.06395 0.150637,-0.06395 0.095214,0 0.1534792,0.06395 0.059686,0.062529 0.059686,0.191849 v 1.6413745 q 0,0.1293205 -0.059686,0.1932701 -0.058265,0.06395 -0.1534792,0.06395 -0.090951,0 -0.150637,-0.06395 -0.058265,-0.065371 -0.058265,-0.1932701 z"
         style="font-family:'Arial Rounded MT Bold';-inkscape-font-specification:'Arial Rounded MT Bold, ';stroke-width:0.5"
         id="path1658" />
      <path
         d="m 10.883491,5.921085 h -0.460437 v 1.5134752 q 0,0.1307416 -0.05827,0.1946912 -0.05827,0.062529 -0.150637,0.062529 -0.09379,0 -0.15348,-0.06395 -0.05827,-0.06395 -0.05827,-0.1932701 V 5.921085 H 9.5419697 q -0.1080039,0 -0.1605847,-0.046896 -0.052581,-0.048318 -0.052581,-0.1264782 0,-0.081003 0.054002,-0.1278993 0.055423,-0.046896 0.1591636,-0.046896 h 1.3415213 q 0.109425,0 0.162006,0.048317 0.054,0.048318 0.054,0.1264782 0,0.078161 -0.054,0.1264782 -0.054,0.046896 -0.162006,0.046896 z"
         style="font-family:'Arial Rounded MT Bold';-inkscape-font-specification:'Arial Rounded MT Bold, ';stroke-width:0.5"
         id="path1660" />
      <path
         d="m 12.933203,7.4203492 -0.09948,-0.261483 h -0.846977 l -0.09948,0.2671674 q -0.05827,0.1563214 -0.09948,0.2117444 -0.04121,0.054002 -0.135005,0.054002 -0.07958,0 -0.140689,-0.058265 -0.06111,-0.058265 -0.06111,-0.1321626 0,-0.042633 0.01421,-0.088108 0.01421,-0.045475 0.0469,-0.1264782 L 12.045013,5.933875 q 0.02274,-0.058265 0.054,-0.1392682 0.03269,-0.082424 0.06821,-0.1364259 0.03695,-0.054002 0.09521,-0.086687 0.05969,-0.034107 0.146374,-0.034107 0.08811,0 0.146373,0.034107 0.05969,0.032685 0.09521,0.085266 0.03695,0.052581 0.06111,0.1136883 0.02558,0.059686 0.06395,0.1605847 l 0.544283,1.3443638 q 0.06395,0.1534792 0.06395,0.2231133 0,0.072476 -0.06111,0.1335837 -0.05969,0.059686 -0.144952,0.059686 -0.04974,0 -0.08527,-0.018474 -0.03553,-0.017053 -0.05969,-0.046896 -0.02416,-0.031264 -0.05258,-0.093793 -0.027,-0.06395 -0.0469,-0.1122672 z M 12.097594,6.8419601 h 0.622443 L 12.405973,5.9821925 Z"
         style="font-family:'Arial Rounded MT Bold';-inkscape-font-specification:'Arial Rounded MT Bold, ';stroke-width:0.5"
         id="path1662" />
      <path
         d="m 14.694431,6.7652205 h -0.147795 v 0.6693397 q 0,0.1321627 -0.05826,0.1946912 -0.05827,0.062529 -0.152059,0.062529 -0.100898,0 -0.156321,-0.065371 -0.05542,-0.065371 -0.05542,-0.191849 V 5.8315555 q 0,-0.1364259 0.06111,-0.1975334 0.06111,-0.061107 0.197533,-0.061107 h 0.686393 q 0.14211,0 0.243009,0.01279 0.100898,0.011369 0.181901,0.048318 0.09806,0.041212 0.173374,0.1179516 0.07532,0.07674 0.113689,0.1790591 0.03979,0.1008983 0.03979,0.2145866 0,0.2330609 -0.132163,0.3723291 -0.130742,0.1392681 -0.397909,0.1975334 0.112267,0.059686 0.214587,0.1762168 0.102319,0.1165305 0.181901,0.2486931 0.081,0.1307415 0.125057,0.2373243 0.04547,0.1051617 0.04547,0.1449526 0,0.041212 -0.027,0.082424 -0.02558,0.039791 -0.07105,0.062528 -0.04547,0.024159 -0.105161,0.024159 -0.07106,0 -0.119373,-0.034107 -0.04832,-0.032685 -0.08385,-0.083845 -0.03411,-0.05116 -0.09379,-0.150637 L 15.188975,7.1418129 q -0.09095,-0.1549003 -0.163427,-0.2359032 -0.07106,-0.081003 -0.144953,-0.110846 -0.0739,-0.029843 -0.186164,-0.029843 z m 0.241587,-0.8753997 h -0.389382 v 0.5727047 h 0.378013 q 0.152058,0 0.255799,-0.02558 0.103741,-0.027001 0.157742,-0.089529 0.05542,-0.06395 0.05542,-0.1747958 0,-0.086687 -0.04405,-0.152058 -0.04405,-0.066792 -0.122215,-0.099477 -0.0739,-0.031264 -0.291326,-0.031264 z"
         style="font-family:'Arial Rounded MT Bold';-inkscape-font-specification:'Arial Rounded MT Bold, ';stroke-width:0.5"
         id="path1664" />
      <path
         d="M 17.008468,7.4345602 V 6.7737471 L 16.499713,5.9850347 q -0.06679,-0.1065828 -0.09521,-0.1662691 -0.027,-0.059686 -0.027,-0.1037406 0,-0.072476 0.05542,-0.1250571 0.05684,-0.052581 0.139268,-0.052581 0.08669,0 0.130742,0.049739 0.04547,0.048318 0.135005,0.1946912 l 0.389382,0.632391 0.393646,-0.632391 q 0.03553,-0.058265 0.05969,-0.098056 0.02416,-0.039791 0.05258,-0.073897 0.02984,-0.035528 0.06537,-0.054002 0.03553,-0.018474 0.08669,-0.018474 0.07958,0 0.132163,0.052581 0.054,0.05116 0.054,0.1193727 0,0.055423 -0.027,0.1108461 -0.027,0.055423 -0.09237,0.1534792 l -0.521545,0.8000812 v 0.6608131 q 0,0.1293205 -0.05969,0.1932701 -0.05969,0.06395 -0.152059,0.06395 -0.09379,0 -0.152058,-0.062529 -0.05826,-0.06395 -0.05826,-0.1946912 z"
         style="font-family:'Arial Rounded MT Bold';-inkscape-font-specification:'Arial Rounded MT Bold, ';stroke-width:0.5"
         id="path1666" />
    </g>
  </g>
</svg>
