<?xml version="1.0" encoding="UTF-8" standalone="no"?>
<!-- Created with Inkscape (http://www.inkscape.org/) -->

<svg
   width="120"
   height="143.62888"
   viewBox="0 0 31.75 38.001807"
   version="1.1"
   id="svg5"
   inkscape:version="1.2.2 (732a01da63, 2022-12-09)"
   sodipodi:docname="Emblem.svg"
   xml:space="preserve"
   inkscape:export-filename="FixedShieldTile.svg"
   inkscape:export-xdpi="5.1035204"
   inkscape:export-ydpi="5.1035204"
   xmlns:inkscape="http://www.inkscape.org/namespaces/inkscape"
   xmlns:sodipodi="http://sodipodi.sourceforge.net/DTD/sodipodi-0.dtd"
   xmlns="http://www.w3.org/2000/svg"
   xmlns:svg="http://www.w3.org/2000/svg"><sodipodi:namedview
     id="namedview7"
     pagecolor="#ffffff"
     bordercolor="#cccccc"
     borderopacity="1"
     inkscape:showpageshadow="0"
     inkscape:pageopacity="1"
     inkscape:pagecheckerboard="0"
     inkscape:deskcolor="#d1d1d1"
     inkscape:document-units="mm"
     showgrid="false"
     showguides="false"
     inkscape:zoom="3.0787878"
     inkscape:cx="-11.855315"
     inkscape:cy="103.4498"
     inkscape:window-width="1920"
     inkscape:window-height="1051"
     inkscape:window-x="-9"
     inkscape:window-y="-9"
     inkscape:window-maximized="1"
     inkscape:current-layer="layer1" /><defs
     id="defs2" /><g
     inkscape:label="Layer 1"
     inkscape:groupmode="layer"
     id="layer1"
     transform="matrix(1.0025838,0,0,1.0025838,-1.0613105,-1.3246567)"><rect
       style="display:inline;fill:#a13a32;fill-opacity:1;stroke:#000000;stroke-width:0.636296;stroke-linecap:round;stroke-linejoin:round;stroke-dasharray:none;stroke-opacity:1;paint-order:stroke markers fill;stop-color:#000000"
       id="rect234"
       width="31.031879"
       height="37.267578"
       x="1.3767233"
       y="1.6393908"
       inkscape:label="Panel Background" /><path
       id="rect3854"
       style="fill:#ffffff;fill-opacity:1;stroke:#000000;stroke-width:0.509037;stroke-linecap:round;stroke-linejoin:miter;stroke-dasharray:none;stroke-opacity:1;paint-order:stroke markers fill;stop-color:#000000"
       inkscape:label="Ribbon"
       d="M 2.3421531,2.5411858 V 38.005174 H 31.443173 V 2.5411858 Z m 1.265905,1.2659049 H 30.177268 V 36.739267 H 3.6080581 Z" /><path
       style="display:inline;fill:#ffffff;fill-opacity:1;stroke:#000000;stroke-width:0.509037;stroke-dasharray:none;stroke-opacity:1"
       d="m 11.825193,20.330077 c -1.119529,0 -2.2390574,0 -3.358586,0 1.1251403,-1.125183 2.250281,-2.250364 3.375422,-3.375546 0,-1.680707 0,-3.361413 0,-5.04212 0.746366,0 1.492733,0 2.239098,0 0,0.934336 0,1.868671 0,2.803007 0.937178,-0.937128 1.874357,-1.874255 2.811534,-2.811382 2.808682,2.80868 5.617361,5.617361 8.426042,8.426041 -1.119546,0 -2.239093,0 -3.35864,0 0,2.805889 0,5.611777 0,8.417666 -3.378289,0 -6.75658,0 -10.13487,0 0,-2.805889 0,-5.611777 0,-8.417666 z"
       id="path3405"
       inkscape:label="House"
       sodipodi:nodetypes="cccccccccccc" /><path
       style="display:none;fill:#ffffff;fill-opacity:1;stroke:#000000;stroke-width:0.509037;stroke-dasharray:none;stroke-opacity:1"
       d="m 8.4749971,20.231841 c 0,-2.808686 0,-5.617372 0,-8.426057 5.6117769,0 11.2235549,0 16.8353319,0 0,2.808701 0,5.617406 0,8.426108 -2.866361,2.738602 -5.527256,5.695991 -8.417692,8.409222 -2.969739,-2.956991 -5.225878,-5.217492 -8.4176399,-8.409273 z"
       id="path308"
       inkscape:label="Shield"
       sodipodi:nodetypes="cccccc" /></g></svg>
