<?xml version="1.0" encoding="UTF-8" standalone="no"?>
<!-- Created with Inkscape (http://www.inkscape.org/) -->

<svg
   width="75"
   height="89.026161"
   viewBox="0 0 19.84375 23.554839"
   version="1.1"
   id="svg5"
   inkscape:version="1.2.2 (732a01da63, 2022-12-09)"
   sodipodi:docname="HouseTileFinal.svg"
   xml:space="preserve"
   inkscape:export-filename="FixedShieldTile.svg"
   inkscape:export-xdpi="5.1035204"
   inkscape:export-ydpi="5.1035204"
   xmlns:inkscape="http://www.inkscape.org/namespaces/inkscape"
   xmlns:sodipodi="http://sodipodi.sourceforge.net/DTD/sodipodi-0.dtd"
   xmlns="http://www.w3.org/2000/svg"
   xmlns:svg="http://www.w3.org/2000/svg"><sodipodi:namedview
     id="namedview7"
     pagecolor="#ffffff"
     bordercolor="#cccccc"
     borderopacity="1"
     inkscape:showpageshadow="0"
     inkscape:pageopacity="1"
     inkscape:pagecheckerboard="0"
     inkscape:deskcolor="#d1d1d1"
     inkscape:document-units="mm"
     showgrid="false"
     showguides="false"
     inkscape:zoom="8.7081269"
     inkscape:cx="37.264041"
     inkscape:cy="43.57998"
     inkscape:window-width="1920"
     inkscape:window-height="1051"
     inkscape:window-x="-9"
     inkscape:window-y="-9"
     inkscape:window-maximized="1"
     inkscape:current-layer="layer1" /><defs
     id="defs2" /><g
     inkscape:label="Layer 1"
     inkscape:groupmode="layer"
     id="layer1"
     transform="matrix(1.0025838,0,0,1.0025838,-1.0613105,-1.3246567)"><rect
       style="display:inline;fill:#a13a32;fill-opacity:1;stroke:#000000;stroke-width:0.391085;stroke-linecap:round;stroke-linejoin:round;stroke-dasharray:none;stroke-opacity:1;paint-order:stroke markers fill;stop-color:#000000"
       id="rect234"
       width="19.073053"
       height="22.905685"
       x="1.4183536"
       y="1.6154673"
       inkscape:label="Panel Background" /><path
       id="rect3854"
       style="fill:#ffffff;fill-opacity:1;stroke:#000000;stroke-width:0.312868;stroke-linecap:round;stroke-linejoin:miter;stroke-dasharray:none;stroke-opacity:1;paint-order:stroke markers fill;stop-color:#000000"
       inkscape:label="Ribbon"
       d="M 2.0117336,2.1697352 V 23.966885 H 19.898027 V 2.1697352 Z M 2.7897939,2.9477954 H 19.119967 V 23.188824 H 2.7897939 Z" /><path
       style="display:inline;fill:#ffffff;fill-opacity:1;stroke:#000000;stroke-width:0.312868;stroke-dasharray:none;stroke-opacity:1"
       d="m 7.8402728,13.103281 c -0.6880935,0 -1.3761867,0 -2.06428,0 0.6915424,-0.691569 1.3830851,-1.383136 2.0746279,-2.074704 0,-1.0330096 0,-2.0660181 0,-3.0990272 0.4587372,0 0.9174751,0 1.3762117,0 0,0.5742688 0,1.148537 0,1.7228058 0.5760155,-0.5759848 1.1520316,-1.1519691 1.7280466,-1.7279533 1.726294,1.7262926 3.452586,3.4525857 5.178879,5.1788787 -0.688104,0 -1.376209,0 -2.064313,0 0,1.724577 0,3.449154 0,5.173731 -2.07639,0 -4.1527815,0 -6.2291722,0 0,-1.724577 0,-3.449154 0,-5.173731 z"
       id="path3405"
       inkscape:label="House"
       sodipodi:nodetypes="cccccccccccc" /><path
       style="display:none;fill:#ffffff;fill-opacity:1;stroke:#000000;stroke-width:0.312868;stroke-dasharray:none;stroke-opacity:1"
       d="m 5.7811496,13.042902 c 0,-1.726296 0,-3.4525926 0,-5.1788882 3.4491536,0 6.8983074,0 10.3474614,0 0,1.7263055 0,3.4526142 0,5.1789202 -1.761745,1.68322 -3.397205,3.500914 -5.173747,5.168541 C 9.1295805,16.394026 7.7428949,15.004659 5.7811496,13.042902 Z"
       id="path308"
       inkscape:label="Shield"
       sodipodi:nodetypes="cccccc" /></g></svg>
