<?xml version="1.0" encoding="UTF-8" standalone="no"?>
<svg
   version="1.1"
   id="svg19795"
   width="24"
   height="22"
   viewBox="0 0 24 22"
   sodipodi:docname="LeagueEagleGreenIcon.svg"
   inkscape:version="1.2.2 (732a01da63, 2022-12-09)"
   xmlns:inkscape="http://www.inkscape.org/namespaces/inkscape"
   xmlns:sodipodi="http://sodipodi.sourceforge.net/DTD/sodipodi-0.dtd"
   xmlns="http://www.w3.org/2000/svg"
   xmlns:svg="http://www.w3.org/2000/svg">
  <defs
     id="defs10" />
  <sodipodi:namedview
     id="namedview8"
     pagecolor="#ffffff"
     bordercolor="#cccccc"
     borderopacity="1"
     inkscape:showpageshadow="0"
     inkscape:pageopacity="1"
     inkscape:pagecheckerboard="0"
     inkscape:deskcolor="#d1d1d1"
     showgrid="false"
     inkscape:zoom="27.770012"
     inkscape:cx="11.163121"
     inkscape:cy="5.9236561"
     inkscape:window-width="1920"
     inkscape:window-height="1051"
     inkscape:window-x="-9"
     inkscape:window-y="-9"
     inkscape:window-maximized="1"
     inkscape:current-layer="svg19795" />
  <g
     id="g19801"
     transform="translate(2290.7971,1675.2933)">
    <g
       transform="matrix(0.97766857,0,0,0.97766857,800.59841,-137.62263)"
       id="g4">
      <path
         style="fill:#006338;fill-opacity:1;stroke:none;stroke-width:2.7464;stroke-linecap:butt;stroke-linejoin:miter;stroke-dasharray:none;stroke-opacity:1;paint-order:markers stroke fill"
         d="m -3159.7424,-1572.7934 -0.3808,0.7502 0.2936,1.5828 0.5712,1.5868 -2.198,-1.1154 0.028,1.0565 0.3848,0.8641 1.5394,0.6875 -2.5034,-0.075 0.2261,0.6205 0.7102,0.707 1.4085,0.063 -0.2062,0.4282 -2.1149,0.373 0.1429,0.3575 0.6983,0.4555 1.4958,0.1062 -0.6071,0.4714 -1.1704,0.3809 0.3292,0.703 0.635,0.1728 1.6306,-0.3653 -0.095,0.3025 -1.5593,1.0763 0.254,0.1767 2.1266,-0.2632 -1.6744,1.3982 0.3333,0.2672 1.0316,-0.039 1.0514,-0.5774 -0.3175,0.6324 -1.2379,1.3629 0.1905,0.1886 1.2775,-0.1099 0.746,-0.4753 -1.3489,1.6889 0.5038,0.3966 1.3847,-0.1963 1.5355,-0.9505 1.7915,1.4196 -0.3815,0.7665 -0.8416,0.01 -0.7181,-1.0277 -1.3244,0.2001 0.7127,0.661 0.8135,0.4332 -0.095,0.3055 -0.8753,-0.2389 -0.7912,0.089 -0.3311,0.6831 0.3086,0.3278 0.1685,-0.4334 0.3366,0.3445 1.0997,0.033 0.5444,-0.2777 0.4207,0.3612 0.1458,0.972 0.3368,-0.022 0.073,0.4665 0.3982,-0.2443 -0.034,-1.1776 -0.5948,-0.5944 1.6945,-0.5999 0.2636,0.4389 -0.2244,1.9774 0.8417,0.4721 -0.01,1.0498 0.6228,0.05 0.5387,1.372 0.5386,-1.372 0.6228,-0.05 -0.01,-1.0498 0.8417,-0.4721 -0.2244,-1.9774 0.2636,-0.4389 1.6945,0.5999 -0.5947,0.5944 -0.034,1.1776 0.3982,0.2443 0.073,-0.4665 0.3366,0.022 0.1459,-0.972 0.4208,-0.3612 0.5444,0.2777 1.0997,-0.033 0.3366,-0.3445 0.1683,0.4334 0.3088,-0.3278 -0.3312,-0.6831 -0.7911,-0.089 -0.8753,0.2389 -0.095,-0.3055 0.8135,-0.4332 0.7127,-0.661 -1.3243,-0.2001 -0.7182,1.0277 -0.8416,-0.01 -0.3815,-0.7665 1.7915,-1.4196 1.5355,0.9505 1.3847,0.1963 0.5038,-0.3966 -1.3489,-1.6889 0.7458,0.4753 1.2777,0.1099 0.1905,-0.1886 -1.2379,-1.3629 -0.3175,-0.6324 1.0514,0.5774 1.0317,0.039 0.3332,-0.2672 -1.6744,-1.3982 2.1266,0.2632 0.254,-0.1767 -1.5593,-1.0763 -0.095,-0.3025 1.6306,0.3653 0.635,-0.1728 0.3292,-0.703 -1.1704,-0.3809 -0.6071,-0.4714 1.4958,-0.1062 0.6983,-0.4555 0.1429,-0.3575 -2.1149,-0.373 -0.2062,-0.4282 1.4085,-0.063 0.7102,-0.707 0.2261,-0.6205 -2.5034,0.075 1.5394,-0.6875 0.3848,-0.8641 0.028,-1.0565 -2.1981,1.1154 0.5713,-1.5868 0.2936,-1.5828 -0.3808,-0.7502 -0.6048,1.1842 -2.0256,1.8162 -3.8884,2.4385 -0.3646,1.5219 0.8248,2.0664 -0.4994,0.6775 -0.8584,-0.3165 -1.159,-1.2539 0.086,-2.0843 -0.6116,-1.3663 -1.7002,-0.4777 -1.4869,-0.1389 -0.2582,0.6055 0.4657,1.1275 0.6285,-0.3777 0.4938,1.3164 -0.3364,1.2365 -1.306,1.4129 -0.8584,0.3165 -0.4994,-0.6775 0.8249,-2.0664 -0.3647,-1.5219 -3.8884,-2.4385 -2.0256,-1.8162 z m 9.7864,4.6527 0.7299,0.2986 -0.4363,0.4203 -0.4048,-0.4909 z"
         id="path2" />
    </g>
  </g>
</svg>
