<?xml version="1.0" encoding="UTF-8" standalone="no"?>
<!-- Created with Inkscape (http://www.inkscape.org/) -->

<svg
   width="200mm"
   height="70mm"
   viewBox="0 0 200 70"
   version="1.1"
   id="svg5"
   inkscape:version="1.2.2 (732a01da63, 2022-12-09)"
   sodipodi:docname="Linksys.svg"
   xmlns:inkscape="http://www.inkscape.org/namespaces/inkscape"
   xmlns:sodipodi="http://sodipodi.sourceforge.net/DTD/sodipodi-0.dtd"
   xmlns="http://www.w3.org/2000/svg"
   xmlns:svg="http://www.w3.org/2000/svg">
  <sodipodi:namedview
     id="namedview7"
     pagecolor="#ffffff"
     bordercolor="#cccccc"
     borderopacity="1"
     inkscape:showpageshadow="0"
     inkscape:pageopacity="1"
     inkscape:pagecheckerboard="0"
     inkscape:deskcolor="#d1d1d1"
     inkscape:document-units="mm"
     showgrid="false"
     inkscape:zoom="1.0885159"
     inkscape:cx="276.06395"
     inkscape:cy="101.51437"
     inkscape:window-width="1920"
     inkscape:window-height="1051"
     inkscape:window-x="-9"
     inkscape:window-y="-9"
     inkscape:window-maximized="1"
     inkscape:current-layer="layer1" />
  <defs
     id="defs2">
    <marker
       style="overflow:visible"
       id="Arrow1L"
       refX="0"
       refY="0"
       orient="auto-start-reverse"
       inkscape:stockid="Arrow1L"
       markerWidth="8.75"
       markerHeight="5"
       viewBox="0 0 8.75 5"
       inkscape:isstock="true"
       inkscape:collect="always"
       preserveAspectRatio="xMidYMid">
      <path
         style="fill:context-stroke;fill-rule:evenodd;stroke:none"
         d="M 0,0 5,-5 -12.5,0 5,5 Z"
         id="arrow1L"
         transform="scale(-0.5)" />
    </marker>
    <marker
       style="overflow:visible"
       id="Arrow1L-8"
       refX="0"
       refY="0"
       orient="auto-start-reverse"
       inkscape:stockid="Arrow1L"
       markerWidth="8.75"
       markerHeight="5"
       viewBox="0 0 8.75 5"
       inkscape:isstock="true"
       inkscape:collect="always"
       preserveAspectRatio="xMidYMid">
      <path
         style="fill:context-stroke;fill-rule:evenodd;stroke:none"
         d="M 0,0 5,-5 -12.5,0 5,5 Z"
         id="arrow1L-3"
         transform="scale(-0.5)" />
    </marker>
    <marker
       style="overflow:visible"
       id="Arrow1L-8-8"
       refX="0"
       refY="0"
       orient="auto-start-reverse"
       inkscape:stockid="Arrow1L"
       markerWidth="8.75"
       markerHeight="5"
       viewBox="0 0 8.75 5"
       inkscape:isstock="true"
       inkscape:collect="always"
       preserveAspectRatio="xMidYMid">
      <path
         style="fill:context-stroke;fill-rule:evenodd;stroke:none"
         d="M 0,0 5,-5 -12.5,0 5,5 Z"
         id="arrow1L-3-1"
         transform="scale(-0.5)" />
    </marker>
  </defs>
  <g
     inkscape:label="Layer 1"
     inkscape:groupmode="layer"
     id="layer1">
    <g
       aria-label="LINKSYS"
       id="text790"
       style="font-size:50.8px;display:inline;fill:#5da1d8;stroke:#f0d44c;stroke-width:0.5;stroke-linecap:round;stroke-linejoin:round;stop-color:#000000">
      <path
         d="m 10.226529,38.699494 q 0,-0.3556 0.254,-0.5588 0.254,-0.254 0.6096,-0.254 h 12.4968 q 0.8128,0 0.8128,0.8128 0,0.3556 -0.254,0.6096 -0.2032,0.254 -0.5588,0.254 h -12.4968 q -0.3556,0 -0.6096,-0.254 -0.254,-0.254 -0.254,-0.6096 z m -3.8099995,-3.556 q -0.8128,0 -0.8128,-0.8128 V 4.9174941 q 0,-0.8128 0.8128,-0.8128 0.8636,0 0.8636,0.8128 V 33.467094 H 20.792929 q 0.4064,0 0.6096,0.254 0.254,0.254 0.254,0.6096 0,0.8128 -0.8636,0.8128 z m 3.7591995,-25.654 q 0,-0.8128 0.8128,-0.8128 0.3556,0 0.6096,0.254 0.254,0.2032 0.254,0.5588 v 20.7772 q 0,0.3556 -0.254,0.6096 -0.254,0.2032 -0.6096,0.2032 -0.8128,0 -0.8128,-0.8128 z m 13.462,25.7556 q -0.5588,-0.1524 -0.762,-0.508 -0.2032,-0.3556 -0.1016,-0.7112 v -0.0508 q 0.254,-0.6096 0.8636,-0.6096 0.1016,0 0.1524,0.0508 0.0508,0 0.1524,0 0.4064,0.1016 0.5588,0.4572 0.1524,0.3556 0,0.7112 v 0.0508 q -0.1524,0.6096 -0.8636,0.6096 z"
         style="font-family:Potra;-inkscape-font-specification:Potra"
         id="path5683" />
      <path
         d="m 35.524907,36.210294 v -13.1572 h -3.81 q -0.8128,0 -0.8128,-0.8128 V 5.2222941 q 0,-0.3556 0.2032,-0.6096 0.254,-0.254 0.6096,-0.254 0.3556,0 0.6096,0.254 0.254,0.254 0.254,0.6096 V 21.376694 h 3.7592 q 0.3556,0 0.6096,0.254 0.254,0.254 0.254,0.6096 v 13.97 q 0,0.3556 -0.254,0.6096 -0.254,0.2032 -0.6096,0.2032 -0.8128,0 -0.8128,-0.8128 z m -4.572,-9.398 q 0,-0.8128 0.8128,-0.8128 0.8636,0 0.8636,0.8128 v 12.2936 q 0,0.8128 -0.8636,0.8128 -0.8128,0 -0.8128,-0.8128 z m 6.2484,-9.0932 q 0,0.3556 -0.254,0.6096 -0.254,0.2032 -0.6096,0.2032 -0.8128,0 -0.8128,-0.8128 v -8.7376 q 0,-0.3556 0.2032,-0.6096 0.254,-0.254 0.6096,-0.254 0.3556,0 0.6096,0.254 0.254,0.254 0.254,0.6096 z m -1.1684,22.1996 q -0.3556,-0.1016 -0.508,-0.4572 -0.1524,-0.3556 -0.0508,-0.7112 v -0.0508 q 0.254,-0.6096 0.8636,-0.6096 0.1016,0 0.1524,0.0508 0.0508,0 0.1524,0 0.4064,0.1016 0.5588,0.4572 0.1524,0.3556 0,0.7112 v 0.0508 q -0.1524,0.6096 -0.8636,0.6096 z"
         style="font-family:Potra;-inkscape-font-specification:Potra"
         id="path5685" />
      <path
         d="m 50.714089,36.667494 q 0,0.8128 -0.8636,0.8128 -0.8128,0 -0.8128,-0.8128 v -14.3764 q 0,-0.8636 0.8128,-0.8636 0.8636,0 0.8636,0.8636 z m -5.334,3.3528 q -0.8128,0 -0.8128,-0.8128 V 5.2730941 q 0,-0.6604 0.6096,-0.8128 0.0508,0 0.1016,0 0.0508,-0.0508 0.1016,-0.0508 0.4572,0 0.7112,0.4064 l 20.9296,33.9343999 q 0.4572,0.7112 -0.254,1.1684 -0.3048,0.1016 -0.4572,0.1016 -0.4572,0 -0.7112,-0.4064 l -19.3548,-31.3944 v 30.988 q 0,0.3556 -0.254,0.6096 -0.254,0.2032 -0.6096,0.2032 z m 6.604,-31.8516 q -0.4572,-0.7112 0.254,-1.1684 0.1524,-0.1016 0.4572,-0.1016 0.508,0 0.7112,0.3556 l 12.0904,19.2532 V 5.2730941 q 0,-0.3556 0.2032,-0.6096 0.254,-0.254 0.6096,-0.254 0.3556,0 0.6096,0.254 0.254,0.254 0.254,0.6096 V 29.403094 q 0,0.6604 -0.6096,0.8128 -0.7112,0 -0.9652,-0.3556 z m 18.796,-0.9144 q 0.4064,0 0.6096,0.254 0.254,0.254 0.254,0.6096 v 31.0896 q 0,0.8128 -0.8636,0.8128 -0.8128,0 -0.8128,-0.8128 v -31.0896 q 0,-0.3556 0.2032,-0.6096 0.254,-0.254 0.6096,-0.254 z m -0.254,-1.1176 q -0.4064,-0.1015999 -0.5588,-0.4571999 -0.1524,-0.3556 -0.0508,-0.7112 h 0.0508 q 0.1524,-0.6604 0.8636,-0.6604 0.1016,0 0.1016,0.0508 0.0508,0 0.1524,0 0.8636,0.3556 0.6096,1.1684 l -0.0508,0.0508 q -0.1524,0.6095999 -0.8636,0.6095999 z"
         style="font-family:Potra;-inkscape-font-specification:Potra"
         id="path5687" />
      <path
         d="m 80.940067,20.665494 q -0.3556,0 -0.6096,-0.254 -0.2032,-0.254 -0.2032,-0.6096 V 5.2222941 q 0,-0.3556 0.2032,-0.6096 0.254,-0.254 0.6096,-0.254 0.3556,0 0.6096,0.254 0.254,0.254 0.254,0.6096 V 19.801894 q 0,0.3556 -0.254,0.6096 -0.254,0.254 -0.6096,0.254 z m -0.8128,15.2908 v -8.7884 q 0,-0.3048 0.1524,-0.508 l 17.3736,-22.0979999 q 0.254,-0.3048 0.6604,-0.3048 0.3048,0 0.508,0.1524 0.7112,0.508 0.1524,1.1684 l -17.1704,21.8947999 v 8.4836 q 0,0.3556 -0.254,0.6096 -0.254,0.254 -0.6096,0.254 -0.3556,0 -0.6096,-0.254 -0.2032,-0.254 -0.2032,-0.6096 z m 6.1468,-21.336 q 0,0.3556 -0.254,0.6096 -0.254,0.254 -0.6096,0.254 -0.3556,0 -0.6096,-0.254 -0.2032,-0.254 -0.2032,-0.6096 v -4.8768 q 0,-0.8128 0.8128,-0.8128 0.3556,0 0.6096,0.254 0.254,0.2032 0.254,0.5588 z m -0.8636,25.0952 q -0.8128,0 -0.8128,-0.8128 v -9.398 q 0,-0.3556 0.1524,-0.508 l 2.9972,-3.81 q 0.254,-0.3048 0.6604,-0.3048 0.4572,0 0.6604,0.3048 l 10.16,13.3096 q 0.4572,0.6604 -0.1524,1.1684 -0.2032,0.1524 -0.508,0.1524 -0.4064,0 -0.6604,-0.3048 l -9.4996,-12.446 -2.1336,2.6924 v 9.144 q 0,0.3556 -0.254,0.6096 -0.254,0.2032 -0.6096,0.2032 z M 105.22247,4.4094941 q 0.6604,0.5588 0.1016,1.1684 l -12.750803,16.1543999 12.801603,16.6624 q 0.2032,0.254 0.1524,0.6096 -0.0508,0.3048 -0.3556,0.5588 -0.1524,0.1524 -0.508,0.1524 -0.3556,0 -0.6604,-0.3048 l -13.157203,-17.1704 q -0.3556,-0.508 0,-1.016 L 104.05407,4.5618941 q 0.254,-0.3048 0.6096,-0.3048 0.3556,0 0.5588,0.1524 z M 80.076467,38.496294 q 0.254,-0.6096 0.8636,-0.6096 0.2032,0 0.3048,0.0508 0.3556,0.1016 0.508,0.4572 0.1524,0.3048 0.0508,0.6604 v 0.0508 q -0.1524,0.6096 -0.8636,0.6096 -0.5588,-0.1524 -0.762,-0.4572 -0.2032,-0.3556 -0.1016,-0.762 z"
         style="font-family:Potra;-inkscape-font-specification:Potra"
         id="path5689" />
      <path
         d="m 113.9092,20.716294 q -2.794,-2.54 -2.54,-6.0452 0,-0.1016 0,-0.508 0.0508,-0.4064 0.2032,-0.9652 0.2032,-0.6096 0.5588,-1.27 0.3556,-0.6604 1.016,-1.27 1.6256,-1.6256 3.81,-1.9812 2.2352,-0.3556 4.4196,-0.3556 0.7112,0.0508 2.2352,0.3048 1.524,0.2032 3.048,1.0668 3.81,2.0828 3.6576,6.5024 -0.1016,0.762 -0.8636,0.762 -0.4064,0 -0.6604,-0.254 -0.2032,-0.254 -0.1524,-0.6096 0.1016,-1.8796 -0.762,-3.0988 -0.4572,-0.8128 -1.2192,-1.3208 -0.762,-0.5588 -1.6764,-0.9144 -0.9144,-0.3556 -1.8796,-0.508 -0.9144,-0.2032 -1.778,-0.254 -1.8288,0 -3.7592,0.254 -1.8796,0.254 -3.2512,1.5748 -0.9652,0.9144 -1.1176,1.8288 -0.1524,0.9144 -0.1524,1.016 -0.0508,1.4732 0.4064,2.6416 0.4572,1.1176 1.4224,2.032 0.9652,0.9144 2.286,1.7272 1.3716,0.762 3.048,1.4732 l 0.762,0.3556 q 1.9812,0.8636 3.6068,1.6764 1.6764,0.762 2.8448,1.6256 1.3208,0.8636 1.8796,1.9304 0.7112,1.2192 0.3556,2.54 -0.1524,0.6096 -0.8128,0.6096 -0.508,-0.1016 -0.7112,-0.3556 -0.2032,-0.3048 -0.1016,-0.6604 0.4064,-1.524 -1.6764,-2.794 -2.0828,-1.27 -6.0452,-3.048 l -0.762,-0.3048 q -1.4224,-0.6604 -2.9464,-1.4224 -1.524,-0.8128 -2.6924,-1.9812 z m 8.89,19.304 q -2.5908,-0.1524 -4.8768,-1.1176 -2.2352,-0.9652 -3.8608,-2.6924 -1.5748,-1.6764 -2.3876,-3.7592 -0.762,-2.0828 -0.6604,-4.3688 0.1016,-0.8128 0.9144,-0.8128 0.3556,0.0508 0.5588,0.3048 0.254,0.2032 0.2032,0.6096 -0.1524,3.9624 2.5908,6.858 1.4224,1.4732 3.3528,2.3368 1.9304,0.8636 4.2164,0.9652 0.4064,0 0.6096,0.254 0.254,0.254 0.2032,0.6096 0,0.3556 -0.254,0.6096 -0.254,0.2032 -0.5588,0.2032 z m 10.2616,-6.6548 q -1.778,1.8796 -4.0132,2.3368 -2.1844,0.4572 -4.6228,0.4572 -1.2192,-0.0508 -2.54,-0.3556 -1.27,-0.3048 -2.4384,-0.8636 -1.1176,-0.5588 -2.032,-1.4224 -0.9144,-0.8636 -1.4224,-2.0828 -0.1016,-0.3048 0,-0.6096 0.1524,-0.3556 0.4572,-0.508 0.1016,0 0.1524,0 0.0508,-0.0508 0.1524,-0.0508 0.5588,0 0.8128,0.508 0.4064,1.016 1.1684,1.6764 0.762,0.6604 1.7272,1.1176 0.9652,0.4064 1.9812,0.6096 1.0668,0.2032 2.032,0.3048 1.27,0 2.6416,-0.1524 1.3716,-0.1524 2.5908,-0.6604 1.2192,-0.508 2.1336,-1.3716 0.9144,-0.9144 1.27,-2.3876 0.0508,-1.27 -0.1016,-2.032 -0.1524,-0.762 -0.762,-1.4732 -0.762,-0.8636 -2.4384,-1.8288 -1.6764,-1.016 -4.6228,-2.3368 -2.1844,-0.9652 -3.9116,-1.8288 -1.6764,-0.8636 -2.8448,-1.7272 -2.9972,-2.2352 -2.54,-4.7244 0.1016,-0.4572 0.3556,-0.5588 0.3048,-0.1016 0.6604,-0.1016 0.3556,0.0508 0.508,0.3556 0.2032,0.254 0.1524,0.6096 -0.1524,0.8636 0.4572,1.7272 0.6096,0.8128 1.778,1.6256 1.1684,0.762 2.7432,1.5748 1.6256,0.762 3.3528,1.524 3.2004,1.4732 4.9276,2.54 1.778,1.0668 2.6416,2.0828 1.016,1.1176 1.1684,2.2352 0.2032,1.1176 0.1016,2.4384 0,0.1016 -0.3048,1.1684 -0.3048,1.016 -1.3716,2.1844 z m -1.016,-25.0444 q 2.9972,3.302 2.7432,8.0772 -0.1016,0.8128 -0.8636,0.8128 -0.9144,-0.1016 -0.8128,-0.9144 0.1016,-1.9812 -0.508,-3.7592 -0.6096,-1.778 -1.8288,-3.0988 -1.3208,-1.4732 -3.3528,-2.286 -1.9812,-0.8636 -4.4704,-1.016 -0.3556,0 -0.6096,-0.2539999 -0.254,-0.254 -0.2032,-0.6096 0,-0.3556 0.254,-0.5588 0.254,-0.254 0.6096,-0.254 5.7912,0.3048 9.0424,3.8607999 z m -14.8336,20.32 q -0.254,0.6096 -0.8636,0.6096 -0.6096,-0.1524 -0.8128,-0.508 -0.2032,-0.3556 -0.0508,-0.7112 v -0.0508 q 0.1524,-0.6096 0.8636,-0.6096 0.1016,0 0.1524,0.0508 0.0508,0 0.1524,0 0.3556,0.1016 0.508,0.4572 0.1524,0.3556 0.0508,0.7112 z"
         style="font-family:Potra;-inkscape-font-specification:Potra;display:inline"
         id="path5691" />
      <path
         d="m 139.61403,4.6634941 q 0.1016,-0.1016 0.3556,-0.1016 0.508,0 0.762,0.4064 l 10.922,20.1167999 q 0.1016,0.2032 0.1016,0.4064 v 13.6652 q 0,0.8128 -0.8128,0.8128 -0.3556,0 -0.6096,-0.2032 -0.254,-0.254 -0.254,-0.6096 v -13.462 L 139.25843,5.7810941 q -0.1524,-0.3048 -0.0508,-0.6096 0.1016,-0.3556 0.4064,-0.508 z m 16.51,34.4931999 q 0,0.8128 -0.8128,0.8128 -0.3556,0 -0.6096,-0.2032 -0.254,-0.254 -0.254,-0.6096 v -10.3124 q 0,-0.3556 0.254,-0.5588 0.254,-0.254 0.6096,-0.254 0.8128,0 0.8128,0.8128 z m -10.0076,-32.004 q 0.1016,-0.1016 0.4064,-0.1016 0.4572,0 0.7112,0.4064 l 8.1788,14.986 9.4996,-17.4751999 q 0.254,-0.4064 0.7112,-0.4064 0.3048,0 0.4064,0.1016 0.3048,0.1524 0.4064,0.508 0.1016,0.3048 -0.0508,0.6096 l -10.2108,18.7959999 q -0.254,0.4064 -0.762,0.4064 h -0.0508 q -0.4572,0 -0.7112,-0.4064 l -8.89,-16.3068 q -0.1524,-0.3048 -0.0508,-0.6096 0.1016,-0.3556 0.4064,-0.508 z m 8.6868,8.4328 q -0.3048,0 -0.4064,-0.1016 -0.3048,-0.1524 -0.4064,-0.4572 -0.1016,-0.3556 0.0508,-0.6604 l 3.9624,-7.1628 q 0.254,-0.4572 0.7112,-0.4572 0.1016,0 0.4064,0.1016 0.3048,0.1524 0.4064,0.508 0.1016,0.3556 -0.0508,0.6604 l -3.9624,7.1628 q -0.254,0.4064 -0.7112,0.4064 z m -9.3472,-11.0743999 q 0.3556,0.1016 0.508,0.4572 0.1524,0.3048 0.0508,0.6604 v 0.0508 q -0.254,0.6095999 -0.8636,0.6095999 -0.5588,-0.1524 -0.762,-0.4571999 -0.2032,-0.3556 -0.1016,-0.762 0.254,-0.6096 0.8636,-0.6096 0.2032,0 0.3048,0.0508 z"
         style="font-family:Potra;-inkscape-font-specification:Potra;display:inline"
         id="path5693" />
      <path
         d="m 173.49763,20.716294 q -2.794,-2.54 -2.54,-6.0452 0,-0.1016 0,-0.508 0.0508,-0.4064 0.2032,-0.9652 0.2032,-0.6096 0.5588,-1.27 0.3556,-0.6604 1.016,-1.27 1.6256,-1.6256 3.81,-1.9812 2.2352,-0.3556 4.4196,-0.3556 0.7112,0.0508 2.2352,0.3048 1.524,0.2032 3.048,1.0668 3.81,2.0828 3.6576,6.5024 -0.1016,0.762 -0.8636,0.762 -0.4064,0 -0.6604,-0.254 -0.2032,-0.254 -0.1524,-0.6096 0.1016,-1.8796 -0.762,-3.0988 -0.4572,-0.8128 -1.2192,-1.3208 -0.762,-0.5588 -1.6764,-0.9144 -0.9144,-0.3556 -1.8796,-0.508 -0.9144,-0.2032 -1.778,-0.254 -1.8288,0 -3.7592,0.254 -1.8796,0.254 -3.2512,1.5748 -0.9652,0.9144 -1.1176,1.8288 -0.1524,0.9144 -0.1524,1.016 -0.0508,1.4732 0.4064,2.6416 0.4572,1.1176 1.4224,2.032 0.9652,0.9144 2.286,1.7272 1.3716,0.762 3.048,1.4732 l 0.762,0.3556 q 1.9812,0.8636 3.6068,1.6764 1.6764,0.762 2.8448,1.6256 1.3208,0.8636 1.8796,1.9304 0.7112,1.2192 0.3556,2.54 -0.1524,0.6096 -0.8128,0.6096 -0.508,-0.1016 -0.7112,-0.3556 -0.2032,-0.3048 -0.1016,-0.6604 0.4064,-1.524 -1.6764,-2.794 -2.0828,-1.27 -6.0452,-3.048 l -0.762,-0.3048 q -1.4224,-0.6604 -2.9464,-1.4224 -1.524,-0.8128 -2.6924,-1.9812 z m 8.89,19.304 q -2.5908,-0.1524 -4.8768,-1.1176 -2.2352,-0.9652 -3.8608,-2.6924 -1.5748,-1.6764 -2.3876,-3.7592 -0.762,-2.0828 -0.6604,-4.3688 0.1016,-0.8128 0.9144,-0.8128 0.3556,0.0508 0.5588,0.3048 0.254,0.2032 0.2032,0.6096 -0.1524,3.9624 2.5908,6.858 1.4224,1.4732 3.3528,2.3368 1.9304,0.8636 4.2164,0.9652 0.4064,0 0.6096,0.254 0.254,0.254 0.2032,0.6096 0,0.3556 -0.254,0.6096 -0.254,0.2032 -0.5588,0.2032 z m 10.2616,-6.6548 q -1.778,1.8796 -4.0132,2.3368 -2.1844,0.4572 -4.6228,0.4572 -1.2192,-0.0508 -2.54,-0.3556 -1.27,-0.3048 -2.4384,-0.8636 -1.1176,-0.5588 -2.032,-1.4224 -0.9144,-0.8636 -1.4224,-2.0828 -0.1016,-0.3048 0,-0.6096 0.1524,-0.3556 0.4572,-0.508 0.1016,0 0.1524,0 0.0508,-0.0508 0.1524,-0.0508 0.5588,0 0.8128,0.508 0.4064,1.016 1.1684,1.6764 0.762,0.6604 1.7272,1.1176 0.9652,0.4064 1.9812,0.6096 1.0668,0.2032 2.032,0.3048 1.27,0 2.6416,-0.1524 1.3716,-0.1524 2.5908,-0.6604 1.2192,-0.508 2.1336,-1.3716 0.9144,-0.9144 1.27,-2.3876 0.0508,-1.27 -0.1016,-2.032 -0.1524,-0.762 -0.762,-1.4732 -0.762,-0.8636 -2.4384,-1.8288 -1.6764,-1.016 -4.6228,-2.3368 -2.1844,-0.9652 -3.9116,-1.8288 -1.6764,-0.8636 -2.8448,-1.7272 -2.9972,-2.2352 -2.54,-4.7244 0.1016,-0.4572 0.3556,-0.5588 0.3048,-0.1016 0.6604,-0.1016 0.3556,0.0508 0.508,0.3556 0.2032,0.254 0.1524,0.6096 -0.1524,0.8636 0.4572,1.7272 0.6096,0.8128 1.778,1.6256 1.1684,0.762 2.7432,1.5748 1.6256,0.762 3.3528,1.524 3.2004,1.4732 4.9276,2.54 1.778,1.0668 2.6416,2.0828 1.016,1.1176 1.1684,2.2352 0.2032,1.1176 0.1016,2.4384 0,0.1016 -0.3048,1.1684 -0.3048,1.016 -1.3716,2.1844 z m -1.016,-25.0444 q 2.9972,3.302 2.7432,8.0772 -0.1016,0.8128 -0.8636,0.8128 -0.9144,-0.1016 -0.8128,-0.9144 0.1016,-1.9812 -0.508,-3.7592 -0.6096,-1.778 -1.8288,-3.0988 -1.3208,-1.4732 -3.3528,-2.286 -1.9812,-0.8636 -4.4704,-1.016 -0.3556,0 -0.6096,-0.2539999 -0.254,-0.254 -0.2032,-0.6096 0,-0.3556 0.254,-0.5588 0.254,-0.254 0.6096,-0.254 5.7912,0.3048 9.0424,3.8607999 z m -14.8336,20.32 q -0.254,0.6096 -0.8636,0.6096 -0.6096,-0.1524 -0.8128,-0.508 -0.2032,-0.3556 -0.0508,-0.7112 v -0.0508 q 0.1524,-0.6096 0.8636,-0.6096 0.1016,0 0.1524,0.0508 0.0508,0 0.1524,0 0.3556,0.1016 0.508,0.4572 0.1524,0.3556 0.0508,0.7112 z"
         style="font-family:Potra;-inkscape-font-specification:Potra;display:inline"
         id="path5695" />
    </g>
    <path
       style="fill:#5da1d8;fill-opacity:0;stroke:#f0d44c;stroke-width:0.499999;stroke-linecap:round;stroke-linejoin:round;stroke-dasharray:none;marker-end:url(#Arrow1L);stop-color:#000000"
       d="m 13.249999,52.624876 c 26.62845,-6.823576 138.795851,-12.448288 169.999991,0"
       id="path3290"
       sodipodi:nodetypes="cc" />
    <path
       style="fill:#5da1d8;fill-opacity:0;stroke:#f0d44c;stroke-width:0.499999;stroke-linecap:round;stroke-linejoin:round;stroke-dasharray:none;marker-end:url(#Arrow1L-8);stop-color:#000000"
       d="m 13.249999,57.624876 c 26.62845,-6.823576 138.795851,-12.448288 169.999991,0"
       id="path3290-7"
       sodipodi:nodetypes="cc" />
    <path
       style="fill:#5da1d8;fill-opacity:0;stroke:#f0d44c;stroke-width:0.499999;stroke-linecap:round;stroke-linejoin:round;stroke-dasharray:none;marker-end:url(#Arrow1L-8-8);stop-color:#000000"
       d="m 13.249999,62.624876 c 26.62845,-6.823576 138.795851,-12.448288 169.999991,0"
       id="path3290-7-9"
       sodipodi:nodetypes="cc" />
  </g>
</svg>
