<svg version="1.1" viewBox="0.0 0.0 1152.0 192.0" fill="none" stroke="none" stroke-linecap="square" stroke-miterlimit="10" xmlns:xlink="http://www.w3.org/1999/xlink" xmlns="http://www.w3.org/2000/svg"><clipPath id="p.0"><path d="m0 0l1152.0 0l0 192.0l-1152.0 0l0 -192.0z" clip-rule="nonzero"/></clipPath><g clip-path="url(#p.0)"><path fill="#000000" fill-opacity="0.0" d="m0 0l1152.0 0l0 192.0l-1152.0 0z" fill-rule="evenodd"/><path fill="#000000" d="m0.010498688 96.00525l0 0c0 -53.019337 42.980663 -96.0 96.0 -96.0l960.0 0c25.460815 0 49.878784 10.114257 67.8822 28.11775c18.00354 18.003492 28.117798 42.421463 28.117798 67.88225l0 0l0 0c0 53.019333 -42.980713 96.0 -96.0 96.0l-960.0 0c-53.019337 0 -96.0 -42.980667 -96.0 -96.0z" fill-rule="evenodd"/><path stroke="#000000" stroke-width="1.0" stroke-linejoin="round" stroke-linecap="butt" d="m0.010498688 96.00525l0 0c0 -53.019337 42.980663 -96.0 96.0 -96.0l960.0 0c25.460815 0 49.878784 10.114257 67.8822 28.11775c18.00354 18.003492 28.117798 42.421463 28.117798 67.88225l0 0l0 0c0 53.019333 -42.980713 96.0 -96.0 96.0l-960.0 0c-53.019337 0 -96.0 -42.980667 -96.0 -96.0z" fill-rule="evenodd"/><path fill="#000000" fill-opacity="0.0" d="m217.9906 87.49256l683.5276 0l0 70.26772l-683.5276 0z" fill-rule="evenodd"/><path fill="#fcd116" d="m277.835 110.68131l19.859375 0l0 4.046875l-5.5625 0.84375l9.734375 29.265633l1.90625 6.59375l1.625 -6.65625l9.140625 -29.203133l-5.15625 -0.84375l0 -4.046875l15.8125 0l0 4.046875l-4.1875 0.84375l-15.015625 44.093758l-7.78125 0l-16.453125 -44.093758l-3.921875 -0.84375l0 -4.046875zm54.614777 4.890625l-5.5625 -0.84375l0 -4.046875l20.90625 0l0 4.046875l-5.75 0.84375l0 39.062508l5.75 0.71875l0 3.859375l-20.90625 0l0 -3.921875l5.5625 -0.65625l0 -39.062508zm36.70923 -0.59375l-9.34375 0.328125l-2.546875 14.250008l-5.484375 0l1.109375 -18.875008l42.140625 0l0.78125 18.875008l-5.15625 0l-2.546875 -14.250008l-9.21875 -0.328125l0 39.656258l9.140625 0.65625l0 3.921875l-27.234375 0l0 -3.921875l8.359375 -0.65625l0 -39.656258zm45.91989 -4.5625l10.0 0l15.09375 44.218758l3.78125 0.65625l0 3.921875l-19.265625 0l0 -3.921875l4.90625 -0.65625l-2.546875 -8.484375l-16.921875 0l-2.546875 8.5625l5.28125 0.578125l0 3.921875l-16.65625 0l-0.0625 -3.921875l3.921875 -0.65625l15.015625 -44.218758zm4.515625 11.03125l-1.171875 -5.09375l-1.25 5.171875l-5.8125 20.046883l14.375 0l-6.140625 -20.125008zm294.4266 -5.875l-4.890625 -0.84375l0 -4.046875l9.53125 0q2.15625 0 5.8125 -0.265625q0.859375 -0.0625 2.578125 -0.125q1.734375 -0.078125 3.109375 -0.078125q12.015625 0 17.984375 6.015625q5.984375 6.015625 5.984375 17.046883q0 7.71875 -2.96875 13.734375q-2.96875 6.0 -8.453125 9.359375q-5.484375 3.359375 -12.8125 3.359375q-1.890625 0 -5.9375 -0.25q-3.796875 -0.265625 -5.15625 -0.265625l-9.9375 0l0 -3.921875l5.15625 -0.65625l0 -39.062508zm9.484375 39.265633q2.21875 0.59375 6.203125 0.59375q6.53125 -0.140625 10.25 -5.265625q3.734375 -5.125 3.734375 -15.390625q0 -9.734383 -3.671875 -15.046883q-3.65625 -5.328125 -11.359375 -5.328125q-1.640625 0 -3.109375 0.203125q-1.46875 0.1875 -2.046875 0.25l0 39.984383zm40.230347 -39.265633l-5.21875 -0.84375l0 -4.046875l34.8125 0l0.859375 10.96875l-4.578125 0l-2.15625 -6.46875l-14.109375 -0.59375l0 17.578133l9.078125 -0.1875l1.046875 -5.3593826l4.1875 0l0 15.796883l-4.1875 0l-1.046875 -5.609375l-9.078125 -0.203125l0 18.421875l15.8125 -0.78125l3.78125 -8.359375l4.90625 1.375l-1.703125 11.953125l-37.5625 0l0 -3.921875l5.15625 -0.65625l0 -39.062508zm42.868042 0l-5.03125 -0.84375l0 -4.046875l20.90625 0l0 4.046875l-6.28125 0.84375l0 39.000008l13.984375 -0.578125l4.109375 -12.21875l5.296875 0.71875l-2.03125 16.71875l-36.125 0l0 -3.921875l5.171875 -0.65625l0 -39.062508z" fill-rule="nonzero"/><path fill="#000000" d="m473.73685 22.043993l204.53543 0l0 147.81102l-204.53543 0z" fill-rule="evenodd"/><path fill="#000000" fill-opacity="0.0" d="m142.59056 4.4094486l866.80316 0l0 70.267715l-866.80316 0z" fill-rule="evenodd"/><path fill="#fcd116" d="m190.74516 25.494448l-6.109375 0.203125l-1.65625 9.312502l-3.578125 0l0.71875 -12.328127l27.515625 0l0.515625 12.328127l-3.375 0l-1.65625 -9.312502l-6.015625 -0.203125l0 25.890627l5.96875 0.421875l0 2.5625l-17.796875 0l0 -2.5625l5.46875 -0.421875l0 -25.890627zm23.418076 0.375l-3.15625 -0.546875l0 -2.640625l12.96875 0l0 2.640625l-3.59375 0.546875l0 10.718752l12.96875 0l0 -10.718752l-3.28125 -0.546875l0 -2.640625l12.796875 0l0 2.640625l-3.234375 0.546875l0 25.515627l3.234375 0.421875l0 2.5625l-12.84375 0l0 -2.5625l3.328125 -0.421875l0 -11.5625l-12.96875 0l0 11.5625l3.59375 0.421875l0 2.5625l-13.0625 0l0 -2.5625l3.25 -0.421875l0 -25.515627zm35.571045 0l-3.40625 -0.546875l0 -2.640625l22.734375 0l0.546875 7.15625l-2.984375 0l-1.40625 -4.21875l-9.21875 -0.390625l0 11.484377l5.9375 -0.125l0.6875 -3.5l2.71875 0l0 10.3125l-2.71875 0l-0.6875 -3.65625l-5.9375 -0.140625l0 12.03125l10.328125 -0.5l2.46875 -5.46875l3.203125 0.890625l-1.109375 7.8125l-24.53125 0l0 -2.5625l3.375 -0.421875l0 -25.515627zm45.68994 28.968752q-2.3125 0 -4.140625 -0.390625q-1.828125 -0.375 -4.09375 -1.015625q-1.5 -0.421875 -2.0 -0.46875l0.375 -7.890625l3.453125 0l0.9375 5.5q0.5625 0.59375 1.984375 1.0625q1.4375 0.46875 3.265625 0.46875q2.859375 0 4.28125 -1.25q1.4375 -1.265625 1.4375 -3.515625q0 -1.5 -0.859375 -2.578125q-0.84375 -1.09375 -2.34375 -1.96875q-1.484375 -0.875 -4.09375 -2.03125q-3.53125 -1.625 -5.859375 -3.859375q-2.328125 -2.234375 -2.328125 -6.078127q0 -2.390625 1.234375 -4.328125q1.234375 -1.9375 3.6875 -3.0625q2.453125 -1.140625 6.0 -1.140625q2.09375 0 3.6875 0.296875q1.59375 0.296875 3.484375 0.8125q1.09375 0.296875 1.65625 0.390625l-0.25 7.453125l-3.421875 0l-0.890625 -5.234375q-0.390625 -0.390625 -1.546875 -0.75q-1.140625 -0.359375 -2.546875 -0.359375q-2.5625 0 -3.875 1.171875q-1.296875 1.171875 -1.296875 3.125q0 1.578125 0.953125 2.734375q0.96875 1.1562519 2.328125 1.9531269q1.375 0.78125 4.3125 2.234375q2.390625 1.140625 4.09375 2.25q1.71875 1.109375 2.953125 2.890625q1.234375 1.765625 1.234375 4.15625q0 2.34375 -1.171875 4.484375q-1.171875 2.125 -3.84375 3.53125q-2.65625 1.40625 -6.796875 1.40625zm25.081055 -29.343752l-6.109375 0.203125l-1.65625 9.312502l-3.578125 0l0.71875 -12.328127l27.515625 0l0.515625 12.328127l-3.375 0l-1.65625 -9.312502l-6.015625 -0.203125l0 25.890627l5.96875 0.421875l0 2.5625l-17.796875 0l0 -2.5625l5.46875 -0.421875l0 -25.890627zm23.371216 0.375l-3.40625 -0.546875l0 -2.640625l22.734375 0l0.546875 7.15625l-2.984375 0l-1.40625 -4.21875l-9.21875 -0.390625l0 11.484377l5.9375 -0.125l0.6875 -3.5l2.71875 0l0 10.3125l-2.71875 0l-0.6875 -3.65625l-5.9375 -0.140625l0 12.03125l10.328125 -0.5l2.46875 -5.46875l3.203125 0.890625l-1.109375 7.8125l-24.53125 0l0 -2.5625l3.375 -0.421875l0 -25.515627zm27.986664 0l-3.28125 -0.546875l0 -2.640625l13.640625 0l0 2.640625l-4.09375 0.546875l0 25.468752l9.125 -0.375l2.6875 -7.984375l3.46875 0.46875l-1.328125 10.921875l-23.59375 0l0 -2.5625l3.375 -0.421875l0 -25.515627zm27.21466 0l-3.28125 -0.546875l0 -2.640625l13.640625 0l0 2.640625l-4.09375 0.546875l0 25.468752l9.125 -0.375l2.6875 -7.984375l3.46875 0.46875l-1.328125 10.921875l-23.59375 0l0 -2.5625l3.375 -0.421875l0 -25.515627zm33.77716 -3.359375l6.53125 0l9.859375 28.875002l2.46875 0.421875l0 2.5625l-12.578125 0l0 -2.5625l3.1875 -0.421875l-1.65625 -5.546875l-11.046875 0l-1.671875 5.59375l3.453125 0.375l0 2.5625l-10.875 0l-0.03125 -2.5625l2.546875 -0.421875l9.8125 -28.875002zm2.953125 7.203125l-0.765625 -3.328125l-0.8125 3.375l-3.796875 13.093752l9.375 0l-4.0 -13.140627zm17.007141 22.093752l3.375 -0.421875l0 -25.515627l-3.203125 -0.59375l0 -2.59375l6.1875 0q0.8125 0 1.796875 -0.046875q0.984375 -0.046875 1.484375 -0.09375q2.21875 -0.15625 3.671875 -0.15625q4.390625 0 7.03125 0.890625q2.65625 0.890625 3.84375 2.734375q1.203125 1.828125 1.203125 4.8125q0 2.937502 -1.578125 5.468752q-1.578125 2.515625 -4.5625 3.453125q1.703125 0.71875 3.015625 2.640625q1.328125 1.921875 2.828125 4.984375q1.0625 2.09375 1.640625 3.015625q0.578125 0.90625 1.125 1.046875l1.40625 0.421875l0 2.515625l-7.25 0q-0.6875 0 -1.4375 -1.375q-0.734375 -1.390625 -1.9375 -4.390625q-1.40625 -3.484375 -2.4375 -5.453125q-1.015625 -1.96875 -2.15625 -2.4375l-4.40625 0l0 10.671875l3.9375 0.421875l0 2.5625l-13.578125 0l0 -2.5625zm13.578125 -13.6875q2.421875 0 3.78125 -1.75q1.375 -1.75 1.375 -5.250002q0 -3.109375 -1.34375 -4.59375q-1.34375 -1.5 -4.625 -1.5q-1.203125 0 -2.03125 0.109375q-0.828125 0.09375 -1.09375 0.09375l0 12.796877q0.515625 0.09375 2.484375 0.09375l1.453125 0zm219.36694 13.6875l3.375 -0.421875l0 -25.515627l-3.203125 -0.59375l0 -2.59375l6.1875 0q0.8125 0 1.796875 -0.046875q0.984375 -0.046875 1.484375 -0.09375q2.21875 -0.15625 3.671875 -0.15625q4.390625 0 7.03125 0.890625q2.65625 0.890625 3.84375 2.734375q1.203125 1.828125 1.203125 4.8125q0 2.937502 -1.578125 5.468752q-1.578125 2.515625 -4.5625 3.453125q1.703125 0.71875 3.015625 2.640625q1.328125 1.921875 2.828125 4.984375q1.0625 2.09375 1.640625 3.015625q0.578125 0.90625 1.125 1.046875l1.40625 0.421875l0 2.515625l-7.25 0q-0.6875 0 -1.4375 -1.375q-0.734375 -1.390625 -1.9375 -4.390625q-1.40625 -3.484375 -2.4375 -5.453125q-1.015625 -1.96875 -2.15625 -2.4375l-4.40625 0l0 10.671875l3.9375 0.421875l0 2.5625l-13.578125 0l0 -2.5625zm13.578125 -13.6875q2.421875 0 3.78125 -1.75q1.375 -1.75 1.375 -5.250002q0 -3.109375 -1.34375 -4.59375q-1.34375 -1.5 -4.625 -1.5q-1.203125 0 -2.03125 0.109375q-0.828125 0.09375 -1.09375 0.09375l0 12.796877q0.515625 0.09375 2.484375 0.09375l1.453125 0zm20.552002 -12.250002l-3.40625 -0.546875l0 -2.640625l22.734375 0l0.546875 7.15625l-2.984375 0l-1.40625 -4.21875l-9.21875 -0.390625l0 11.484377l5.9375 -0.125l0.6875 -3.5l2.71875 0l0 10.3125l-2.71875 0l-0.6875 -3.65625l-5.9375 -0.140625l0 12.03125l10.328125 -0.5l2.46875 -5.46875l3.203125 0.890625l-1.109375 7.8125l-24.53125 0l0 -2.5625l3.375 -0.421875l0 -25.515627zm27.986694 0l-3.203125 -0.546875l0 -2.640625l6.4375 0q0.90625 0 2.78125 -0.09375q2.46875 -0.171875 4.46875 -0.171875q4.4375 0 7.015625 1.09375q2.59375 1.078125 3.671875 3.109375q1.09375 2.03125 1.09375 5.140625q0 5.375002 -3.359375 8.359377q-3.34375 2.984375 -9.265625 2.984375q-2.34375 0 -3.375 -0.125l0 8.40625l5.71875 0.421875l0 2.5625l-15.359375 0l0 -2.5625l3.375 -0.421875l0 -25.515627zm6.21875 14.375002q0.984375 0.21875 3.328125 0.21875q2.859375 0 4.578125 -1.984375q1.734375 -1.984375 1.734375 -6.593752q0 -3.578125 -1.5625 -5.21875q-1.546875 -1.640625 -4.75 -1.640625q-1.1875 0 -2.46875 0.171875q-0.59375 0.078125 -0.859375 0.078125l0 14.968752zm33.32074 14.46875q-6.484375 0 -9.640625 -3.234375q-3.15625 -3.25 -3.15625 -10.203125l0 -15.406252l-2.8125 -0.546875l0 -2.640625l12.875 0l0 2.640625l-3.625 0.59375l0 15.906252q0 10.15625 7.21875 10.15625q3.53125 0 5.234375 -2.625q1.71875 -2.625 1.71875 -7.359375l0 -16.078127l-3.671875 -0.59375l0 -2.640625l10.65625 0l0 2.640625l-2.890625 0.546875l0 15.781252q0 6.65625 -3.234375 9.859375q-3.21875 3.203125 -8.671875 3.203125zm20.302917 -28.843752l-3.328125 -0.546875l0 -2.640625l6.359375 0q1.453125 0 3.75 -0.171875q0.5625 -0.046875 1.328125 -0.078125q0.765625 -0.046875 1.78125 -0.046875q6.453125 0 9.03125 1.8125q2.578125 1.8125 2.578125 5.390625q0 3.156252 -1.90625 5.265627q-1.890625 2.109375 -4.953125 2.578125q4.21875 -0.046875 6.625 1.921875q2.40625 1.96875 2.40625 5.453125q0 4.4375 -3.109375 7.125q-3.109375 2.6875 -10.40625 2.6875q-1.921875 0 -3.546875 -0.125q-0.421875 0 -1.453125 -0.0625q-1.015625 -0.0625 -2.078125 -0.0625l-6.453125 0l0 -2.5625l3.375 -0.421875l0 -25.515627zm6.1875 10.625002q0.46875 0.046875 1.921875 0.046875l2.0 0q2.609375 0 3.875 -1.625q1.28125 -1.625 1.28125 -4.562502q0 -2.8125 -1.328125 -4.09375q-1.3125 -1.28125 -4.375 -1.28125q-0.8125 0 -3.375 0.171875l0 11.343752zm0 15.0625q0.984375 0.375 3.75 0.375q3.625 0 5.25 -1.703125q1.625 -1.703125 1.625 -4.9375q0 -3.125 -1.484375 -4.46875q-1.46875 -1.34375 -4.65625 -1.34375q-3.59375 0 -4.484375 0.09375l0 11.984375zm23.932007 -25.687502l-3.28125 -0.546875l0 -2.640625l13.640625 0l0 2.640625l-4.09375 0.546875l0 25.468752l9.125 -0.375l2.6875 -7.984375l3.46875 0.46875l-1.328125 10.921875l-23.59375 0l0 -2.5625l3.375 -0.421875l0 -25.515627zm27.730286 0l-3.625 -0.546875l0 -2.640625l13.640625 0l0 2.640625l-3.75 0.546875l0 25.515627l3.75 0.46875l0 2.515625l-13.640625 0l0 -2.5625l3.625 -0.421875l0 -25.515627zm28.109802 28.968752q-7.25 0 -11.09375 -4.328125q-3.84375 -4.328125 -3.84375 -11.84375q0 -4.9375 2.03125 -8.625002q2.03125 -3.703125 5.5625 -5.703125q3.546875 -2.0 8.015625 -2.0q1.875 0 3.625 0.234375q1.75 0.234375 4.140625 0.609375q1.796875 0.296875 1.96875 0.296875l-0.46875 8.796877l-3.921875 0l-1.328125 -6.109377q-0.46875 -0.46875 -1.625 -0.765625q-1.140625 -0.296875 -2.9375 -0.296875q-3.625 0 -5.828125 3.359375q-2.1875 3.34375 -2.1875 9.703127q0 6.140625 2.078125 10.03125q2.09375 3.875 6.109375 3.875q1.921875 0 2.953125 -0.359375q1.046875 -0.375 1.78125 -1.0625l1.875 -4.390625l3.578125 0.34375l-0.84375 6.609375q-0.90625 0.09375 -1.78125 0.328125q-0.875 0.234375 -1.078125 0.28125q-1.703125 0.46875 -3.1875 0.734375q-1.46875 0.28125 -3.59375 0.28125zm37.145996 0q-6.953125 0 -10.40625 -4.34375q-3.453125 -4.359375 -3.453125 -11.859375q0 -4.90625 1.8125 -8.609377q1.8125 -3.71875 5.09375 -5.71875q3.28125 -2.015625 7.546875 -2.015625q7.046875 0 10.5625 4.15625q3.515625 4.15625 3.515625 11.625002q0 4.953125 -1.859375 8.765625q-1.84375 3.8125 -5.171875 5.90625q-3.328125 2.09375 -7.640625 2.09375zm0.421875 -29.937502q-3.484375 0 -5.453125 3.453125q-1.96875 3.453125 -1.96875 10.234377q0 6.703125 1.890625 10.1875q1.90625 3.46875 5.453125 3.46875q3.453125 0 5.40625 -3.640625q1.96875 -3.65625 1.96875 -10.53125q0 -6.656252 -1.875 -9.906252q-1.875 -3.265625 -5.421875 -3.265625zm20.52246 0.96875l-3.5 -0.546875l0 -2.640625l23.546875 0l0.4375 7.71875l-3.421875 0l-1.578125 -4.703125l-9.21875 -0.46875l0 12.078127l6.359375 -0.125l0.8125 -3.75l2.734375 0l0 10.828125l-2.6875 0l-0.859375 -3.84375l-6.359375 -0.171875l0 11.140625l6.53125 0.421875l0 2.5625l-16.078125 0l0 -2.5625l3.28125 -0.421875l0 -25.515627z" fill-rule="nonzero"/><path fill="#000000" d="m509.6882 96.01073l0 0c0 -36.62474 29.690216 -66.31496 66.31497 -66.31496l0 0c17.58783 0 34.45526 6.9867344 46.891724 19.4232c12.436462 12.43647 19.423218 29.303936 19.423218 46.891758l0 0c0 36.62474 -29.690186 66.31496 -66.31494 66.31496l0 0c-36.624756 0 -66.31497 -29.690216 -66.31497 -66.31496z" fill-rule="evenodd"/><path stroke="#fcd116" stroke-width="3.0" stroke-linejoin="round" stroke-linecap="butt" d="m509.6882 96.01073l0 0c0 -36.62474 29.690216 -66.31496 66.31497 -66.31496l0 0c17.58783 0 34.45526 6.9867344 46.891724 19.4232c12.436462 12.43647 19.423218 29.303936 19.423218 46.891758l0 0c0 36.62474 -29.690186 66.31496 -66.31494 66.31496l0 0c-36.624756 0 -66.31497 -29.690216 -66.31497 -66.31496z" fill-rule="evenodd"/><path fill="#000000" d="m525.14343 96.00136l0 0c0 -28.083893 22.76648 -50.85039 50.85034 -50.85039l0 0c13.486389 0 26.42041 5.357437 35.956665 14.893738c9.536316 9.536297 14.893738 22.470295 14.893738 35.956654l0 0c0 28.0839 -22.76648 50.850403 -50.850403 50.850403l0 0c-28.083862 0 -50.85034 -22.766502 -50.85034 -50.850403z" fill-rule="evenodd"/><path stroke="#fcd116" stroke-width="3.0" stroke-linejoin="round" stroke-linecap="butt" d="m525.14343 96.00136l0 0c0 -28.083893 22.76648 -50.85039 50.85034 -50.85039l0 0c13.486389 0 26.42041 5.357437 35.956665 14.893738c9.536316 9.536297 14.893738 22.470295 14.893738 35.956654l0 0c0 28.0839 -22.76648 50.850403 -50.850403 50.850403l0 0c-28.083862 0 -50.85034 -22.766502 -50.85034 -50.850403z" fill-rule="evenodd"/><path fill="#000000" fill-opacity="0.0" d="m576.0105 0.005249344l0 192.0" fill-rule="evenodd"/><path stroke="#fcd116" stroke-width="3.0" stroke-linejoin="round" stroke-linecap="butt" d="m576.0105 0.005249344l0 192.0" fill-rule="evenodd"/><path fill="#00a3dd" d="m547.096 96.00119l0 0c0 -15.959724 12.937927 -28.897636 28.897644 -28.897636l0 0c7.6641235 0 15.014343 3.0445633 20.433716 8.463921c5.4193726 5.4193573 8.463928 12.769585 8.463928 20.433716l0 0c0 15.959724 -12.937927 28.897636 -28.897644 28.897636l0 0c-15.959717 0 -28.897644 -12.937912 -28.897644 -28.897636z" fill-rule="evenodd"/><path stroke="#fcd116" stroke-width="3.0" stroke-linejoin="round" stroke-linecap="butt" d="m547.096 96.00119l0 0c0 -15.959724 12.937927 -28.897636 28.897644 -28.897636l0 0c7.6641235 0 15.014343 3.0445633 20.433716 8.463921c5.4193726 5.4193573 8.463928 12.769585 8.463928 20.433716l0 0c0 15.959724 -12.937927 28.897636 -28.897644 28.897636l0 0c-15.959717 0 -28.897644 -12.937912 -28.897644 -28.897636z" fill-rule="evenodd"/><path fill="#1eb53a" d="m563.0068 95.990074l0 0c0 -7.166649 5.8097534 -12.976372 12.976379 -12.976372l0 0c3.4415894 0 6.7421875 1.3671494 9.17572 3.8006897c2.4335327 2.4335403 3.8006592 5.7341385 3.8006592 9.175682l0 0c0 7.1666565 -5.8096924 12.976379 -12.976379 12.976379l0 0c-7.166626 0 -12.976379 -5.809723 -12.976379 -12.976379z" fill-rule="evenodd"/><path stroke="#fcd116" stroke-width="3.0" stroke-linejoin="round" stroke-linecap="butt" d="m563.0068 95.990074l0 0c0 -7.166649 5.8097534 -12.976372 12.976379 -12.976372l0 0c3.4415894 0 6.7421875 1.3671494 9.17572 3.8006897c2.4335327 2.4335403 3.8006592 5.7341385 3.8006592 9.175682l0 0c0 7.1666565 -5.8096924 12.976379 -12.976379 12.976379l0 0c-7.166626 0 -12.976379 -5.809723 -12.976379 -12.976379z" fill-rule="evenodd"/><path fill="#000000" d="m619.2392 95.931076l0 0c0 -3.8355484 3.109375 -6.9448853 6.9448853 -6.9448853l0 0c1.841919 0 3.6083984 0.7316971 4.9107666 2.034111c1.3024292 1.3024216 2.0341187 3.0688782 2.0341187 4.910774l0 0c0 3.835556 -3.109314 6.9448853 -6.9448853 6.9448853l0 0c-3.8355103 0 -6.9448853 -3.1093292 -6.9448853 -6.9448853z" fill-rule="evenodd"/><path stroke="#fcd116" stroke-width="3.0" stroke-linejoin="round" stroke-linecap="butt" d="m619.2392 95.931076l0 0c0 -3.8355484 3.109375 -6.9448853 6.9448853 -6.9448853l0 0c1.841919 0 3.6083984 0.7316971 4.9107666 2.034111c1.3024292 1.3024216 2.0341187 3.0688782 2.0341187 4.910774l0 0c0 3.835556 -3.109314 6.9448853 -6.9448853 6.9448853l0 0c-3.8355103 0 -6.9448853 -3.1093292 -6.9448853 -6.9448853z" fill-rule="evenodd"/><path fill="#000000" d="m518.8906 95.931076l0 0c0 -3.8355484 3.109314 -6.9448853 6.9448853 -6.9448853l0 0c1.8418579 0 3.6083374 0.7316971 4.9107666 2.034111c1.3024292 1.3024216 2.0341187 3.0688782 2.0341187 4.910774l0 0c0 3.835556 -3.109375 6.9448853 -6.9448853 6.9448853l0 0c-3.8355713 0 -6.9448853 -3.1093292 -6.9448853 -6.9448853z" fill-rule="evenodd"/><path stroke="#fcd116" stroke-width="3.0" stroke-linejoin="round" stroke-linecap="butt" d="m518.8906 95.931076l0 0c0 -3.8355484 3.109314 -6.9448853 6.9448853 -6.9448853l0 0c1.8418579 0 3.6083374 0.7316971 4.9107666 2.034111c1.3024292 1.3024216 2.0341187 3.0688782 2.0341187 4.910774l0 0c0 3.835556 -3.109375 6.9448853 -6.9448853 6.9448853l0 0c-3.8355713 0 -6.9448853 -3.1093292 -6.9448853 -6.9448853z" fill-rule="evenodd"/><path fill="#000000" d="m518.8834 52.101856l0 0c0 -3.841236 3.1139526 -6.9551735 6.955139 -6.9551735l0 0c1.8446655 0 3.6137085 0.73277664 4.918091 2.0371246c1.3043213 1.304348 2.0371094 3.0734215 2.0371094 4.918049l0 0c0 3.8412323 -3.1139526 6.9551697 -6.9552 6.9551697l0 0c-3.8411865 0 -6.955139 -3.1139374 -6.955139 -6.9551697z" fill-rule="evenodd"/><path stroke="#fcd116" stroke-width="3.0" stroke-linejoin="round" stroke-linecap="butt" d="m518.8834 52.101856l0 0c0 -3.841236 3.1139526 -6.9551735 6.955139 -6.9551735l0 0c1.8446655 0 3.6137085 0.73277664 4.918091 2.0371246c1.3043213 1.304348 2.0371094 3.0734215 2.0371094 4.918049l0 0c0 3.8412323 -3.1139526 6.9551697 -6.9552 6.9551697l0 0c-3.8411865 0 -6.955139 -3.1139374 -6.955139 -6.9551697z" fill-rule="evenodd"/><path fill="#000000" d="m619.2194 52.101856l0 0c0 -3.841236 3.1138916 -6.9551735 6.955139 -6.9551735l0 0c1.8446655 0 3.6137085 0.73277664 4.918091 2.0371246c1.3043213 1.304348 2.0371094 3.0734215 2.0371094 4.918049l0 0c0 3.8412323 -3.1139526 6.9551697 -6.9552 6.9551697l0 0c-3.8412476 0 -6.955139 -3.1139374 -6.955139 -6.9551697z" fill-rule="evenodd"/><path stroke="#fcd116" stroke-width="3.0" stroke-linejoin="round" stroke-linecap="butt" d="m619.2194 52.101856l0 0c0 -3.841236 3.1138916 -6.9551735 6.955139 -6.9551735l0 0c1.8446655 0 3.6137085 0.73277664 4.918091 2.0371246c1.3043213 1.304348 2.0371094 3.0734215 2.0371094 4.918049l0 0c0 3.8412323 -3.1139526 6.9551697 -6.9552 6.9551697l0 0c-3.8412476 0 -6.955139 -3.1139374 -6.955139 -6.9551697z" fill-rule="evenodd"/><path fill="#000000" d="m518.8834 139.91681l0 0c0 -3.8412476 3.1139526 -6.955185 6.955139 -6.955185l0 0c1.8446655 0 3.6137085 0.7327881 4.918091 2.0371246c1.3043213 1.3043518 2.0371094 3.0734253 2.0371094 4.9180603l0 0c0 3.8412323 -3.1139526 6.9551697 -6.9552 6.9551697l0 0c-3.8411865 0 -6.955139 -3.1139374 -6.955139 -6.9551697z" fill-rule="evenodd"/><path stroke="#fcd116" stroke-width="3.0" stroke-linejoin="round" stroke-linecap="butt" d="m518.8834 139.91681l0 0c0 -3.8412476 3.1139526 -6.955185 6.955139 -6.955185l0 0c1.8446655 0 3.6137085 0.7327881 4.918091 2.0371246c1.3043213 1.3043518 2.0371094 3.0734253 2.0371094 4.9180603l0 0c0 3.8412323 -3.1139526 6.9551697 -6.9552 6.9551697l0 0c-3.8411865 0 -6.955139 -3.1139374 -6.955139 -6.9551697z" fill-rule="evenodd"/><path fill="#000000" d="m619.2194 139.91681l0 0c0 -3.8412476 3.1138916 -6.955185 6.955139 -6.955185l0 0c1.8446655 0 3.6137085 0.7327881 4.918091 2.0371246c1.3043213 1.3043518 2.0371094 3.0734253 2.0371094 4.9180603l0 0c0 3.8412323 -3.1139526 6.9551697 -6.9552 6.9551697l0 0c-3.8412476 0 -6.955139 -3.1139374 -6.955139 -6.9551697z" fill-rule="evenodd"/><path stroke="#fcd116" stroke-width="3.0" stroke-linejoin="round" stroke-linecap="butt" d="m619.2194 139.91681l0 0c0 -3.8412476 3.1138916 -6.955185 6.955139 -6.955185l0 0c1.8446655 0 3.6137085 0.7327881 4.918091 2.0371246c1.3043213 1.3043518 2.0371094 3.0734253 2.0371094 4.9180603l0 0c0 3.8412323 -3.1139526 6.9551697 -6.9552 6.9551697l0 0c-3.8412476 0 -6.955139 -3.1139374 -6.955139 -6.9551697z" fill-rule="evenodd"/></g></svg>
