<svg version="1.1" viewBox="0.0 0.0 1152.0 288.0" fill="none" stroke="none" stroke-linecap="square" stroke-miterlimit="10" xmlns:xlink="http://www.w3.org/1999/xlink" xmlns="http://www.w3.org/2000/svg"><clipPath id="p.0"><path d="m0 0l1152.0 0l0 288.0l-1152.0 0l0 -288.0z" clip-rule="nonzero"/></clipPath><g clip-path="url(#p.0)"><path fill="#000000" fill-opacity="0.0" d="m0 0l1152.0 0l0 288.0l-1152.0 0z" fill-rule="evenodd"/><path fill="#000000" d="m0.010498688 144.00787l0 0c0 -79.52901 64.47099 -144.0 144.0 -144.0l864.0 0c38.191162 0 74.818115 15.171385 101.823364 42.176624c27.005249 27.005238 42.176636 63.6322 42.176636 101.82338l0 0l0 0c0 79.52901 -64.47095 144.0 -144.0 144.0l-864.0 0l0 0c-79.52901 0 -144.0 -64.47099 -144.0 -144.0z" fill-rule="evenodd"/><path stroke="#000000" stroke-width="1.0" stroke-linejoin="round" stroke-linecap="butt" d="m0.010498688 144.00787l0 0c0 -79.52901 64.47099 -144.0 144.0 -144.0l864.0 0c38.191162 0 74.818115 15.171385 101.823364 42.176624c27.005249 27.005238 42.176636 63.6322 42.176636 101.82338l0 0l0 0c0 79.52901 -64.47095 144.0 -144.0 144.0l-864.0 0l0 0c-79.52901 0 -144.0 -64.47099 -144.0 -144.0z" fill-rule="evenodd"/><path fill="#000000" d="m486.38568 144.01959l0 0c0 -49.496887 40.118103 -89.62205 89.60632 -89.62205l0 0c23.765076 0 46.556763 9.442299 63.361206 26.249695c16.804443 16.807388 26.245056 39.60311 26.245056 63.372353l0 0c0 49.496887 -40.118103 89.622055 -89.60626 89.622055l0 0c-49.48822 0 -89.60632 -40.125168 -89.60632 -89.622055z" fill-rule="evenodd"/><path stroke="#fcd116" stroke-width="3.0" stroke-linejoin="round" stroke-linecap="butt" d="m486.38568 144.01959l0 0c0 -49.496887 40.118103 -89.62205 89.60632 -89.62205l0 0c23.765076 0 46.556763 9.442299 63.361206 26.249695c16.804443 16.807388 26.245056 39.60311 26.245056 63.372353l0 0c0 49.496887 -40.118103 89.622055 -89.60626 89.622055l0 0c-49.48822 0 -89.60632 -40.125168 -89.60632 -89.622055z" fill-rule="evenodd"/><path fill="#000000" d="m507.27405 144.01036l0 0c0 -37.955444 30.76892 -68.72441 68.724365 -68.72441l0 0c18.226868 0 35.707214 7.2405853 48.59552 20.128914c12.888306 12.888329 20.128906 30.368645 20.128906 48.595497l0 0c0 37.955444 -30.768982 68.72441 -68.72443 68.72441l0 0c-37.955444 0 -68.724365 -30.768967 -68.724365 -68.72441z" fill-rule="evenodd"/><path stroke="#fcd116" stroke-width="3.0" stroke-linejoin="round" stroke-linecap="butt" d="m507.27405 144.01036l0 0c0 -37.955444 30.76892 -68.72441 68.724365 -68.72441l0 0c18.226868 0 35.707214 7.2405853 48.59552 20.128914c12.888306 12.888329 20.128906 30.368645 20.128906 48.595497l0 0c0 37.955444 -30.768982 68.72441 -68.72443 68.72441l0 0c-37.955444 0 -68.724365 -30.768967 -68.724365 -68.72441z" fill-rule="evenodd"/><path fill="#000000" fill-opacity="0.0" d="m576.0105 0.007874016l0 288.0" fill-rule="evenodd"/><path stroke="#fcd116" stroke-width="3.0" stroke-linejoin="round" stroke-linecap="butt" d="m576.0105 0.007874016l0 288.0" fill-rule="evenodd"/><path fill="#00a3dd" d="m536.94385 144.01099l0 0c0 -21.56955 17.485596 -39.055122 39.055115 -39.055122l0 0c10.358093 0 20.291931 4.114723 27.61615 11.43898c7.32428 7.3242493 11.439026 17.25808 11.439026 27.616142l0 0c0 21.569534 -17.485596 39.055115 -39.055176 39.055115l0 0c-21.569519 0 -39.055115 -17.48558 -39.055115 -39.055115z" fill-rule="evenodd"/><path stroke="#fcd116" stroke-width="3.0" stroke-linejoin="round" stroke-linecap="butt" d="m536.94385 144.01099l0 0c0 -21.56955 17.485596 -39.055122 39.055115 -39.055122l0 0c10.358093 0 20.291931 4.114723 27.61615 11.43898c7.32428 7.3242493 11.439026 17.25808 11.439026 27.616142l0 0c0 21.569534 -17.485596 39.055115 -39.055176 39.055115l0 0c-21.569519 0 -39.055115 -17.48558 -39.055115 -39.055115z" fill-rule="evenodd"/><path fill="#1eb53a" d="m558.44794 144.0182l0 0c0 -9.697601 7.86145 -17.55906 17.559082 -17.55906l0 0c4.6569214 0 9.123169 1.849968 12.416077 5.1429367c3.2929688 3.2929535 5.1429443 7.7591705 5.1429443 12.416122l0 0c0 9.697601 -7.86145 17.559052 -17.559021 17.559052l0 0c-9.697632 0 -17.559082 -7.86145 -17.559082 -17.559052z" fill-rule="evenodd"/><path stroke="#fcd116" stroke-width="3.0" stroke-linejoin="round" stroke-linecap="butt" d="m558.44794 144.0182l0 0c0 -9.697601 7.86145 -17.55906 17.559082 -17.55906l0 0c4.6569214 0 9.123169 1.849968 12.416077 5.1429367c3.2929688 3.2929535 5.1429443 7.7591705 5.1429443 12.416122l0 0c0 9.697601 -7.86145 17.559052 -17.559021 17.559052l0 0c-9.697632 0 -17.559082 -7.86145 -17.559082 -17.559052z" fill-rule="evenodd"/><path fill="#000000" d="m498.82312 143.93282l0 0c0 -5.192337 4.2092285 -9.401566 9.401581 -9.401566l0 0c2.4934387 0 4.884796 0.99050903 6.6479187 2.7536469c1.7631226 1.7631378 2.753662 4.1544647 2.753662 6.6479187l0 0c0 5.1923523 -4.2092285 9.401581 -9.401581 9.401581l0 0c-5.1923523 0 -9.401581 -4.2092285 -9.401581 -9.401581z" fill-rule="evenodd"/><path stroke="#fcd116" stroke-width="3.0" stroke-linejoin="round" stroke-linecap="butt" d="m498.82312 143.93282l0 0c0 -5.192337 4.2092285 -9.401566 9.401581 -9.401566l0 0c2.4934387 0 4.884796 0.99050903 6.6479187 2.7536469c1.7631226 1.7631378 2.753662 4.1544647 2.753662 6.6479187l0 0c0 5.1923523 -4.2092285 9.401581 -9.401581 9.401581l0 0c-5.1923523 0 -9.401581 -4.2092285 -9.401581 -9.401581z" fill-rule="evenodd"/><path fill="#000000" d="m498.83878 84.69875l0 0c0 -5.193321 4.210022 -9.403343 9.40332 -9.403343l0 0c2.493927 0 4.8857117 0.9907074 6.6492004 2.7541733c1.7634277 1.7634659 2.7541504 4.1552505 2.7541504 6.64917l0 0c0 5.193321 -4.210022 9.403343 -9.403351 9.403343l0 0c-5.1932983 0 -9.40332 -4.210022 -9.40332 -9.403343z" fill-rule="evenodd"/><path stroke="#fcd116" stroke-width="3.0" stroke-linejoin="round" stroke-linecap="butt" d="m498.83878 84.69875l0 0c0 -5.193321 4.210022 -9.403343 9.40332 -9.403343l0 0c2.493927 0 4.8857117 0.9907074 6.6492004 2.7541733c1.7634277 1.7634659 2.7541504 4.1552505 2.7541504 6.64917l0 0c0 5.193321 -4.210022 9.403343 -9.403351 9.403343l0 0c-5.1932983 0 -9.40332 -4.210022 -9.40332 -9.403343z" fill-rule="evenodd"/><path fill="#000000" d="m634.4924 84.69875l0 0c0 -5.193321 4.210022 -9.403343 9.40332 -9.403343l0 0c2.4938965 0 4.885681 0.9907074 6.64917 2.7541733c1.7634888 1.7634659 2.7541504 4.1552505 2.7541504 6.64917l0 0c0 5.193321 -4.210022 9.403343 -9.40332 9.403343l0 0c-5.1932983 0 -9.40332 -4.210022 -9.40332 -9.403343z" fill-rule="evenodd"/><path stroke="#fcd116" stroke-width="3.0" stroke-linejoin="round" stroke-linecap="butt" d="m634.4924 84.69875l0 0c0 -5.193321 4.210022 -9.403343 9.40332 -9.403343l0 0c2.4938965 0 4.885681 0.9907074 6.64917 2.7541733c1.7634888 1.7634659 2.7541504 4.1552505 2.7541504 6.64917l0 0c0 5.193321 -4.210022 9.403343 -9.40332 9.403343l0 0c-5.1932983 0 -9.40332 -4.210022 -9.40332 -9.403343z" fill-rule="evenodd"/><path fill="#000000" d="m498.83878 203.38463l0 0c0 -5.1933136 4.210022 -9.403336 9.40332 -9.403336l0 0c2.493927 0 4.8857117 0.9907074 6.6492004 2.7541656c1.7634277 1.7634735 2.7541504 4.155258 2.7541504 6.64917l0 0c0 5.193329 -4.210022 9.403351 -9.403351 9.403351l0 0c-5.1932983 0 -9.40332 -4.210022 -9.40332 -9.403351z" fill-rule="evenodd"/><path stroke="#fcd116" stroke-width="3.0" stroke-linejoin="round" stroke-linecap="butt" d="m498.83878 203.38463l0 0c0 -5.1933136 4.210022 -9.403336 9.40332 -9.403336l0 0c2.493927 0 4.8857117 0.9907074 6.6492004 2.7541656c1.7634277 1.7634735 2.7541504 4.155258 2.7541504 6.64917l0 0c0 5.193329 -4.210022 9.403351 -9.403351 9.403351l0 0c-5.1932983 0 -9.40332 -4.210022 -9.40332 -9.403351z" fill-rule="evenodd"/><path fill="#000000" d="m634.4924 203.38463l0 0c0 -5.1933136 4.210022 -9.403336 9.40332 -9.403336l0 0c2.4938965 0 4.885681 0.9907074 6.64917 2.7541656c1.7634888 1.7634735 2.7541504 4.155258 2.7541504 6.64917l0 0c0 5.193329 -4.210022 9.403351 -9.40332 9.403351l0 0c-5.1932983 0 -9.40332 -4.210022 -9.40332 -9.403351z" fill-rule="evenodd"/><path stroke="#fcd116" stroke-width="3.0" stroke-linejoin="round" stroke-linecap="butt" d="m634.4924 203.38463l0 0c0 -5.1933136 4.210022 -9.403336 9.40332 -9.403336l0 0c2.4938965 0 4.885681 0.9907074 6.64917 2.7541656c1.7634888 1.7634735 2.7541504 4.155258 2.7541504 6.64917l0 0c0 5.193329 -4.210022 9.403351 -9.40332 9.403351l0 0c-5.1932983 0 -9.40332 -4.210022 -9.40332 -9.403351z" fill-rule="evenodd"/><path fill="#000000" fill-opacity="0.0" d="m217.9906 155.23885l683.5276 0l0 105.38582l-683.5276 0z" fill-rule="evenodd"/><path fill="#fcd116" d="m277.835 178.4276l19.859375 0l0 4.046875l-5.5625 0.84375l9.734375 29.265625l1.90625 6.59375l1.625 -6.65625l9.140625 -29.203125l-5.15625 -0.84375l0 -4.046875l15.8125 0l0 4.046875l-4.1875 0.84375l-15.015625 44.09375l-7.78125 0l-16.453125 -44.09375l-3.921875 -0.84375l0 -4.046875zm54.614777 4.890625l-5.5625 -0.84375l0 -4.046875l20.90625 0l0 4.046875l-5.75 0.84375l0 39.0625l5.75 0.71875l0 3.859375l-20.90625 0l0 -3.921875l5.5625 -0.65625l0 -39.0625zm36.70923 -0.59375l-9.34375 0.328125l-2.546875 14.25l-5.484375 0l1.109375 -18.875l42.140625 0l0.78125 18.875l-5.15625 0l-2.546875 -14.25l-9.21875 -0.328125l0 39.65625l9.140625 0.65625l0 3.921875l-27.234375 0l0 -3.921875l8.359375 -0.65625l0 -39.65625zm45.91989 -4.5625l10.0 0l15.09375 44.21875l3.78125 0.65625l0 3.921875l-19.265625 0l0 -3.921875l4.90625 -0.65625l-2.546875 -8.484375l-16.921875 0l-2.546875 8.5625l5.28125 0.578125l0 3.921875l-16.65625 0l-0.0625 -3.921875l3.921875 -0.65625l15.015625 -44.21875zm4.515625 11.03125l-1.171875 -5.09375l-1.25 5.171875l-5.8125 20.046875l14.375 0l-6.140625 -20.125zm294.4266 -5.875l-4.890625 -0.84375l0 -4.046875l9.53125 0q2.15625 0 5.8125 -0.265625q0.859375 -0.0625 2.578125 -0.125q1.734375 -0.078125 3.109375 -0.078125q12.015625 0 17.984375 6.015625q5.984375 6.015625 5.984375 17.046875q0 7.71875 -2.96875 13.734375q-2.96875 6.0 -8.453125 9.359375q-5.484375 3.359375 -12.8125 3.359375q-1.890625 0 -5.9375 -0.25q-3.796875 -0.265625 -5.15625 -0.265625l-9.9375 0l0 -3.921875l5.15625 -0.65625l0 -39.0625zm9.484375 39.265625q2.21875 0.59375 6.203125 0.59375q6.53125 -0.140625 10.25 -5.265625q3.734375 -5.125 3.734375 -15.390625q0 -9.734375 -3.671875 -15.046875q-3.65625 -5.328125 -11.359375 -5.328125q-1.640625 0 -3.109375 0.203125q-1.46875 0.1875 -2.046875 0.25l0 39.984375zm40.230347 -39.265625l-5.21875 -0.84375l0 -4.046875l34.8125 0l0.859375 10.96875l-4.578125 0l-2.15625 -6.46875l-14.109375 -0.59375l0 17.578125l9.078125 -0.1875l1.046875 -5.359375l4.1875 0l0 15.796875l-4.1875 0l-1.046875 -5.609375l-9.078125 -0.203125l0 18.421875l15.8125 -0.78125l3.78125 -8.359375l4.90625 1.375l-1.703125 11.953125l-37.5625 0l0 -3.921875l5.15625 -0.65625l0 -39.0625zm42.868042 0l-5.03125 -0.84375l0 -4.046875l20.90625 0l0 4.046875l-6.28125 0.84375l0 39.0l13.984375 -0.578125l4.109375 -12.21875l5.296875 0.71875l-2.03125 16.71875l-36.125 0l0 -3.921875l5.171875 -0.65625l0 -39.0625z" fill-rule="nonzero"/><path fill="#000000" fill-opacity="0.0" d="m142.59056 6.6141734l866.80316 0l0 105.385826l-866.80316 0z" fill-rule="evenodd"/><path fill="#fcd116" d="m190.74516 27.699173l-6.109375 0.203125l-1.65625 9.3125l-3.578125 0l0.71875 -12.328125l27.515625 0l0.515625 12.328125l-3.375 0l-1.65625 -9.3125l-6.015625 -0.203125l0 25.890625l5.96875 0.421875l0 2.5625l-17.796875 0l0 -2.5625l5.46875 -0.421875l0 -25.890625zm23.418076 0.375l-3.15625 -0.546875l0 -2.640625l12.96875 0l0 2.640625l-3.59375 0.546875l0 10.71875l12.96875 0l0 -10.71875l-3.28125 -0.546875l0 -2.640625l12.796875 0l0 2.640625l-3.234375 0.546875l0 25.515625l3.234375 0.421875l0 2.5625l-12.84375 0l0 -2.5625l3.328125 -0.421875l0 -11.5625l-12.96875 0l0 11.5625l3.59375 0.421875l0 2.5625l-13.0625 0l0 -2.5625l3.25 -0.421875l0 -25.515625zm35.571045 0l-3.40625 -0.546875l0 -2.640625l22.734375 0l0.546875 7.15625l-2.984375 0l-1.40625 -4.21875l-9.21875 -0.390625l0 11.484375l5.9375 -0.125l0.6875 -3.5l2.71875 0l0 10.3125l-2.71875 0l-0.6875 -3.65625l-5.9375 -0.140625l0 12.03125l10.328125 -0.5l2.46875 -5.46875l3.203125 0.890625l-1.109375 7.8125l-24.53125 0l0 -2.5625l3.375 -0.421875l0 -25.515625zm45.68994 28.96875q-2.3125 0 -4.140625 -0.390625q-1.828125 -0.375 -4.09375 -1.015625q-1.5 -0.421875 -2.0 -0.46875l0.375 -7.890625l3.453125 0l0.9375 5.5q0.5625 0.59375 1.984375 1.0625q1.4375 0.46875 3.265625 0.46875q2.859375 0 4.28125 -1.25q1.4375 -1.265625 1.4375 -3.515625q0 -1.5 -0.859375 -2.578125q-0.84375 -1.09375 -2.34375 -1.96875q-1.484375 -0.875 -4.09375 -2.03125q-3.53125 -1.625 -5.859375 -3.859375q-2.328125 -2.234375 -2.328125 -6.078125q0 -2.390625 1.234375 -4.328125q1.234375 -1.9375 3.6875 -3.0625q2.453125 -1.140625 6.0 -1.140625q2.09375 0 3.6875 0.296875q1.59375 0.296875 3.484375 0.8125q1.09375 0.296875 1.65625 0.390625l-0.25 7.453125l-3.421875 0l-0.890625 -5.234375q-0.390625 -0.390625 -1.546875 -0.75q-1.140625 -0.359375 -2.546875 -0.359375q-2.5625 0 -3.875 1.171875q-1.296875 1.171875 -1.296875 3.125q0 1.578125 0.953125 2.734375q0.96875 1.15625 2.328125 1.953125q1.375 0.78125 4.3125 2.234375q2.390625 1.140625 4.09375 2.25q1.71875 1.109375 2.953125 2.890625q1.234375 1.765625 1.234375 4.15625q0 2.34375 -1.171875 4.484375q-1.171875 2.125 -3.84375 3.53125q-2.65625 1.40625 -6.796875 1.40625zm25.081055 -29.34375l-6.109375 0.203125l-1.65625 9.3125l-3.578125 0l0.71875 -12.328125l27.515625 0l0.515625 12.328125l-3.375 0l-1.65625 -9.3125l-6.015625 -0.203125l0 25.890625l5.96875 0.421875l0 2.5625l-17.796875 0l0 -2.5625l5.46875 -0.421875l0 -25.890625zm23.371216 0.375l-3.40625 -0.546875l0 -2.640625l22.734375 0l0.546875 7.15625l-2.984375 0l-1.40625 -4.21875l-9.21875 -0.390625l0 11.484375l5.9375 -0.125l0.6875 -3.5l2.71875 0l0 10.3125l-2.71875 0l-0.6875 -3.65625l-5.9375 -0.140625l0 12.03125l10.328125 -0.5l2.46875 -5.46875l3.203125 0.890625l-1.109375 7.8125l-24.53125 0l0 -2.5625l3.375 -0.421875l0 -25.515625zm27.986664 0l-3.28125 -0.546875l0 -2.640625l13.640625 0l0 2.640625l-4.09375 0.546875l0 25.46875l9.125 -0.375l2.6875 -7.984375l3.46875 0.46875l-1.328125 10.921875l-23.59375 0l0 -2.5625l3.375 -0.421875l0 -25.515625zm27.21466 0l-3.28125 -0.546875l0 -2.640625l13.640625 0l0 2.640625l-4.09375 0.546875l0 25.46875l9.125 -0.375l2.6875 -7.984375l3.46875 0.46875l-1.328125 10.921875l-23.59375 0l0 -2.5625l3.375 -0.421875l0 -25.515625zm33.77716 -3.359375l6.53125 0l9.859375 28.875l2.46875 0.421875l0 2.5625l-12.578125 0l0 -2.5625l3.1875 -0.421875l-1.65625 -5.546875l-11.046875 0l-1.671875 5.59375l3.453125 0.375l0 2.5625l-10.875 0l-0.03125 -2.5625l2.546875 -0.421875l9.8125 -28.875zm2.953125 7.203125l-0.765625 -3.328125l-0.8125 3.375l-3.796875 13.09375l9.375 0l-4.0 -13.140625zm17.007141 22.09375l3.375 -0.421875l0 -25.515625l-3.203125 -0.59375l0 -2.59375l6.1875 0q0.8125 0 1.796875 -0.046875q0.984375 -0.046875 1.484375 -0.09375q2.21875 -0.15625 3.671875 -0.15625q4.390625 0 7.03125 0.890625q2.65625 0.890625 3.84375 2.734375q1.203125 1.828125 1.203125 4.8125q0 2.9375 -1.578125 5.46875q-1.578125 2.515625 -4.5625 3.453125q1.703125 0.71875 3.015625 2.640625q1.328125 1.921875 2.828125 4.984375q1.0625 2.09375 1.640625 3.015625q0.578125 0.90625 1.125 1.046875l1.40625 0.421875l0 2.515625l-7.25 0q-0.6875 0 -1.4375 -1.375q-0.734375 -1.390625 -1.9375 -4.390625q-1.40625 -3.484375 -2.4375 -5.453125q-1.015625 -1.96875 -2.15625 -2.4375l-4.40625 0l0 10.671875l3.9375 0.421875l0 2.5625l-13.578125 0l0 -2.5625zm13.578125 -13.6875q2.421875 0 3.78125 -1.75q1.375 -1.75 1.375 -5.25q0 -3.109375 -1.34375 -4.59375q-1.34375 -1.5 -4.625 -1.5q-1.203125 0 -2.03125 0.109375q-0.828125 0.09375 -1.09375 0.09375l0 12.796875q0.515625 0.09375 2.484375 0.09375l1.453125 0zm219.36694 13.6875l3.375 -0.421875l0 -25.515625l-3.203125 -0.59375l0 -2.59375l6.1875 0q0.8125 0 1.796875 -0.046875q0.984375 -0.046875 1.484375 -0.09375q2.21875 -0.15625 3.671875 -0.15625q4.390625 0 7.03125 0.890625q2.65625 0.890625 3.84375 2.734375q1.203125 1.828125 1.203125 4.8125q0 2.9375 -1.578125 5.46875q-1.578125 2.515625 -4.5625 3.453125q1.703125 0.71875 3.015625 2.640625q1.328125 1.921875 2.828125 4.984375q1.0625 2.09375 1.640625 3.015625q0.578125 0.90625 1.125 1.046875l1.40625 0.421875l0 2.515625l-7.25 0q-0.6875 0 -1.4375 -1.375q-0.734375 -1.390625 -1.9375 -4.390625q-1.40625 -3.484375 -2.4375 -5.453125q-1.015625 -1.96875 -2.15625 -2.4375l-4.40625 0l0 10.671875l3.9375 0.421875l0 2.5625l-13.578125 0l0 -2.5625zm13.578125 -13.6875q2.421875 0 3.78125 -1.75q1.375 -1.75 1.375 -5.25q0 -3.109375 -1.34375 -4.59375q-1.34375 -1.5 -4.625 -1.5q-1.203125 0 -2.03125 0.109375q-0.828125 0.09375 -1.09375 0.09375l0 12.796875q0.515625 0.09375 2.484375 0.09375l1.453125 0zm20.552002 -12.25l-3.40625 -0.546875l0 -2.640625l22.734375 0l0.546875 7.15625l-2.984375 0l-1.40625 -4.21875l-9.21875 -0.390625l0 11.484375l5.9375 -0.125l0.6875 -3.5l2.71875 0l0 10.3125l-2.71875 0l-0.6875 -3.65625l-5.9375 -0.140625l0 12.03125l10.328125 -0.5l2.46875 -5.46875l3.203125 0.890625l-1.109375 7.8125l-24.53125 0l0 -2.5625l3.375 -0.421875l0 -25.515625zm27.986694 0l-3.203125 -0.546875l0 -2.640625l6.4375 0q0.90625 0 2.78125 -0.09375q2.46875 -0.171875 4.46875 -0.171875q4.4375 0 7.015625 1.09375q2.59375 1.078125 3.671875 3.109375q1.09375 2.03125 1.09375 5.140625q0 5.375 -3.359375 8.359375q-3.34375 2.984375 -9.265625 2.984375q-2.34375 0 -3.375 -0.125l0 8.40625l5.71875 0.421875l0 2.5625l-15.359375 0l0 -2.5625l3.375 -0.421875l0 -25.515625zm6.21875 14.375q0.984375 0.21875 3.328125 0.21875q2.859375 0 4.578125 -1.984375q1.734375 -1.984375 1.734375 -6.59375q0 -3.578125 -1.5625 -5.21875q-1.546875 -1.640625 -4.75 -1.640625q-1.1875 0 -2.46875 0.171875q-0.59375 0.078125 -0.859375 0.078125l0 14.96875zm33.32074 14.46875q-6.484375 0 -9.640625 -3.234375q-3.15625 -3.25 -3.15625 -10.203125l0 -15.40625l-2.8125 -0.546875l0 -2.640625l12.875 0l0 2.640625l-3.625 0.59375l0 15.90625q0 10.15625 7.21875 10.15625q3.53125 0 5.234375 -2.625q1.71875 -2.625 1.71875 -7.359375l0 -16.078125l-3.671875 -0.59375l0 -2.640625l10.65625 0l0 2.640625l-2.890625 0.546875l0 15.78125q0 6.65625 -3.234375 9.859375q-3.21875 3.203125 -8.671875 3.203125zm20.302917 -28.84375l-3.328125 -0.546875l0 -2.640625l6.359375 0q1.453125 0 3.75 -0.171875q0.5625 -0.046875 1.328125 -0.078125q0.765625 -0.046875 1.78125 -0.046875q6.453125 0 9.03125 1.8125q2.578125 1.8125 2.578125 5.390625q0 3.15625 -1.90625 5.265625q-1.890625 2.109375 -4.953125 2.578125q4.21875 -0.046875 6.625 1.921875q2.40625 1.96875 2.40625 5.453125q0 4.4375 -3.109375 7.125q-3.109375 2.6875 -10.40625 2.6875q-1.921875 0 -3.546875 -0.125q-0.421875 0 -1.453125 -0.0625q-1.015625 -0.0625 -2.078125 -0.0625l-6.453125 0l0 -2.5625l3.375 -0.421875l0 -25.515625zm6.1875 10.625q0.46875 0.046875 1.921875 0.046875l2.0 0q2.609375 0 3.875 -1.625q1.28125 -1.625 1.28125 -4.5625q0 -2.8125 -1.328125 -4.09375q-1.3125 -1.28125 -4.375 -1.28125q-0.8125 0 -3.375 0.171875l0 11.34375zm0 15.0625q0.984375 0.375 3.75 0.375q3.625 0 5.25 -1.703125q1.625 -1.703125 1.625 -4.9375q0 -3.125 -1.484375 -4.46875q-1.46875 -1.34375 -4.65625 -1.34375q-3.59375 0 -4.484375 0.09375l0 11.984375zm23.932007 -25.6875l-3.28125 -0.546875l0 -2.640625l13.640625 0l0 2.640625l-4.09375 0.546875l0 25.46875l9.125 -0.375l2.6875 -7.984375l3.46875 0.46875l-1.328125 10.921875l-23.59375 0l0 -2.5625l3.375 -0.421875l0 -25.515625zm27.730286 0l-3.625 -0.546875l0 -2.640625l13.640625 0l0 2.640625l-3.75 0.546875l0 25.515625l3.75 0.46875l0 2.515625l-13.640625 0l0 -2.5625l3.625 -0.421875l0 -25.515625zm28.109802 28.96875q-7.25 0 -11.09375 -4.328125q-3.84375 -4.328125 -3.84375 -11.84375q0 -4.9375 2.03125 -8.625q2.03125 -3.703125 5.5625 -5.703125q3.546875 -2.0 8.015625 -2.0q1.875 0 3.625 0.234375q1.75 0.234375 4.140625 0.609375q1.796875 0.296875 1.96875 0.296875l-0.46875 8.796875l-3.921875 0l-1.328125 -6.109375q-0.46875 -0.46875 -1.625 -0.765625q-1.140625 -0.296875 -2.9375 -0.296875q-3.625 0 -5.828125 3.359375q-2.1875 3.34375 -2.1875 9.703125q0 6.140625 2.078125 10.03125q2.09375 3.875 6.109375 3.875q1.921875 0 2.953125 -0.359375q1.046875 -0.375 1.78125 -1.0625l1.875 -4.390625l3.578125 0.34375l-0.84375 6.609375q-0.90625 0.09375 -1.78125 0.328125q-0.875 0.234375 -1.078125 0.28125q-1.703125 0.46875 -3.1875 0.734375q-1.46875 0.28125 -3.59375 0.28125zm37.145996 0q-6.953125 0 -10.40625 -4.34375q-3.453125 -4.359375 -3.453125 -11.859375q0 -4.90625 1.8125 -8.609375q1.8125 -3.71875 5.09375 -5.71875q3.28125 -2.015625 7.546875 -2.015625q7.046875 0 10.5625 4.15625q3.515625 4.15625 3.515625 11.625q0 4.953125 -1.859375 8.765625q-1.84375 3.8125 -5.171875 5.90625q-3.328125 2.09375 -7.640625 2.09375zm0.421875 -29.9375q-3.484375 0 -5.453125 3.453125q-1.96875 3.453125 -1.96875 10.234375q0 6.703125 1.890625 10.1875q1.90625 3.46875 5.453125 3.46875q3.453125 0 5.40625 -3.640625q1.96875 -3.65625 1.96875 -10.53125q0 -6.65625 -1.875 -9.90625q-1.875 -3.265625 -5.421875 -3.265625zm20.52246 0.96875l-3.5 -0.546875l0 -2.640625l23.546875 0l0.4375 7.71875l-3.421875 0l-1.578125 -4.703125l-9.21875 -0.46875l0 12.078125l6.359375 -0.125l0.8125 -3.75l2.734375 0l0 10.828125l-2.6875 0l-0.859375 -3.84375l-6.359375 -0.171875l0 11.140625l6.53125 0.421875l0 2.5625l-16.078125 0l0 -2.5625l3.28125 -0.421875l0 -25.515625z" fill-rule="nonzero"/></g></svg>