<?xml version="1.0" encoding="UTF-8" standalone="no"?>
<!-- Created with Inkscape (http://www.inkscape.org/) -->

<svg
   width="497.69568mm"
   height="595.69562mm"
   viewBox="0 0 497.69568 595.69562"
   version="1.1"
   id="svg5"
   inkscape:version="1.2.2 (732a01da63, 2022-12-09)"
   sodipodi:docname="Emblem.svg"
   xml:space="preserve"
   xmlns:inkscape="http://www.inkscape.org/namespaces/inkscape"
   xmlns:sodipodi="http://sodipodi.sourceforge.net/DTD/sodipodi-0.dtd"
   xmlns="http://www.w3.org/2000/svg"
   xmlns:svg="http://www.w3.org/2000/svg"><sodipodi:namedview
     id="namedview7"
     pagecolor="#ffffff"
     bordercolor="#cccccc"
     borderopacity="1"
     inkscape:showpageshadow="0"
     inkscape:pageopacity="1"
     inkscape:pagecheckerboard="0"
     inkscape:deskcolor="#d1d1d1"
     inkscape:document-units="mm"
     showgrid="false"
     showguides="false"
     inkscape:zoom="0.27212897"
     inkscape:cx="453.82893"
     inkscape:cy="1354.1373"
     inkscape:window-width="1920"
     inkscape:window-height="1051"
     inkscape:window-x="-9"
     inkscape:window-y="-9"
     inkscape:window-maximized="1"
     inkscape:current-layer="layer1" /><defs
     id="defs2" /><g
     inkscape:label="Layer 1"
     inkscape:groupmode="layer"
     id="layer1"
     transform="translate(-1.1521607,-2.1521912)"><rect
       style="display:inline;fill:#a13a32;fill-opacity:1;stroke:#000000;stroke-width:10;stroke-linecap:round;stroke-linejoin:round;stroke-dasharray:none;stroke-opacity:1;paint-order:stroke markers fill;stop-color:#000000"
       id="rect234"
       width="487.69568"
       height="585.69562"
       x="6.1521606"
       y="7.1521912"
       inkscape:label="Panel Background" /><path
       id="rect3854"
       style="fill:#ffffff;fill-opacity:1;stroke:#000000;stroke-width:8;stroke-linecap:round;stroke-linejoin:miter;stroke-dasharray:none;stroke-opacity:1;paint-order:stroke markers fill;stop-color:#000000"
       inkscape:label="Ribbon"
       d="M 21.324797,21.324797 V 578.67527 H 478.67517 V 21.324797 Z M 41.219706,41.219706 H 458.78027 V 558.78036 H 41.219706 Z" /><g
       inkscape:groupmode="layer"
       id="layer2"
       inkscape:label="Icons"><path
         style="display:none;fill:#ffffff;fill-opacity:1;stroke:#000000;stroke-width:8;stroke-dasharray:none;stroke-opacity:1"
         d="m 170.35985,300.8942 c -17.59446,0 -35.18892,0 -52.78338,0 17.68265,-17.68332 35.36531,-35.36663 53.04797,-53.04994 0,-26.41391 0,-52.82781 0,-79.24172 11.72986,0 23.45972,0 35.18958,0 0,14.68398 0,29.36795 0,44.05193 14.72865,-14.72786 29.4573,-29.45571 44.18595,-44.18357 44.1411,44.1411 88.2822,88.2822 132.4233,132.4233 -17.59475,0 -35.18949,0 -52.78424,0 0,44.09722 0,88.19445 0,132.29167 -53.09306,0 -106.18612,0 -159.27918,0 0,-44.09722 0,-88.19445 0,-132.29167 z"
         id="path3405"
         inkscape:label="House"
         sodipodi:nodetypes="cccccccccccc" /><path
         style="display:inline;fill:#ffffff;fill-opacity:1;stroke:#000000;stroke-width:8;stroke-dasharray:none;stroke-opacity:1"
         d="m 117.70833,299.35033 c 0,-44.14119 0,-88.28237 0,-132.42356 88.19445,0 176.38889,0 264.58334,0 0,44.14145 0,88.28291 0,132.42436 -45.04761,43.03976 -86.86611,89.51794 -132.29207,132.15898 -46.67228,-46.47197 -82.12968,-81.99789 -132.29127,-132.15978 z"
         id="path308"
         inkscape:label="Shield"
         sodipodi:nodetypes="cccccc" /></g></g></svg>
