<svg version="1.1" viewBox="0.0 0.0 1920.0 960.0" height="1000" width="2000" fill="none" stroke="none" stroke-linecap="square" stroke-miterlimit="10" xmlns:xlink="http://www.w3.org/1999/xlink" xmlns="http://www.w3.org/2000/svg"><clipPath id="p.0"><path d="m0 0l1920.0 0l0 960.0l-1920.0 0l0 -960.0z" clip-rule="nonzero"/></clipPath><g clip-path="url(#p.0)"><path fill="#000000" fill-opacity="0.0" d="m0 0l1920.0 0l0 960.0l-1920.0 0z" fill-rule="evenodd"/><path fill="#000000" d="m0 0l0 960.0l1920.0 -960.0z" fill-rule="evenodd"/><path fill="#ffffff" d="m1920.0 960.0026l0 -960.0l-1920.0 960.0z" fill-rule="evenodd"/><path fill="#000000" d="m812.3307 627.67194l0 0c-81.55548 -81.55554 -81.55548 -213.78311 0 -295.3386l0 0c39.164307 -39.164337 92.28259 -61.166626 147.66931 -61.166626c55.38672 0 108.50488 22.002289 147.66931 61.166626l0 0c81.55542 81.55548 81.55542 213.78305 0 295.3386l0 0c-81.55554 81.55548 -213.78314 81.55548 -295.33862 0z" fill-rule="evenodd"/><defs><linearGradient id="p.1" gradientUnits="userSpaceOnUse" gradientTransform="matrix(16.69177070187045 -16.691770701870457 16.691770701870457 16.69177070187045 0.0 0.0)" spreadMethod="pad" x1="6.032577186729662" y1="34.78919996978548" x2="6.032516815162269" y2="51.48097067154676"><stop offset="0.0" stop-color="#ff00ff"/><stop offset="0.16" stop-color="#0000ff"/><stop offset="0.33" stop-color="#00ffff"/><stop offset="0.59" stop-color="#00ff00"/><stop offset="0.75" stop-color="#ffff00"/><stop offset="0.88" stop-color="#ff9900"/><stop offset="1.0" stop-color="#ff0000"/></linearGradient></defs><path fill="url(#p.1)" d="m820.69586 619.30707l0 0c-76.93713 -76.93713 -76.93713 -201.67697 0 -278.61417l0 0c36.946533 -36.946533 87.05682 -57.70288 139.30713 -57.70288c52.250244 0 102.360535 20.756348 139.30707 57.70288l0 0c76.93713 76.937195 76.93713 201.67703 0 278.61417l0 0c-76.937195 76.937195 -201.677 76.937195 -278.6142 0z" fill-rule="evenodd"/><path fill="#000000" d="m790.2362 480.00262l0 0c0 -93.757935 76.00586 -169.7638 169.7638 -169.7638l0 0c45.02417 0 88.20422 17.885803 120.04114 49.722687c31.836914 31.836884 49.722656 75.01697 49.722656 120.04111l0 0c0 93.757935 -76.00586 169.7638 -169.7638 169.7638l0 0c-93.757935 0 -169.7638 -76.00586 -169.7638 -169.7638z" fill-rule="evenodd"/><path stroke="#000000" stroke-width="1.0" stroke-linejoin="round" stroke-linecap="butt" d="m790.2362 480.00262l0 0c0 -93.757935 76.00586 -169.7638 169.7638 -169.7638l0 0c45.02417 0 88.20422 17.885803 120.04114 49.722687c31.836914 31.836884 49.722656 75.01697 49.722656 120.04111l0 0c0 93.757935 -76.00586 169.7638 -169.7638 169.7638l0 0c-93.757935 0 -169.7638 -76.00586 -169.7638 -169.7638z" fill-rule="evenodd"/><path fill="#ffffff" d="m836.7472 503.8872l0 0c0 -51.33203 41.619934 -92.944885 92.96063 -92.944885l0 0c24.654724 0 48.29962 9.792389 65.73309 27.22293c17.433533 17.430542 27.22754 41.07144 27.22754 65.721954l0 0c0 51.33203 -41.619873 92.944885 -92.96063 92.944885l0 0c-51.3407 0 -92.96063 -41.612854 -92.96063 -92.944885z" fill-rule="evenodd"/><path fill="#ffffff" d="m972.5372 381.20035l0 0c0 -21.25644 17.23175 -38.48819 38.48816 -38.48819l0 0c10.207703 0 19.997375 4.0549927 27.215271 11.272919c7.2178955 7.2179565 11.272949 17.007568 11.272949 27.215271l0 0c0 21.25644 -17.231812 38.48819 -38.48822 38.48819l0 0c-21.256409 0 -38.48816 -17.23175 -38.48816 -38.48819z" fill-rule="evenodd"/><path fill="#ffffff" d="m1034.0603 440.33514l0 0c0 -8.566925 6.944824 -15.51181 15.511841 -15.51181l0 0c4.1140137 0 8.059448 1.6342773 10.968506 4.5433044c2.9090576 2.909027 4.543335 6.8545227 4.543335 10.968506l0 0c0 8.566956 -6.9449463 15.51181 -15.511841 15.51181l0 0c-8.567017 0 -15.511841 -6.9448547 -15.511841 -15.51181z" fill-rule="evenodd"/></g></svg>