<?xml version="1.0" encoding="UTF-8" standalone="no"?>
<svg
   version="1.1"
   width="360.0"
   height="185.0"
   id="svg2693"
   sodipodi:docname="Year of the Repeal.svg"
   inkscape:version="1.2.2 (732a01da63, 2022-12-09)"
   inkscape:export-filename="Year of the Repeal.png"
   inkscape:export-xdpi="96"
   inkscape:export-ydpi="96"
   xmlns:inkscape="http://www.inkscape.org/namespaces/inkscape"
   xmlns:sodipodi="http://sodipodi.sourceforge.net/DTD/sodipodi-0.dtd"
   xmlns:xlink="http://www.w3.org/1999/xlink"
   xmlns="http://www.w3.org/2000/svg"
   xmlns:svg="http://www.w3.org/2000/svg">
  <defs
     id="defs2697">
    <linearGradient
       inkscape:collect="always"
       id="linearGradient4799">
      <stop
         style="stop-color:#aeff84;stop-opacity:1;"
         offset="0"
         id="stop4795" />
      <stop
         style="stop-color:#aeff84;stop-opacity:0;"
         offset="1"
         id="stop4797" />
    </linearGradient>
    <linearGradient
       inkscape:collect="always"
       xlink:href="#linearGradient4799"
       id="linearGradient4801"
       x1="-3.5762787e-07"
       y1="92.499999"
       x2="359.99998"
       y2="92.499999"
       gradientUnits="userSpaceOnUse" />
    <linearGradient
       id="ga"
       gradientUnits="userSpaceOnUse"
       x1="-23.367081"
       x2="33.06971"
       y1="26.32622"
       y2="124.07761"
       xlink:href="#ga"
       gradientTransform="matrix(2.4,0,0,1.85,168.35722,-46.623548)">
      <stop
         offset="0"
         stop-color="#00b9a0"
         id="stop4404" />
      <stop
         offset="1"
         stop-color="#12201e"
         id="stop4406" />
    </linearGradient>
  </defs>
  <sodipodi:namedview
     id="namedview2695"
     pagecolor="#ffffff"
     bordercolor="#cccccc"
     borderopacity="1"
     inkscape:showpageshadow="0"
     inkscape:pageopacity="1"
     inkscape:pagecheckerboard="0"
     inkscape:deskcolor="#d1d1d1"
     showgrid="false"
     inkscape:zoom="2.4414826"
     inkscape:cx="152.98082"
     inkscape:cy="89.494802"
     inkscape:window-width="1920"
     inkscape:window-height="1051"
     inkscape:window-x="-9"
     inkscape:window-y="-9"
     inkscape:window-maximized="1"
     inkscape:current-layer="svg2693" />
  <!-- Created with parliamentarch (https://github.com/Gouvernathor/parliamentarch/) -->
  <rect
     style="display:inline;fill:url(#linearGradient4801);fill-opacity:1;stroke:#000000;stroke-width:0.835342;stroke-linecap:round;stroke-dasharray:none;stroke-opacity:1;paint-order:stroke markers fill;stop-color:#000000"
     id="rect3636"
     width="359.16464"
     height="184.16466"
     x="0.41767064"
     y="0.41767064"
     ry="1.515623" />
  <path
     d="M 0,0 H 360 V 185 H 0 Z"
     fill="url(#a)"
     fill-rule="evenodd"
     stroke-dashoffset="1.90299"
     stroke-linejoin="round"
     stroke-width="19.7018"
     id="path3885"
     style="display:inline;fill:url(#ga);fill-opacity:1" />
  <text
     x="180"
     y="175"
     style="font-weight:bold;font-size:36px;font-family:sans-serif;text-align:center;text-anchor:middle;display:none"
     id="text2497" />
  <g
     style="fill:#73ceb7;stroke-width:1.94;stroke:#aeff84;stroke-opacity:1"
     id="0-Passed-repeal">
    <title
       id="title2499">Passed repeal</title>
    <circle
       cx="15.01"
       cy="170.28"
       r="6.81"
       id="circle2501"
       style="stroke:#aeff84;stroke-opacity:1" />
    <circle
       cx="34.49"
       cy="170.28"
       r="6.81"
       id="circle2503"
       style="stroke:#aeff84;stroke-opacity:1" />
    <circle
       cx="53.99"
       cy="170.28"
       r="6.81"
       id="circle2505"
       style="stroke:#aeff84;stroke-opacity:1" />
    <circle
       cx="73.50"
       cy="170.28"
       r="6.81"
       id="circle2507"
       style="stroke:#aeff84;stroke-opacity:1" />
    <circle
       cx="93.04"
       cy="170.28"
       r="6.81"
       id="circle2509"
       style="stroke:#aeff84;stroke-opacity:1" />
    <circle
       cx="17.71"
       cy="148.73"
       r="6.81"
       id="circle2511"
       style="stroke:#aeff84;stroke-opacity:1" />
    <circle
       cx="37.59"
       cy="148.58"
       r="6.81"
       id="circle2513"
       style="stroke:#aeff84;stroke-opacity:1" />
    <circle
       cx="57.63"
       cy="148.40"
       r="6.81"
       id="circle2515"
       style="stroke:#aeff84;stroke-opacity:1" />
    <circle
       cx="77.91"
       cy="148.15"
       r="6.81"
       id="circle2517"
       style="stroke:#aeff84;stroke-opacity:1" />
    <circle
       cx="23.21"
       cy="127.73"
       r="6.81"
       id="circle2519"
       style="stroke:#aeff84;stroke-opacity:1" />
    <circle
       cx="97.94"
       cy="149.62"
       r="6.81"
       id="circle2521"
       style="stroke:#aeff84;stroke-opacity:1" />
    <circle
       cx="43.91"
       cy="127.60"
       r="6.81"
       id="circle2523"
       style="stroke:#aeff84;stroke-opacity:1" />
    <circle
       cx="65.04"
       cy="127.49"
       r="6.81"
       id="circle2525"
       style="stroke:#aeff84;stroke-opacity:1" />
    <circle
       cx="31.41"
       cy="107.62"
       r="6.81"
       id="circle2527"
       style="stroke:#aeff84;stroke-opacity:1" />
    <circle
       cx="86.87"
       cy="127.44"
       r="6.81"
       id="circle2529"
       style="stroke:#aeff84;stroke-opacity:1" />
    <circle
       cx="53.29"
       cy="107.80"
       r="6.81"
       id="circle2531"
       style="stroke:#aeff84;stroke-opacity:1" />
    <circle
       cx="42.18"
       cy="88.77"
       r="6.81"
       id="circle2533"
       style="stroke:#aeff84;stroke-opacity:1" />
    <circle
       cx="107.68"
       cy="130.75"
       r="6.81"
       id="circle2535"
       style="stroke:#aeff84;stroke-opacity:1" />
    <circle
       cx="75.99"
       cy="108.20"
       r="6.81"
       id="circle2537"
       style="stroke:#aeff84;stroke-opacity:1" />
    <circle
       cx="65.54"
       cy="89.63"
       r="6.81"
       id="circle2539"
       style="stroke:#aeff84;stroke-opacity:1" />
    <circle
       cx="55.33"
       cy="71.49"
       r="6.81"
       id="circle2541"
       style="stroke:#aeff84;stroke-opacity:1" />
    <circle
       cx="99.97"
       cy="109.06"
       r="6.81"
       id="circle2543"
       style="stroke:#aeff84;stroke-opacity:1" />
    <circle
       cx="90.15"
       cy="91.12"
       r="6.81"
       id="circle2545"
       style="stroke:#aeff84;stroke-opacity:1" />
    <circle
       cx="80.38"
       cy="73.50"
       r="6.81"
       id="circle2547"
       style="stroke:#aeff84;stroke-opacity:1" />
    <circle
       cx="121.67"
       cy="114.78"
       r="6.81"
       id="circle2549"
       style="stroke:#aeff84;stroke-opacity:1" />
    <circle
       cx="70.63"
       cy="56.08"
       r="6.81"
       id="circle2551"
       style="stroke:#aeff84;stroke-opacity:1" />
    <circle
       cx="116.63"
       cy="93.85"
       r="6.81"
       id="circle2553"
       style="stroke:#aeff84;stroke-opacity:1" />
    <circle
       cx="107.07"
       cy="76.78"
       r="6.81"
       id="circle2555"
       style="stroke:#aeff84;stroke-opacity:1" />
    <circle
       cx="97.46"
       cy="59.77"
       r="6.81"
       id="circle2557"
       style="stroke:#aeff84;stroke-opacity:1" />
    <circle
       cx="87.82"
       cy="42.81"
       r="6.81"
       id="circle2559"
       style="stroke:#aeff84;stroke-opacity:1" />
    <circle
       cx="139.09"
       cy="102.65"
       r="6.81"
       id="circle2561"
       style="stroke:#aeff84;stroke-opacity:1" />
    <circle
       cx="106.60"
       cy="31.91"
       r="6.81"
       id="circle2563"
       style="stroke:#aeff84;stroke-opacity:1" />
    <circle
       cx="116.41"
       cy="48.76"
       r="6.81"
       id="circle2565"
       style="stroke:#aeff84;stroke-opacity:1" />
    <circle
       cx="126.24"
       cy="65.61"
       r="6.81"
       id="circle2567"
       style="stroke:#aeff84;stroke-opacity:1" />
    <circle
       cx="136.12"
       cy="82.47"
       r="6.81"
       id="circle2569"
       style="stroke:#aeff84;stroke-opacity:1" />
    <circle
       cx="126.65"
       cy="23.57"
       r="6.81"
       id="circle2571"
       style="stroke:#aeff84;stroke-opacity:1" />
    <circle
       cx="136.79"
       cy="40.72"
       r="6.81"
       id="circle2573"
       style="stroke:#aeff84;stroke-opacity:1" />
    <circle
       cx="147.07"
       cy="57.98"
       r="6.81"
       id="circle2575"
       style="stroke:#aeff84;stroke-opacity:1" />
    <circle
       cx="158.93"
       cy="95.08"
       r="6.81"
       id="circle2577"
       style="stroke:#aeff84;stroke-opacity:1" />
    <circle
       cx="157.56"
       cy="75.44"
       r="6.81"
       id="circle2579"
       style="stroke:#aeff84;stroke-opacity:1" />
    <circle
       cx="147.62"
       cy="17.93"
       r="6.81"
       id="circle2581"
       style="stroke:#aeff84;stroke-opacity:1" />
    <circle
       cx="158.15"
       cy="35.81"
       r="6.81"
       id="circle2583"
       style="stroke:#aeff84;stroke-opacity:1" />
    <circle
       cx="168.91"
       cy="54.10"
       r="6.81"
       id="circle2585"
       style="stroke:#aeff84;stroke-opacity:1" />
    <circle
       cx="169.14"
       cy="15.08"
       r="6.81"
       id="circle2587"
       style="stroke:#aeff84;stroke-opacity:1" />
    <circle
       cx="180.00"
       cy="92.50"
       r="6.81"
       id="circle2589"
       style="stroke:#aeff84;stroke-opacity:1" />
    <circle
       cx="180.00"
       cy="73.06"
       r="6.81"
       id="circle2591"
       style="stroke:#aeff84;stroke-opacity:1" />
    <circle
       cx="180.00"
       cy="34.17"
       r="6.81"
       id="circle2593"
       style="stroke:#aeff84;stroke-opacity:1" />
    <circle
       cx="190.86"
       cy="15.08"
       r="6.81"
       id="circle2595"
       style="stroke:#aeff84;stroke-opacity:1" />
  </g>
  <g
     style="fill:#7da5db;stroke-width:1.94;stroke:#aeff84;stroke-opacity:1"
     id="1-Passed-legislation">
    <title
       id="title2598">Passed legislation</title>
    <circle
       cx="191.09"
       cy="54.10"
       r="6.81"
       id="circle2600"
       style="stroke:#aeff84;stroke-opacity:1" />
    <circle
       cx="201.85"
       cy="35.81"
       r="6.81"
       id="circle2602"
       style="stroke:#aeff84;stroke-opacity:1" />
    <circle
       cx="212.38"
       cy="17.93"
       r="6.81"
       id="circle2604"
       style="stroke:#aeff84;stroke-opacity:1" />
    <circle
       cx="202.44"
       cy="75.44"
       r="6.81"
       id="circle2606"
       style="stroke:#aeff84;stroke-opacity:1" />
    <circle
       cx="201.07"
       cy="95.08"
       r="6.81"
       id="circle2608"
       style="stroke:#aeff84;stroke-opacity:1" />
    <circle
       cx="212.93"
       cy="57.98"
       r="6.81"
       id="circle2610"
       style="stroke:#aeff84;stroke-opacity:1" />
    <circle
       cx="223.21"
       cy="40.72"
       r="6.81"
       id="circle2612"
       style="stroke:#aeff84;stroke-opacity:1" />
    <circle
       cx="233.35"
       cy="23.57"
       r="6.81"
       id="circle2614"
       style="stroke:#aeff84;stroke-opacity:1" />
    <circle
       cx="223.88"
       cy="82.47"
       r="6.81"
       id="circle2616"
       style="stroke:#aeff84;stroke-opacity:1" />
    <circle
       cx="233.76"
       cy="65.61"
       r="6.81"
       id="circle2618"
       style="stroke:#aeff84;stroke-opacity:1" />
  </g>
  <g
     style="fill:#7da5db; stroke-width:1.94; stroke:#cd5555"
     id="2-Failed-legislation">
    <title
       id="title2621">Failed legislation</title>
    <circle
       cx="243.59"
       cy="48.76"
       r="6.81"
       id="circle2623" />
    <circle
       cx="253.40"
       cy="31.91"
       r="6.81"
       id="circle2625" />
    <circle
       cx="220.91"
       cy="102.65"
       r="6.81"
       id="circle2627" />
  </g>
  <g
     style="fill:#c5c5c5"
     id="3-Unused">
    <title
       id="title2630">Unused</title>
    <circle
       cx="272.18"
       cy="42.81"
       r="7.78"
       id="circle2632" />
    <circle
       cx="262.54"
       cy="59.77"
       r="7.78"
       id="circle2634" />
    <circle
       cx="252.93"
       cy="76.78"
       r="7.78"
       id="circle2636" />
    <circle
       cx="243.37"
       cy="93.85"
       r="7.78"
       id="circle2638" />
    <circle
       cx="289.37"
       cy="56.08"
       r="7.78"
       id="circle2640" />
    <circle
       cx="238.33"
       cy="114.78"
       r="7.78"
       id="circle2642" />
    <circle
       cx="279.62"
       cy="73.50"
       r="7.78"
       id="circle2644" />
    <circle
       cx="269.85"
       cy="91.12"
       r="7.78"
       id="circle2646" />
    <circle
       cx="260.03"
       cy="109.06"
       r="7.78"
       id="circle2648" />
    <circle
       cx="304.67"
       cy="71.49"
       r="7.78"
       id="circle2650" />
    <circle
       cx="294.46"
       cy="89.63"
       r="7.78"
       id="circle2652" />
    <circle
       cx="284.01"
       cy="108.20"
       r="7.78"
       id="circle2654" />
    <circle
       cx="252.32"
       cy="130.75"
       r="7.78"
       id="circle2656" />
    <circle
       cx="317.82"
       cy="88.77"
       r="7.78"
       id="circle2658" />
    <circle
       cx="306.71"
       cy="107.80"
       r="7.78"
       id="circle2660" />
    <circle
       cx="273.13"
       cy="127.44"
       r="7.78"
       id="circle2662" />
    <circle
       cx="328.59"
       cy="107.62"
       r="7.78"
       id="circle2664" />
    <circle
       cx="294.96"
       cy="127.49"
       r="7.78"
       id="circle2666" />
    <circle
       cx="316.09"
       cy="127.60"
       r="7.78"
       id="circle2668" />
    <circle
       cx="262.06"
       cy="149.62"
       r="7.78"
       id="circle2670" />
    <circle
       cx="336.79"
       cy="127.73"
       r="7.78"
       id="circle2672" />
    <circle
       cx="282.09"
       cy="148.15"
       r="7.78"
       id="circle2674" />
    <circle
       cx="302.37"
       cy="148.40"
       r="7.78"
       id="circle2676" />
    <circle
       cx="322.41"
       cy="148.58"
       r="7.78"
       id="circle2678" />
    <circle
       cx="342.29"
       cy="148.73"
       r="7.78"
       id="circle2680" />
    <circle
       cx="266.96"
       cy="170.28"
       r="7.78"
       id="circle2682" />
    <circle
       cx="286.50"
       cy="170.28"
       r="7.78"
       id="circle2684" />
    <circle
       cx="306.01"
       cy="170.28"
       r="7.78"
       id="circle2686" />
    <circle
       cx="325.51"
       cy="170.28"
       r="7.78"
       id="circle2688" />
    <circle
       cx="344.99"
       cy="170.28"
       r="7.78"
       id="circle2690" />
  </g>
  <g
     aria-label="YEAR OF 
THE REPEAL"
     id="text3274"
     style="font-size:20px;font-family:'Arial Rounded MT Bold';-inkscape-font-specification:'Arial Rounded MT Bold, ';fill:#ffffff;stroke-width:0.823937;stroke-linecap:round;paint-order:stroke markers fill">
    <g
       id="path6515">
      <path
         style="color:#000000;-inkscape-font-specification:'Arial Rounded MT Bold, ';fill:#000000;stroke-linecap:butt;-inkscape-stroke:none"
         d="m 135.61523,133.31445 c -0.4652,0 -0.90304,0.16243 -1.23632,0.47071 l -0.002,0.002 -0.002,0.002 c -0.32247,0.30594 -0.50977,0.72116 -0.50977,1.15821 0,0.28598 0.0833,0.57469 0.22266,0.88281 l 0.002,0.002 0.002,0.004 c 0.14314,0.3006 0.36537,0.69022 0.67578,1.18554 l 0.002,0.002 3.43164,5.32031 v 4.41992 c 0,0.66015 0.14676,1.21895 0.50781,1.61524 l 0.002,0.002 h 0.002 c 0.34209,0.36711 0.82447,0.5625 1.3457,0.5625 0.51825,0 0.99993,-0.19985 1.34571,-0.57031 0.36794,-0.39424 0.52148,-0.95355 0.52148,-1.60938 v -4.41992 l 3.51563,-5.39063 0.002,-0.004 c 0.30321,-0.45504 0.52149,-0.815 0.66016,-1.09961 0.14738,-0.30251 0.22656,-0.6206 0.22656,-0.94141 0,-0.41971 -0.18631,-0.81831 -0.49805,-1.11523 -0.31396,-0.31147 -0.74022,-0.47852 -1.19336,-0.47852 -0.28396,0 -0.55058,0.0519 -0.78515,0.17383 -0.21678,0.11272 -0.41029,0.27322 -0.57618,0.4707 v 0.002 c -0.14389,0.17268 -0.27571,0.35772 -0.39648,0.55664 -0.10986,0.18095 -0.24672,0.40508 -0.4082,0.66992 l -2.35352,3.78125 -2.32617,-3.77734 v -0.002 c -0.41221,-0.67383 -0.71399,-1.11994 -0.9707,-1.39453 -4.1e-4,-4.6e-4 -0.002,4.6e-4 -0.002,0 -0.29076,-0.32731 -0.72981,-0.48047 -1.20508,-0.48047 z m 0,0.82422 c 0.31835,0 0.47696,0.0757 0.58985,0.20313 l 0.004,0.004 0.004,0.004 c 0.15851,0.16842 0.47247,0.61018 0.87695,1.27148 l 3.02539,4.91211 3.0586,-4.91211 v -0.002 c 0.16285,-0.26708 0.29928,-0.49121 0.41015,-0.67383 0.10059,-0.16567 0.20966,-0.3172 0.32618,-0.45703 0.10755,-0.12804 0.21352,-0.21298 0.32226,-0.26953 0.091,-0.0473 0.22147,-0.0801 0.40625,-0.0801 0.27386,0 0.44979,0.0728 0.61719,0.24024 l 0.004,0.004 0.004,0.004 c 0.18104,0.17151 0.24219,0.3177 0.24219,0.52148 0,0.18701 -0.0445,0.37478 -0.14453,0.58008 -0.10827,0.22222 -0.3133,0.56662 -0.60742,1.00781 v 0.002 l -3.65235,5.60156 v 4.66406 c 0,0.52907 -0.11991,0.85518 -0.29883,1.04688 -0.2011,0.21547 -0.41602,0.30859 -0.74414,0.30859 -0.3363,0 -0.54927,-0.0934 -0.74023,-0.29687 -0.17232,-0.18983 -0.29297,-0.52176 -0.29297,-1.0586 v -4.66211 l -3.55859,-5.51758 -0.004,-0.006 c -0.29687,-0.47409 -0.50789,-0.84294 -0.625,-1.08789 v -0.002 c -0.1072,-0.23761 -0.14844,-0.42376 -0.14844,-0.54101 0,-0.22703 0.0666,-0.38471 0.25196,-0.56055 0.18657,-0.17131 0.38557,-0.24805 0.67382,-0.24805 z"
         id="path6548" />
      <path
         style="color:#000000;-inkscape-font-specification:'Arial Rounded MT Bold, ';stroke-linecap:butt;-inkscape-stroke:none"
         d="m 138.61328,146.76299 v -4.54102 l -3.49609,-5.41992 q -0.45899,-0.73242 -0.6543,-1.14258 -0.18555,-0.41016 -0.18555,-0.71289 0,-0.49805 0.38086,-0.85938 0.39063,-0.36132 0.95703,-0.36132 0.59571,0 0.89844,0.34179 0.3125,0.33203 0.92774,1.33789 l 2.67578,4.34571 2.70508,-4.34571 q 0.24414,-0.40039 0.41015,-0.67382 0.16602,-0.27344 0.36133,-0.50782 0.20508,-0.24414 0.44922,-0.37109 0.24414,-0.12695 0.5957,-0.12695 0.54688,0 0.9082,0.36132 0.3711,0.35157 0.3711,0.82032 0,0.38086 -0.18555,0.76172 -0.18555,0.38085 -0.63476,1.05468 l -3.58399,5.49805 v 4.54102 q 0,0.88867 -0.41015,1.32812 -0.41016,0.43945 -1.04493,0.43945 -0.64453,0 -1.04492,-0.42968 -0.40039,-0.43946 -0.40039,-1.33789 z"
         id="path6550" />
    </g>
    <g
       id="path6517">
      <path
         style="color:#000000;-inkscape-font-specification:'Arial Rounded MT Bold, ';fill:#000000;stroke-linecap:butt;-inkscape-stroke:none"
         d="m 149.69727,133.55859 c -0.45086,0 -0.8479,0.0657 -1.1875,0.22266 -0.34369,0.15543 -0.61735,0.43208 -0.77735,0.77734 -0.15913,0.33665 -0.22461,0.73347 -0.22461,1.18946 v 10.76172 c 0,0.68507 0.14682,1.25495 0.52735,1.64453 l 0.002,0.002 0.002,0.002 c 0.38947,0.38947 0.96582,0.54102 1.65821,0.54102 h 7.88085 c 0.51851,0 0.97393,-0.12125 1.30274,-0.42188 h 0.002 c 0.31383,-0.28767 0.48438,-0.69919 0.48438,-1.13281 0,-0.44092 -0.17097,-0.85788 -0.48828,-1.14258 -0.32723,-0.30496 -0.78335,-0.43164 -1.30079,-0.43164 h -6.3457 v -3.24804 h 5.60352 c 0.51091,0 0.95807,-0.11609 1.27734,-0.41602 l 0.004,-0.002 0.002,-0.002 c 0.29183,-0.28298 0.44727,-0.67954 0.44727,-1.0957 0,-0.41583 -0.16462,-0.81364 -0.4668,-1.08398 -0.31756,-0.29636 -0.76,-0.41211 -1.26367,-0.41211 h -5.60352 v -2.69141 h 6.1211 c 0.52219,0 0.97587,-0.11215 1.30273,-0.41016 v -0.002 c 0.30987,-0.28332 0.47656,-0.69208 0.47656,-1.12305 0,-0.4241 -0.16975,-0.82743 -0.47851,-1.10351 -0.32521,-0.30244 -0.77972,-0.42188 -1.30078,-0.42188 z m 0,0.82422 h 7.65625 c 0.40034,0 0.62504,0.089 0.74218,0.19922 l 0.006,0.004 0.004,0.006 c 0.14392,0.12747 0.20312,0.25439 0.20312,0.49218 0,0.24612 -0.0612,0.38228 -0.20703,0.51563 -0.11586,0.10563 -0.34577,0.19531 -0.74804,0.19531 h -6.94532 v 4.33985 h 6.42774 c 0.3801,0 0.59315,0.0843 0.70508,0.18945 l 0.004,0.006 0.004,0.004 c 0.13621,0.12019 0.19336,0.24052 0.19336,0.47266 0,0.2338 -0.0588,0.36887 -0.19532,0.50195 -0.11098,0.10293 -0.32565,0.18946 -0.71093,0.18946 h -6.42774 v 4.89648 h 7.16992 c 0.391,0 0.61407,0.0882 0.74219,0.20899 l 0.006,0.004 0.004,0.004 c 0.14837,0.13189 0.21289,0.27319 0.21289,0.5332 0,0.24348 -0.0638,0.38339 -0.21875,0.52539 -0.1271,0.11563 -0.35409,0.20508 -0.7461,0.20508 h -7.88085 c -0.56872,0 -0.90132,-0.13121 -1.07227,-0.30078 -0.16552,-0.17085 -0.29297,-0.50146 -0.29297,-1.06445 v -10.76172 c 0,-0.3759 0.0593,-0.65635 0.14649,-0.83985 v -0.002 -0.002 c 0.087,-0.18774 0.19712,-0.29388 0.37304,-0.37305 h 0.002 l 0.002,-0.002 c 0.19389,-0.0899 0.47305,-0.14649 0.8418,-0.14649 z"
         id="path6554" />
      <path
         style="color:#000000;-inkscape-font-specification:'Arial Rounded MT Bold, ';stroke-linecap:butt;-inkscape-stroke:none"
         d="m 157.35352,136.20634 h -6.53321 v 3.51563 h 6.01563 q 0.66406,0 0.98633,0.30273 0.33203,0.29297 0.33203,0.78125 0,0.48829 -0.32227,0.80079 -0.32226,0.30273 -0.99609,0.30273 h -6.01563 v 4.07227 h 6.75781 q 0.6836,0 1.0254,0.32226 0.35156,0.3125 0.35156,0.83984 0,0.50782 -0.35156,0.83008 -0.3418,0.3125 -1.0254,0.3125 h -7.88085 q -0.94727,0 -1.36719,-0.41992 -0.41016,-0.41992 -0.41016,-1.35742 v -10.76172 q 0,-0.625 0.18555,-1.01562 0.18555,-0.4004 0.57617,-0.57618 0.40039,-0.18554 1.01563,-0.18554 h 7.65625 q 0.69335,0 1.02539,0.3125 0.34179,0.30273 0.34179,0.80078 0,0.50781 -0.34179,0.82031 -0.33204,0.30273 -1.02539,0.30273 z"
         id="path6556" />
    </g>
    <g
       id="path6519">
      <path
         style="color:#000000;-inkscape-font-specification:'Arial Rounded MT Bold, ';fill:#000000;stroke-linecap:butt;-inkscape-stroke:none"
         d="m 166.81641,133.31445 c -0.44963,0 -0.85977,0.0897 -1.20704,0.28711 -0.31894,0.17893 -0.58858,0.42395 -0.79296,0.72266 l -0.002,0.002 -0.002,0.004 c -0.18377,0.27933 -0.35058,0.61523 -0.50781,1.01172 v 0.002 l -0.002,0.002 c -0.14309,0.37075 -0.26523,0.68881 -0.36914,0.95508 l -3.66211,9.29492 c -0.15151,0.37565 -0.26099,0.67123 -0.33203,0.89844 -0.0761,0.24333 -0.11718,0.48741 -0.11718,0.72852 0,0.45209 0.20396,0.87812 0.54687,1.20507 0.34459,0.32857 0.78683,0.51563 1.25195,0.51563 0.50875,0 0.97562,-0.166 1.25586,-0.5332 v -0.002 l 0.002,-0.002 c 0.24399,-0.32813 0.46777,-0.82759 0.74023,-1.55859 l 0.58398,-1.56641 h 5.25 l 0.58594,1.54102 c 9.5e-4,0.002 0.003,0.005 0.004,0.008 l 0.0937,0.24804 h 0.01 c 0.0686,0.16493 0.1337,0.32273 0.2168,0.51954 l 0.002,0.004 0.002,0.006 c 0.1377,0.30295 0.26601,0.54004 0.41015,0.72656 l 0.004,0.004 0.002,0.002 c 0.14719,0.18183 0.33508,0.32885 0.54688,0.43164 0.23127,0.11896 0.49282,0.17188 0.76953,0.17188 0.48675,0 0.94432,-0.18846 1.28711,-0.53125 0.33753,-0.33753 0.54101,-0.76117 0.54101,-1.20899 0,-0.44512 -0.16922,-0.96786 -0.4707,-1.6914 l -3.73828,-9.23633 0.002,0.01 c -0.17545,-0.46138 -0.32106,-0.82815 -0.4414,-1.10938 -0.12114,-0.30641 -0.27503,-0.59361 -0.46094,-0.85937 -0.19948,-0.29523 -0.47227,-0.53525 -0.79492,-0.71289 -0.3437,-0.19923 -0.75318,-0.28907 -1.20703,-0.28907 z m 0,0.82422 c 0.35048,0 0.60807,0.0672 0.79687,0.17774 l 0.006,0.002 0.006,0.004 c 0.22201,0.12157 0.38475,0.27005 0.50977,0.45507 l 0.002,0.002 0.002,0.004 c 0.15039,0.21402 0.27588,0.44458 0.375,0.69532 l 0.002,0.006 0.002,0.006 c 0.11346,0.26473 0.25903,0.62886 0.43359,1.08789 l 0.002,0.004 3.74219,9.24414 v 0.002 c 0.28446,0.68271 0.40821,1.1821 0.40821,1.375 0,0.21626 -0.0765,0.4046 -0.29883,0.62696 -0.20408,0.20407 -0.41058,0.28906 -0.70508,0.28906 -0.17686,0 -0.30354,-0.0317 -0.39649,-0.0801 l -0.006,-0.004 -0.006,-0.004 c -0.11019,-0.0529 -0.19335,-0.11834 -0.26563,-0.20703 -0.0771,-0.10085 -0.18721,-0.29156 -0.30859,-0.5586 -0.11923,-0.28244 -0.22418,-0.5317 -0.3125,-0.74609 l -0.004,-0.0117 -0.006,-0.0156 -0.77539,-2.03516 h -6.39062 l -0.78321,2.10352 c -0.26062,0.69924 -0.4912,1.16874 -0.625,1.34961 -0.0974,0.12757 -0.24898,0.20898 -0.59961,0.20898 -0.26404,0 -0.46633,-0.0818 -0.68164,-0.28711 -0.217,-0.2069 -0.29297,-0.38439 -0.29297,-0.60937 0,-0.14952 0.0239,-0.30909 0.0781,-0.48243 0.0591,-0.18902 0.16504,-0.47238 0.3125,-0.83789 v -0.002 l 3.66211,-9.29883 0.002,-0.002 c 0.10417,-0.26693 0.22623,-0.58481 0.36914,-0.95508 l 0.002,-0.002 c 0.14085,-0.35476 0.28343,-0.63915 0.42382,-0.85352 l 0.002,-0.002 c 0.13388,-0.19495 0.29962,-0.34672 0.51367,-0.4668 l 0.002,-0.002 h 0.002 c 0.19884,-0.11362 0.45767,-0.17969 0.80079,-0.17969 z m -0.0234,1.4336 -2.70117,7.53125 h 0.58593 4.86719 z m 0.008,2.42187 1.56641,4.28516 h -3.10352 z"
         id="path6560" />
      <path
         style="color:#000000;-inkscape-font-specification:'Arial Rounded MT Bold, ';stroke-linecap:butt;-inkscape-stroke:none"
         d="m 170.41992,146.66533 -0.68359,-1.79688 h -5.82031 l -0.6836,1.83594 q -0.40039,1.07422 -0.68359,1.45508 -0.28321,0.37109 -0.92774,0.37109 -0.54687,0 -0.96679,-0.40039 -0.41993,-0.40039 -0.41993,-0.9082 0,-0.29297 0.0977,-0.60547 0.0977,-0.3125 0.32227,-0.86914 l 3.66211,-9.29687 q 0.15625,-0.4004 0.37109,-0.95704 0.22461,-0.5664 0.46875,-0.9375 0.25391,-0.37109 0.6543,-0.5957 0.41015,-0.23437 1.00586,-0.23437 0.60546,0 1.00586,0.23437 0.41015,0.22461 0.65429,0.58594 0.25391,0.36133 0.41992,0.78125 0.17579,0.41015 0.43946,1.10351 l 3.74023,9.23829 q 0.43945,1.05468 0.43945,1.5332 0,0.49805 -0.41992,0.91797 -0.41015,0.41015 -0.99609,0.41015 -0.3418,0 -0.58594,-0.12695 -0.24414,-0.11719 -0.41015,-0.32227 -0.16602,-0.21484 -0.36133,-0.64453 -0.18555,-0.43945 -0.32227,-0.77148 z m -5.74219,-3.97461 h 4.27735 l -2.15821,-5.9082 z"
         id="path6562" />
    </g>
    <g
       id="path6521">
      <path
         style="color:#000000;-inkscape-font-specification:'Arial Rounded MT Bold, ';fill:#000000;stroke-linecap:butt;-inkscape-stroke:none"
         d="m 177.40234,133.55859 c -0.6865,0 -1.26009,0.15268 -1.64843,0.54102 -0.38834,0.38834 -0.54102,0.96193 -0.54102,1.64844 v 11.01562 c 0,0.6396 0.13986,1.18455 0.47852,1.58399 0.33365,0.39354 0.83746,0.5957 1.38867,0.5957 0.52123,0 1.00361,-0.19539 1.3457,-0.5625 0.36562,-0.39237 0.51172,-0.95118 0.51172,-1.61719 v -4.1875 h 0.19141 0.41211 c 0.47781,0 0.85362,0.0642 1.125,0.17383 0.26104,0.10543 0.54446,0.31562 0.83984,0.65234 l 0.002,0.002 h 0.002 c 0.30211,0.33766 0.66586,0.85921 1.07421,1.55468 l 0.002,0.002 1.16211,1.93554 c 0.27522,0.4587 0.49122,0.80811 0.65429,1.05274 l 0.004,0.002 0.002,0.004 c 0.18869,0.2717 0.41744,0.50053 0.68164,0.67969 0.29817,0.20868 0.66349,0.30859 1.05274,0.30859 0.3262,0 0.63562,-0.0697 0.9082,-0.21289 0.26472,-0.13289 0.48912,-0.32651 0.64649,-0.57031 0.15819,-0.24146 0.2539,-0.51225 0.2539,-0.79102 0,-0.3375 -0.12987,-0.6595 -0.34375,-1.1543 -0.21315,-0.5157 -0.51074,-1.07631 -0.89062,-1.68945 -0.37657,-0.62472 -0.80552,-1.21491 -1.28907,-1.76562 -0.29828,-0.33971 -0.6352,-0.53923 -0.95898,-0.78516 0.90114,-0.28766 1.67872,-0.6646 2.20703,-1.22656 0.68446,-0.72126 1.02149,-1.69622 1.02149,-2.8418 0,-0.56613 -0.10108,-1.10993 -0.30079,-1.61914 v -0.002 c -0.19501,-0.51938 -0.48681,-0.98152 -0.87109,-1.37305 -0.38016,-0.38733 -0.82428,-0.68895 -1.32031,-0.89844 -0.41394,-0.18806 -0.8719,-0.30922 -1.36914,-0.36523 -0.48511,-0.0612 -1.05565,-0.0898 -1.7168,-0.0898 z m 0,0.82422 h 4.7168 c 0.63868,0 1.17889,0.0284 1.61719,0.084 h 0.004 0.002 c 0.42507,0.0479 0.79816,0.14973 1.125,0.29882 l 0.006,0.002 0.006,0.002 c 0.39975,0.16801 0.74836,0.40466 1.05664,0.71875 0.30543,0.31119 0.53485,0.67042 0.6914,1.08789 v 0.002 l 0.002,0.004 c 0.16292,0.41312 0.24414,0.85145 0.24414,1.32422 0,0.98984 -0.26844,1.71865 -0.79493,2.27344 v 0.002 h -0.002 c -0.52273,0.55683 -1.35062,0.98293 -2.52148,1.23828 l -1.09766,0.23828 0.99219,0.52735 c 0.462,0.24562 0.9169,0.61521 1.35937,1.11914 0.45274,0.51562 0.85314,1.06397 1.20508,1.64843 l 0.002,0.004 0.002,0.002 c 0.3623,0.58478 0.63764,1.10946 0.82812,1.57032 l 0.002,0.004 v 0.002 c 0.20082,0.4644 0.27929,0.80864 0.27929,0.83398 0,0.0988 -0.028,0.2037 -0.11718,0.33984 l -0.002,0.002 v 0.002 c -0.0764,0.11891 -0.17618,0.20821 -0.32617,0.2832 l -0.006,0.002 -0.004,0.002 c -0.14238,0.0756 -0.31144,0.11914 -0.52929,0.11914 -0.25961,0 -0.43841,-0.0588 -0.58203,-0.16016 l -0.004,-0.002 -0.004,-0.002 c -0.17496,-0.11836 -0.32804,-0.27071 -0.46289,-0.46289 l -0.004,-0.006 c -5.7e-4,-8.2e-4 -0.001,-0.001 -0.002,-0.002 -0.14922,-0.2242 -0.35944,-0.56262 -0.6289,-1.01171 l -1.16016,-1.92969 -0.002,-0.004 c -0.42279,-0.71967 -0.80568,-1.27627 -1.16602,-1.67969 l -0.002,-0.002 c -0.35509,-0.40429 -0.73515,-0.7034 -1.15039,-0.87109 -0.28912,-0.11676 -0.65903,-0.13755 -1.02149,-0.16797 v -0.0664 h -0.4121 -1.42774 v 5.01172 c 0,0.54493 -0.12082,0.87609 -0.28906,1.05664 -0.19176,0.20579 -0.406,0.29883 -0.74414,0.29883 -0.37327,0 -0.58561,-0.0993 -0.75977,-0.30469 -0.16915,-0.19951 -0.2832,-0.53153 -0.2832,-1.05078 v -11.01562 c 0,-0.56349 0.12727,-0.89486 0.29883,-1.06641 0.17155,-0.17155 0.50291,-0.29883 1.0664,-0.29883 z m 0.71094,1.35352 v 4.75976 h 3.00977 c 0.71971,0 1.33478,-0.0611 1.85547,-0.18945 h 0.004 0.002 c 0.53282,-0.13868 0.97756,-0.3818 1.29102,-0.74414 0.33106,-0.38199 0.48242,-0.89423 0.48242,-1.4707 0,-0.46541 -0.12372,-0.90277 -0.37109,-1.27149 -2.8e-4,-4.2e-4 -0.002,4.3e-4 -0.002,0 -0.24616,-0.37263 -0.59782,-0.6604 -1.02149,-0.83789 h -0.002 c -0.47201,-0.19927 -1.14523,-0.24609 -2.16016,-0.24609 z m 0.82422,0.82422 h 2.26367 c 0.97635,0 1.63679,0.0949 1.8418,0.18164 h 0.002 c 0.29134,0.12183 0.49712,0.29295 0.6543,0.53125 v 0.002 l 0.002,0.002 c 0.15466,0.2295 0.23242,0.48711 0.23242,0.81446 0,0.43915 -0.10254,0.7277 -0.27929,0.93164 h -0.002 c -0.18017,0.20862 -0.45624,0.37576 -0.86914,0.48437 -5e-4,1.3e-4 -0.001,-1.2e-4 -0.002,0 -0.42963,0.10575 -0.98548,0.16406 -1.6582,0.16406 h -2.18555 z"
         id="path6566" />
      <path
         style="color:#000000;-inkscape-font-specification:'Arial Rounded MT Bold, ';stroke-linecap:butt;-inkscape-stroke:none"
         d="m 179.54102,142.16338 h -1.01563 v 4.59961 q 0,0.9082 -0.40039,1.33789 -0.40039,0.42968 -1.04492,0.42968 -0.69336,0 -1.07422,-0.44922 -0.38086,-0.44921 -0.38086,-1.31835 v -11.01563 q 0,-0.9375 0.41992,-1.35742 0.41992,-0.41992 1.35742,-0.41992 h 4.7168 q 0.97656,0 1.66992,0.0879 0.69336,0.0781 1.25,0.33203 0.67383,0.2832 1.19141,0.81055 0.51758,0.52734 0.78125,1.23046 0.27344,0.69336 0.27344,1.47461 0,1.60157 -0.90821,2.5586 -0.89843,0.95703 -2.73437,1.35742 0.77148,0.41016 1.47461,1.21094 0.70312,0.80078 1.25,1.70898 0.55664,0.89844 0.85937,1.63086 0.3125,0.72266 0.3125,0.99609 0,0.28321 -0.18554,0.56641 -0.17579,0.27344 -0.48829,0.42969 -0.3125,0.16601 -0.72265,0.16601 -0.48828,0 -0.82031,-0.23437 -0.33204,-0.22461 -0.57618,-0.57617 -0.23437,-0.35157 -0.64453,-1.03516 l -1.16211,-1.93359 q -0.625,-1.06446 -1.12304,-1.6211 -0.48829,-0.55664 -0.9961,-0.76172 -0.50781,-0.20507 -1.27929,-0.20507 z m 1.66015,-6.01563 h -2.67578 v 3.93555 h 2.59766 q 1.04492,0 1.75781,-0.17578 0.71289,-0.18555 1.08398,-0.61524 0.38086,-0.43945 0.38086,-1.20117 0,-0.5957 -0.30273,-1.04492 -0.30274,-0.45899 -0.83985,-0.6836 -0.50781,-0.21484 -2.00195,-0.21484 z"
         id="path6568" />
    </g>
    <g
       id="path6523">
      <path
         style="color:#000000;-inkscape-font-specification:'Arial Rounded MT Bold, ';fill:#000000;stroke-linecap:butt;-inkscape-stroke:none"
         d="m 201.32812,133.31445 c -1.13636,0 -2.16699,0.17977 -3.08203,0.54688 -0.91084,0.35924 -1.69715,0.88668 -2.33789,1.57617 -0.64052,0.68926 -1.12745,1.52304 -1.46289,2.48828 v 0.002 l -0.002,0.002 c -0.32868,0.9655 -0.49024,2.02089 -0.49024,3.16015 0,1.11251 0.15486,2.15603 0.46875,3.125 h 0.002 v 0.002 c 0.32176,0.97211 0.79853,1.81685 1.43164,2.51953 0.63542,0.70524 1.43105,1.25321 2.36719,1.63867 h 0.002 c 0.94137,0.3807 1.99841,0.56836 3.16211,0.56836 1.16916,0 2.22294,-0.18406 3.15234,-0.55859 0.92549,-0.37296 1.71801,-0.91783 2.35938,-1.62891 0.63841,-0.70781 1.11586,-1.54582 1.43164,-2.5 0.31522,-0.95251 0.4707,-2.00256 0.4707,-3.14649 0,-1.54684 -0.28426,-2.91533 -0.86328,-4.08789 v -0.002 c -0.58076,-1.18155 -1.4538,-2.10685 -2.58984,-2.74414 h 0.004 c -1.133,-0.64644 -2.48304,-0.96094 -4.02344,-0.96094 z m 0,0.82422 c 1.42837,0 2.62391,0.28902 3.61329,0.85352 h 0.002 l 0.002,0.002 c 0.9989,0.56036 1.74092,1.34633 2.25391,2.39063 0.51418,1.04061 0.77734,2.27736 0.77734,3.7246 0,1.06961 -0.14399,2.02933 -0.42773,2.88672 -0.28319,0.85571 -0.70419,1.58673 -1.26367,2.20703 -0.55655,0.61705 -1.23539,1.08781 -2.05469,1.41797 -0.81539,0.32859 -1.76032,0.49805 -2.84375,0.49805 -1.07588,0 -2.02407,-0.17237 -2.85352,-0.50781 -0.83347,-0.34361 -1.51557,-0.81854 -2.06445,-1.42774 -0.55085,-0.61138 -0.97154,-1.34778 -1.26172,-2.22265 -0.28506,-0.87997 -0.42969,-1.83516 -0.42969,-2.8711 0,-1.06125 0.15095,-2.02409 0.44727,-2.89453 0.30253,-0.86948 0.73225,-1.59808 1.28906,-2.19726 0.55656,-0.59891 1.22836,-1.05327 2.03516,-1.3711 h 0.002 l 0.002,-0.002 c 0.8033,-0.32253 1.72497,-0.48633 2.77539,-0.48633 z m 0,1.48047 c -0.63188,0 -1.22979,0.12136 -1.77929,0.36719 -0.54357,0.23943 -1.01883,0.59477 -1.41406,1.05469 l -0.002,0.002 v 0.002 c -0.3939,0.46684 -0.69691,1.04943 -0.91797,1.74024 v 0.002 0.002 c -0.21647,0.69134 -0.32226,1.45916 -0.32226,2.30078 0,0.84786 0.1045,1.625 0.32031,2.32813 h 0.002 v 0.002 c 0.22169,0.69969 0.53463,1.29818 0.94727,1.7832 l 0.002,0.004 0.004,0.002 c 0.41248,0.46937 0.89118,0.83017 1.42969,1.07032 l 0.002,0.002 c 0.54327,0.23904 1.13723,0.35742 1.76758,0.35742 0.81019,0 1.57154,-0.20739 2.25195,-0.61523 0.70179,-0.4167 1.25224,-1.0627 1.64453,-1.89453 v -0.002 c 0.40438,-0.84498 0.59766,-1.86004 0.59766,-3.03711 0,-1.09253 -0.17655,-2.05913 -0.54297,-2.89062 -0.36547,-0.82933 -0.90734,-1.48307 -1.61133,-1.91992 -0.69331,-0.44055 -1.49809,-0.66016 -2.37891,-0.66016 z m 0,0.82422 c 0.7468,0 1.38082,0.17752 1.9375,0.53125 h 0.002 l 0.002,0.002 c 0.55676,0.34439 0.9841,0.84938 1.29492,1.55469 0.31066,0.70496 0.47266,1.55477 0.47266,2.55859 0,1.08783 -0.17833,1.97941 -0.51563,2.6836 h -0.002 v 0.002 c -0.33676,0.7156 -0.77524,1.21426 -1.32226,1.53906 v 0.002 h -0.002 c -0.55614,0.33368 -1.1546,0.49804 -1.82812,0.49804 -0.52782,0 -1.00075,-0.0969 -1.4336,-0.28711 h -0.002 c -0.42204,-0.18845 -0.7998,-0.47128 -1.14062,-0.85742 l -0.002,-0.002 c -0.32798,-0.38609 -0.59257,-0.87993 -0.78711,-1.49219 -0.18783,-0.61198 -0.28515,-1.30619 -0.28515,-2.08594 0,-0.77224 0.0964,-1.4554 0.2832,-2.05273 v -0.002 c 0.19522,-0.60939 0.45152,-1.09114 0.75977,-1.45704 l 0.002,-0.002 c 0.32011,-0.3719 0.68953,-0.64605 1.12109,-0.83594 l 0.002,-0.002 c 0.44006,-0.19687 0.91639,-0.29492 1.44335,-0.29492 z"
         id="path6572" />
      <path
         style="color:#000000;-inkscape-font-specification:'Arial Rounded MT Bold, ';stroke-linecap:butt;-inkscape-stroke:none"
         d="m 201.32812,133.72588 q 2.22657,0 3.81836,0.9082 1.60157,0.89844 2.42188,2.56836 0.82031,1.66015 0.82031,3.90625 0,1.66015 -0.44922,3.01758 -0.44922,1.35742 -1.34765,2.35351 -0.89844,0.9961 -2.20703,1.52344 -1.3086,0.52734 -2.99805,0.52734 -1.67969,0 -3.00781,-0.53711 -1.32813,-0.54687 -2.2168,-1.5332 -0.88867,-0.98633 -1.34766,-2.37305 -0.44922,-1.38671 -0.44922,-2.99804 0,-1.65039 0.46875,-3.02735 0.47852,-1.37695 1.37696,-2.34375 0.89843,-0.96679 2.1875,-1.47461 1.28906,-0.51757 2.92968,-0.51757 z m 4.1211,7.36328 q 0,-1.57227 -0.50781,-2.72461 -0.50782,-1.15235 -1.45508,-1.73828 -0.9375,-0.59571 -2.15821,-0.59571 -0.86914,0 -1.61132,0.33203 -0.73243,0.32227 -1.26953,0.94727 -0.52735,0.625 -0.83985,1.60156 -0.30273,0.9668 -0.30273,2.17774 0,1.2207 0.30273,2.20703 0.3125,0.98633 0.86914,1.64062 0.56641,0.64453 1.28906,0.9668 0.73243,0.32227 1.60157,0.32227 1.11328,0 2.04101,-0.55664 0.9375,-0.55665 1.48438,-1.71875 0.55664,-1.16211 0.55664,-2.86133 z"
         id="path6574" />
    </g>
    <g
       id="path6525">
      <path
         style="color:#000000;-inkscape-font-specification:'Arial Rounded MT Bold, ';fill:#000000;stroke-linecap:butt;-inkscape-stroke:none"
         d="m 212.58789,133.55859 c -0.45085,0 -0.8479,0.0657 -1.1875,0.22266 -0.34369,0.15543 -0.61734,0.43208 -0.77734,0.77734 -0.15913,0.33665 -0.22461,0.73347 -0.22461,1.18946 v 11.01562 c 0,0.65432 0.14777,1.21031 0.50781,1.60547 l 0.002,0.002 0.002,0.002 c 0.34687,0.37166 0.83215,0.57031 1.35546,0.57031 0.51614,0 0.99499,-0.19661 1.33594,-0.5625 0.36811,-0.39528 0.52149,-0.95627 0.52149,-1.61719 v -4.30469 h 4.36328 c 0.49768,0 0.93774,-0.11235 1.25976,-0.39648 0.3082,-0.27194 0.47071,-0.67603 0.47071,-1.09961 0,-0.42049 -0.16294,-0.82188 -0.4668,-1.09375 -0.31756,-0.29636 -0.76,-0.41211 -1.26367,-0.41211 h -4.36328 v -2.83789 h 5.30078 c 0.52219,0 0.97588,-0.11214 1.30273,-0.41016 v -0.002 c 0.30988,-0.28332 0.47656,-0.69208 0.47656,-1.12305 10e-6,-0.4241 -0.16974,-0.82743 -0.47851,-1.10351 -0.32521,-0.30245 -0.77971,-0.42188 -1.30078,-0.42188 z m 0,0.82422 h 6.83594 c 0.40035,0 0.62505,0.089 0.74219,0.19922 l 0.006,0.004 0.004,0.006 c 0.14392,0.12747 0.20313,0.25439 0.20313,0.49218 0,0.24611 -0.0612,0.38228 -0.20704,0.51563 -0.11585,0.10563 -0.34576,0.19531 -0.74804,0.19531 h -6.125 v 4.48633 h 5.1875 c 0.3801,0 0.59315,0.0843 0.70508,0.18945 l 0.004,0.006 0.004,0.004 c 0.13451,0.11869 0.19336,0.24194 0.19336,0.48242 0,0.24049 -0.0589,0.36178 -0.19336,0.48047 -0.1207,0.10649 -0.33819,0.19141 -0.71289,0.19141 h -5.1875 v 5.1289 c 0,0.53626 -0.12094,0.86604 -0.29883,1.05664 -0.1929,0.20702 -0.40415,0.29883 -0.73438,0.29883 -0.33426,0 -0.55089,-0.0948 -0.75,-0.30664 -0.17332,-0.19092 -0.29296,-0.51917 -0.29296,-1.04883 v -11.01562 c 0,-0.3759 0.0593,-0.65635 0.14648,-0.83985 v -0.002 -0.002 c 0.087,-0.18774 0.19711,-0.29388 0.37305,-0.37305 h 0.002 l 0.002,-0.002 c 0.1939,-0.0899 0.47306,-0.14649 0.8418,-0.14649 z"
         id="path6578" />
      <path
         style="color:#000000;-inkscape-font-specification:'Arial Rounded MT Bold, ';stroke-linecap:butt;-inkscape-stroke:none"
         d="m 219.42383,136.20634 h -5.71289 v 3.66211 h 4.77539 q 0.66406,0 0.98633,0.30274 0.33203,0.29297 0.33203,0.79101 0,0.49805 -0.33203,0.79102 -0.33204,0.29297 -0.98633,0.29297 h -4.77539 v 4.7168 q 0,0.89843 -0.41016,1.33789 -0.40039,0.42968 -1.03516,0.42968 -0.64453,0 -1.05468,-0.43945 -0.40039,-0.43945 -0.40039,-1.32812 v -11.01563 q 0,-0.625 0.18554,-1.01562 0.18555,-0.4004 0.57618,-0.57618 0.40039,-0.18554 1.01562,-0.18554 h 6.83594 q 0.69336,0 1.02539,0.3125 0.3418,0.30273 0.3418,0.80078 0,0.50781 -0.3418,0.82031 -0.33203,0.30273 -1.02539,0.30273 z"
         id="path6580" />
    </g>
    <g
       id="path6527">
      <path
         style="color:#000000;-inkscape-font-specification:'Arial Rounded MT Bold, ';fill:#000000;stroke-linecap:butt;-inkscape-stroke:none"
         d="m 118.31055,158.55859 c -0.53734,0 -1.00871,0.12322 -1.35938,0.41993 l -0.002,0.002 h -0.002 c -0.33606,0.29184 -0.51368,0.72876 -0.51368,1.1914 0,0.45046 0.17177,0.87564 0.49414,1.17188 l 0.002,0.002 0.004,0.002 c 0.34546,0.3081 0.82254,0.42773 1.37696,0.42773 h 2.75195 v 9.98828 c 0,0.65432 0.14778,1.21031 0.50781,1.60547 l 0.002,0.002 0.002,0.002 c 0.34688,0.37165 0.83215,0.57031 1.35547,0.57031 0.51613,0 0.99498,-0.19661 1.33594,-0.5625 h 0.002 l 0.002,-0.002 c 0.36106,-0.39629 0.50781,-0.95509 0.50781,-1.61524 v -9.98828 h 2.75196 c 0.55441,0 1.03275,-0.11984 1.38281,-0.42383 l 0.002,-0.002 0.004,-0.002 c 0.32966,-0.29496 0.50781,-0.72284 0.50781,-1.17579 0,-0.4514 -0.17834,-0.87897 -0.50586,-1.17382 -0.34563,-0.31679 -0.8294,-0.43946 -1.39062,-0.43946 z m 0,0.82422 h 9.21875 c 0.44066,0 0.69793,0.0976 0.83398,0.22266 l 0.002,0.002 0.002,0.002 c 0.16513,0.14775 0.23437,0.29931 0.23437,0.5625 0,0.26209 -0.0688,0.41144 -0.23242,0.5586 -0.14519,0.12478 -0.40682,0.2207 -0.83984,0.2207 h -3.57617 v 10.8125 c -1e-5,0.53684 -0.12065,0.86877 -0.29297,1.0586 -0.19204,0.20461 -0.40207,0.29687 -0.73047,0.29687 -0.33426,0 -0.55089,-0.0948 -0.75,-0.30664 -0.17333,-0.19092 -0.29297,-0.51917 -0.29297,-1.04883 v -10.8125 h -3.57617 c -0.433,0 -0.68933,-0.0961 -0.82617,-0.2168 -0.15798,-0.14591 -0.22657,-0.29791 -0.22657,-0.5625 0,-0.27755 0.0702,-0.42739 0.22657,-0.56445 0.15724,-0.1325 0.41389,-0.22461 0.82617,-0.22461 z"
         id="path6584" />
      <path
         style="color:#000000;-inkscape-font-specification:'Arial Rounded MT Bold, ';stroke-linecap:butt;-inkscape-stroke:none"
         d="m 127.5293,161.36259 h -3.16407 v 10.4004 q 0,0.89843 -0.40039,1.33789 -0.40039,0.42968 -1.03515,0.42968 -0.64453,0 -1.05469,-0.43945 -0.40039,-0.43945 -0.40039,-1.32812 v -10.4004 h -3.16406 q -0.74219,0 -1.10352,-0.32226 -0.36133,-0.33203 -0.36133,-0.86914 0,-0.55664 0.3711,-0.87891 0.38086,-0.32226 1.09375,-0.32226 h 9.21875 q 0.75195,0 1.11328,0.33203 0.37109,0.33203 0.37109,0.86914 0,0.53711 -0.37109,0.86914 -0.3711,0.32226 -1.11328,0.32226 z"
         id="path6586" />
    </g>
    <g
       id="path6529">
      <path
         style="color:#000000;-inkscape-font-specification:'Arial Rounded MT Bold, ';fill:#000000;stroke-linecap:butt;-inkscape-stroke:none"
         d="m 132.1875,158.31445 c -0.53358,0 -1.02585,0.19852 -1.36328,0.57813 l -0.002,0.002 v 0.002 c -0.34294,0.39569 -0.48243,0.94245 -0.48243,1.58789 v 11.2793 c 0,0.64697 0.14448,1.19779 0.49219,1.59766 l 0.002,0.002 v 0.002 c 0.3363,0.37834 0.82509,0.57813 1.35352,0.57813 0.52331,0 1.00858,-0.19866 1.35547,-0.57031 0.36795,-0.39424 0.52148,-0.95355 0.52148,-1.60938 v -4.40234 H 139.5 v 4.40234 c 0,0.64697 0.14448,1.19779 0.49219,1.59766 l 0.002,0.002 v 0.002 c 0.3363,0.37833 0.82509,0.57813 1.35352,0.57813 0.52331,0 1.00859,-0.19865 1.35546,-0.57031 0.36796,-0.39423 0.52149,-0.95355 0.52149,-1.60938 v -11.2793 c 0,-0.65342 -0.15306,-1.20878 -0.52149,-1.59765 -0.34201,-0.3734 -0.8286,-0.57227 -1.35546,-0.57227 -0.52332,0 -1.00857,0.19991 -1.34961,0.57422 l -0.002,0.002 -0.002,0.002 c -0.35102,0.39489 -0.49414,0.94482 -0.49414,1.59179 v 3.68946 h -5.43555 v -3.68946 c 0,-0.65342 -0.15306,-1.20878 -0.52148,-1.59765 -0.34202,-0.3734 -0.8286,-0.57227 -1.35547,-0.57227 z m 0,0.82422 c 0.34397,0 0.55832,0.0943 0.75,0.30469 l 0.004,0.004 0.002,0.002 c 0.17549,0.18385 0.29687,0.50609 0.29687,1.03515 v 4.51368 h 7.08399 v -4.51368 c 0,-0.52399 0.11778,-0.85178 0.28711,-1.04296 0.19196,-0.20919 0.40209,-0.30274 0.73633,-0.30274 0.34396,0 0.55831,0.0943 0.75,0.30469 l 0.004,0.004 0.002,0.002 c 0.17549,0.18385 0.29687,0.50609 0.29687,1.03515 v 11.2793 c 0,0.52907 -0.1199,0.85518 -0.29883,1.04688 -0.19999,0.21427 -0.41785,0.30859 -0.7539,0.30859 -0.34287,0 -0.55028,-0.0926 -0.73438,-0.29883 v -0.002 c -0.17263,-0.19921 -0.28906,-0.53069 -0.28906,-1.05469 v -5.22656 h -7.08399 v 5.22656 c 0,0.52907 -0.1199,0.85518 -0.29882,1.04688 -0.2,0.21427 -0.41785,0.30859 -0.75391,0.30859 -0.34287,0 -0.55028,-0.0926 -0.73438,-0.29883 v -0.002 c -0.17263,-0.19921 -0.28906,-0.53069 -0.28906,-1.05469 v -11.2793 c 0,-0.52435 0.1135,-0.85431 0.27735,-1.04492 7e-5,-9e-5 0.002,9e-5 0.002,0 0.18312,-0.20536 0.3931,-0.30078 0.74414,-0.30078 z"
         id="path6590" />
      <path
         style="color:#000000;-inkscape-font-specification:'Arial Rounded MT Bold, ';stroke-linecap:butt;-inkscape-stroke:none"
         d="m 133.65234,160.48369 v 4.10156 h 6.25977 v -4.10156 q 0,-0.87891 0.39062,-1.31836 0.40039,-0.43945 1.04493,-0.43945 0.65429,0 1.05468,0.43945 0.41016,0.42969 0.41016,1.31836 v 11.2793 q 0,0.88867 -0.41016,1.32812 -0.41015,0.43945 -1.05468,0.43945 -0.6543,0 -1.04493,-0.43945 -0.39062,-0.44922 -0.39062,-1.32812 v -4.81446 h -6.25977 v 4.81446 q 0,0.88867 -0.41015,1.32812 -0.41016,0.43945 -1.05469,0.43945 -0.6543,0 -1.04492,-0.43945 -0.39063,-0.44922 -0.39063,-1.32812 v -11.2793 q 0,-0.87891 0.38086,-1.31836 0.39063,-0.43945 1.05469,-0.43945 0.6543,0 1.05469,0.43945 0.41015,0.42969 0.41015,1.31836 z"
         id="path6592" />
    </g>
    <g
       id="path6531">
      <path
         style="color:#000000;-inkscape-font-specification:'Arial Rounded MT Bold, ';fill:#000000;stroke-linecap:butt;-inkscape-stroke:none"
         d="m 147.70508,158.55859 c -0.45086,0 -0.8479,0.0657 -1.1875,0.22266 -0.34369,0.15543 -0.61735,0.43208 -0.77735,0.77734 -0.15913,0.33665 -0.22461,0.73347 -0.22461,1.18946 v 10.76172 c 0,0.68507 0.14683,1.25495 0.52735,1.64453 l 0.002,0.002 0.002,0.002 c 0.38947,0.38947 0.96582,0.54102 1.65821,0.54102 h 7.88086 c 0.5185,0 0.97392,-0.12125 1.30273,-0.42188 h 0.002 c 0.31384,-0.28767 0.48438,-0.69919 0.48438,-1.13281 0,-0.44092 -0.17097,-0.85788 -0.48828,-1.14258 -0.32723,-0.30496 -0.78335,-0.43164 -1.30078,-0.43164 h -6.34571 v -3.24804 h 5.60352 c 0.51091,0 0.95807,-0.11609 1.27734,-0.41602 l 0.004,-0.002 0.002,-0.002 c 0.29183,-0.28298 0.44727,-0.67954 0.44727,-1.0957 0,-0.41583 -0.16462,-0.81364 -0.4668,-1.08398 -0.31756,-0.29636 -0.76,-0.41211 -1.26367,-0.41211 h -5.60352 v -2.69141 h 6.1211 c 0.52219,0 0.97588,-0.11214 1.30273,-0.41016 v -0.002 c 0.30988,-0.28332 0.47656,-0.69208 0.47656,-1.12305 0,-0.4241 -0.16974,-0.82743 -0.47851,-1.10351 -0.32521,-0.30245 -0.77971,-0.42188 -1.30078,-0.42188 z m 0,0.82422 h 7.65625 c 0.40035,0 0.62505,0.089 0.74219,0.19922 l 0.006,0.004 0.004,0.006 c 0.14392,0.12747 0.20313,0.25439 0.20313,0.49218 0,0.24611 -0.0612,0.38228 -0.20704,0.51563 -0.11585,0.10563 -0.34576,0.19531 -0.74804,0.19531 h -6.94531 v 4.33985 h 6.42773 c 0.3801,0 0.59315,0.0843 0.70508,0.18945 l 0.004,0.006 0.004,0.004 c 0.13621,0.12019 0.19336,0.24052 0.19336,0.47266 0,0.2338 -0.0588,0.36887 -0.19531,0.50195 -0.11099,0.10293 -0.32566,0.18946 -0.71094,0.18946 h -6.42773 v 4.89648 h 7.16992 c 0.39099,0 0.61406,0.0882 0.74218,0.20899 l 0.006,0.004 0.004,0.004 c 0.14837,0.13189 0.21289,0.27319 0.21289,0.5332 0,0.24348 -0.0638,0.38339 -0.21875,0.52539 -0.1271,0.11563 -0.3541,0.20508 -0.74609,0.20508 h -7.88086 c -0.56872,0 -0.90131,-0.13121 -1.07227,-0.30078 -0.16552,-0.17085 -0.29297,-0.50146 -0.29297,-1.06445 v -10.76172 c 0,-0.3759 0.0593,-0.65635 0.14649,-0.83985 v -0.002 -0.002 c 0.087,-0.18774 0.19712,-0.29388 0.37304,-0.37305 h 0.002 l 0.002,-0.002 c 0.19389,-0.0899 0.47305,-0.14649 0.8418,-0.14649 z"
         id="path6596" />
      <path
         style="color:#000000;-inkscape-font-specification:'Arial Rounded MT Bold, ';stroke-linecap:butt;-inkscape-stroke:none"
         d="m 155.36133,161.20634 h -6.53321 v 3.51563 h 6.01563 q 0.66406,0 0.98633,0.30273 0.33203,0.29297 0.33203,0.78125 0,0.48829 -0.32227,0.80079 -0.32226,0.30273 -0.99609,0.30273 h -6.01563 v 4.07227 h 6.75782 q 0.68359,0 1.02539,0.32226 0.35156,0.3125 0.35156,0.83984 0,0.50782 -0.35156,0.83008 -0.3418,0.3125 -1.02539,0.3125 h -7.88086 q -0.94727,0 -1.36719,-0.41992 -0.41016,-0.41992 -0.41016,-1.35742 v -10.76172 q 0,-0.625 0.18555,-1.01562 0.18555,-0.4004 0.57617,-0.57618 0.40039,-0.18554 1.01563,-0.18554 h 7.65625 q 0.69336,0 1.02539,0.3125 0.3418,0.30273 0.3418,0.80078 0,0.50781 -0.3418,0.82031 -0.33203,0.30273 -1.02539,0.30273 z"
         id="path6598" />
    </g>
    <g
       id="path6533">
      <path
         style="color:#000000;-inkscape-font-specification:'Arial Rounded MT Bold, ';fill:#000000;stroke-linecap:butt;-inkscape-stroke:none"
         d="m 166.02539,158.55859 c -0.68651,0 -1.2601,0.15268 -1.64844,0.54102 -0.38834,0.38834 -0.54101,0.96193 -0.54101,1.64844 v 11.01562 c 0,0.6396 0.13985,1.18455 0.47851,1.58399 0.33365,0.39353 0.83747,0.5957 1.38867,0.5957 0.52124,0 1.00362,-0.19538 1.34571,-0.5625 0.36561,-0.39237 0.51172,-0.95118 0.51172,-1.61719 v -4.1875 h 0.1914 0.41211 c 0.47783,0 0.85363,0.0642 1.125,0.17383 0.26105,0.10542 0.54447,0.31562 0.83985,0.65234 l 0.002,0.002 h 0.002 c 0.30212,0.33766 0.66587,0.85921 1.07422,1.55468 l 0.002,0.002 1.16211,1.93554 c 0.27522,0.4587 0.49122,0.80811 0.6543,1.05274 l 0.004,0.002 0.002,0.004 c 0.18868,0.2717 0.41744,0.50053 0.68164,0.67969 0.29817,0.20868 0.66349,0.30859 1.05273,0.30859 0.32621,0 0.63563,-0.0697 0.90821,-0.21289 0.26472,-0.13289 0.48912,-0.32651 0.64648,-0.57031 0.1582,-0.24146 0.25391,-0.51224 0.25391,-0.79102 0,-0.3375 -0.12987,-0.6595 -0.34375,-1.1543 -0.21316,-0.51569 -0.51075,-1.07631 -0.89063,-1.68945 -0.37655,-0.62473 -0.80746,-1.21491 -1.29101,-1.76562 -0.29814,-0.33955 -0.63342,-0.5393 -0.95703,-0.78516 0.90113,-0.28766 1.67871,-0.6646 2.20703,-1.22656 0.68445,-0.72126 1.02148,-1.69622 1.02148,-2.8418 0,-0.56613 -0.10108,-1.10993 -0.30078,-1.61914 v -0.002 c -0.19501,-0.51938 -0.48682,-0.98152 -0.87109,-1.37305 -0.38016,-0.38733 -0.82428,-0.68895 -1.32032,-0.89844 -0.41393,-0.18806 -0.8719,-0.30922 -1.36914,-0.36523 -0.48511,-0.0612 -1.05564,-0.0898 -1.71679,-0.0898 z m 0,0.82422 h 4.7168 c 0.63868,0 1.17889,0.0284 1.61718,0.084 h 0.004 0.002 c 0.42508,0.0479 0.79817,0.14973 1.125,0.29882 l 0.006,0.002 0.006,0.002 c 0.39975,0.16801 0.74837,0.40466 1.05664,0.71875 0.30543,0.3112 0.53485,0.67042 0.69141,1.08789 v 0.002 l 0.002,0.004 c 0.16292,0.41312 0.24414,0.85145 0.24414,1.32422 0,0.98984 -0.26844,1.71865 -0.79492,2.27344 v 0.002 h -0.002 c -0.52274,0.55683 -1.35062,0.98293 -2.52149,1.23828 l -1.09765,0.23828 0.99219,0.52735 c 0.462,0.24562 0.91495,0.61522 1.35742,1.11914 0.45274,0.51562 0.8551,1.06397 1.20703,1.64843 l 0.002,0.004 0.002,0.002 c 0.36231,0.58478 0.63764,1.10946 0.82813,1.57032 l 0.002,0.004 v 0.002 c 0.20082,0.4644 0.2793,0.80864 0.2793,0.83398 0,0.0988 -0.028,0.2037 -0.11719,0.33984 l -0.002,0.002 v 0.002 c -0.0764,0.11891 -0.17618,0.20821 -0.32617,0.2832 l -0.006,0.002 -0.004,0.002 c -0.14238,0.0756 -0.31144,0.11914 -0.5293,0.11914 -0.2596,0 -0.4384,-0.0588 -0.58203,-0.16016 l -0.004,-0.002 -0.004,-0.002 c -0.17496,-0.11836 -0.32805,-0.27071 -0.46289,-0.46289 l -0.004,-0.006 c -5.6e-4,-8.2e-4 -0.001,-0.001 -0.002,-0.002 -0.14922,-0.2242 -0.35945,-0.56262 -0.62891,-1.01171 l -1.16015,-1.92969 -0.002,-0.004 c -0.4228,-0.71967 -0.80568,-1.27627 -1.16602,-1.67969 l -0.002,-0.002 c -0.35509,-0.40429 -0.73515,-0.7034 -1.15039,-0.87109 -0.28913,-0.11676 -0.65903,-0.13755 -1.02149,-0.16797 v -0.0664 h -0.41211 -1.42773 v 5.01172 c 0,0.54493 -0.12083,0.87609 -0.28906,1.05664 -0.19177,0.20579 -0.406,0.29883 -0.74415,0.29883 -0.37326,0 -0.5856,-0.0993 -0.75976,-0.30469 -0.16915,-0.19951 -0.2832,-0.53153 -0.2832,-1.05078 v -11.01562 c 0,-0.56349 0.12727,-0.89486 0.29882,-1.06641 0.17156,-0.17155 0.50292,-0.29883 1.06641,-0.29883 z m 0.71094,1.35352 v 4.75976 h 3.00976 c 0.71972,0 1.33479,-0.0611 1.85547,-0.18945 h 0.004 0.002 c 0.53281,-0.13868 0.97756,-0.3818 1.29102,-0.74414 0.33106,-0.38199 0.48242,-0.89423 0.48242,-1.4707 0,-0.46541 -0.12372,-0.90277 -0.37109,-1.27149 -2.9e-4,-4.2e-4 -0.002,4.3e-4 -0.002,0 -0.24615,-0.37263 -0.59781,-0.6604 -1.02148,-0.83789 h -0.002 c -0.47201,-0.19927 -1.14522,-0.24609 -2.16015,-0.24609 z m 0.82422,0.82422 h 2.26367 c 0.97635,0 1.63679,0.0949 1.8418,0.18164 h 0.002 c 0.29134,0.12183 0.49712,0.29295 0.6543,0.53125 l 0.002,0.002 v 0.002 c 0.15466,0.2295 0.23242,0.48711 0.23242,0.81446 0,0.43915 -0.10254,0.7277 -0.2793,0.93164 h -0.002 c -0.18017,0.20862 -0.45625,0.37576 -0.86914,0.48437 -5e-4,1.3e-4 -0.001,-1.2e-4 -0.002,0 -0.42963,0.10575 -0.98547,0.16407 -1.65821,0.16406 h -2.18554 z"
         id="path6602" />
      <path
         style="color:#000000;-inkscape-font-specification:'Arial Rounded MT Bold, ';stroke-linecap:butt;-inkscape-stroke:none"
         d="m 168.16406,167.16338 h -1.01562 v 4.59961 q 0,0.9082 -0.40039,1.33789 -0.40039,0.42968 -1.04493,0.42968 -0.69335,0 -1.07421,-0.44922 -0.38086,-0.44921 -0.38086,-1.31835 v -11.01563 q 0,-0.9375 0.41992,-1.35742 0.41992,-0.41992 1.35742,-0.41992 h 4.7168 q 0.97656,0 1.66992,0.0879 0.69336,0.0781 1.25,0.33203 0.67383,0.2832 1.19141,0.81055 0.51757,0.52734 0.78125,1.23046 0.27343,0.69336 0.27343,1.47461 0,1.60157 -0.9082,2.5586 -0.89844,0.95703 -2.73438,1.35742 0.77149,0.41016 1.47461,1.21094 0.70313,0.80078 1.25,1.70898 0.55664,0.89844 0.85938,1.63086 0.3125,0.72266 0.3125,0.99609 0,0.28321 -0.18555,0.56641 -0.17578,0.27344 -0.48828,0.42969 -0.3125,0.16601 -0.72266,0.16601 -0.48828,0 -0.82031,-0.23437 -0.33203,-0.22461 -0.57617,-0.57617 -0.23437,-0.35157 -0.64453,-1.03516 l -1.16211,-1.93359 q -0.625,-1.06446 -1.12305,-1.6211 -0.48828,-0.55664 -0.99609,-0.76172 -0.50781,-0.20507 -1.2793,-0.20507 z m 1.66016,-6.01563 h -2.67578 v 3.93555 h 2.59765 q 1.04493,0 1.75782,-0.17578 0.71289,-0.18555 1.08398,-0.61524 0.38086,-0.43945 0.38086,-1.20117 0,-0.5957 -0.30273,-1.04492 -0.30274,-0.45899 -0.83985,-0.6836 -0.50781,-0.21484 -2.00195,-0.21484 z"
         id="path6604" />
    </g>
    <g
       id="path6535">
      <path
         style="color:#000000;-inkscape-font-specification:'Arial Rounded MT Bold, ';fill:#000000;stroke-linecap:butt;-inkscape-stroke:none"
         d="m 180.42969,158.55859 c -0.45086,0 -0.8479,0.0657 -1.1875,0.22266 -0.34369,0.15543 -0.61735,0.43208 -0.77735,0.77734 -0.15913,0.33665 -0.22461,0.73347 -0.22461,1.18946 v 10.76172 c 0,0.68507 0.14683,1.25495 0.52735,1.64453 l 0.002,0.002 0.002,0.002 c 0.38947,0.38947 0.96582,0.54102 1.65821,0.54102 h 7.88086 c 0.5185,0 0.97392,-0.12125 1.30273,-0.42188 h 0.002 c 0.31383,-0.28767 0.48438,-0.69919 0.48438,-1.13281 0,-0.44092 -0.17097,-0.85788 -0.48828,-1.14258 -0.32723,-0.30496 -0.78335,-0.43164 -1.30078,-0.43164 h -6.34571 v -3.24804 h 5.60352 c 0.51091,0 0.95807,-0.11609 1.27734,-0.41602 l 0.004,-0.002 0.002,-0.002 c 0.29183,-0.28298 0.44727,-0.67954 0.44727,-1.0957 0,-0.41583 -0.16462,-0.81364 -0.4668,-1.08398 -0.31756,-0.29636 -0.76,-0.41211 -1.26367,-0.41211 h -5.60352 v -2.69141 h 6.1211 c 0.52219,0 0.97588,-0.11214 1.30273,-0.41016 v -0.002 c 0.30988,-0.28332 0.47656,-0.69208 0.47656,-1.12305 0,-0.4241 -0.16974,-0.82743 -0.47851,-1.10351 -0.32521,-0.30245 -0.77971,-0.42188 -1.30078,-0.42188 z m 0,0.82422 h 7.65625 c 0.40035,0 0.62505,0.089 0.74218,0.19922 l 0.006,0.004 0.004,0.006 c 0.14392,0.12747 0.20313,0.25439 0.20313,0.49218 0,0.24612 -0.0612,0.38228 -0.20704,0.51563 -0.11585,0.10563 -0.34576,0.19531 -0.74804,0.19531 h -6.94532 v 4.33985 h 6.42774 c 0.3801,0 0.59315,0.0843 0.70508,0.18945 l 0.004,0.006 0.004,0.004 c 0.13621,0.12019 0.19336,0.24052 0.19336,0.47266 0,0.2338 -0.0588,0.36887 -0.19531,0.50195 -0.11099,0.10293 -0.32566,0.18946 -0.71094,0.18946 h -6.42774 v 4.89648 h 7.16993 c 0.39099,0 0.61406,0.0882 0.74218,0.20899 l 0.006,0.004 0.004,0.004 c 0.14837,0.13189 0.21289,0.27319 0.21289,0.5332 0,0.24348 -0.0638,0.38339 -0.21875,0.52539 -0.1271,0.11563 -0.3541,0.20508 -0.74609,0.20508 h -7.88086 c -0.56872,0 -0.90131,-0.13121 -1.07227,-0.30078 -0.16552,-0.17085 -0.29297,-0.50146 -0.29297,-1.06445 v -10.76172 c 0,-0.3759 0.0593,-0.65635 0.14649,-0.83985 v -0.002 -0.002 c 0.087,-0.18774 0.19712,-0.29388 0.37304,-0.37305 h 0.002 l 0.002,-0.002 c 0.19389,-0.0899 0.47305,-0.14649 0.8418,-0.14649 z"
         id="path6608" />
      <path
         style="color:#000000;-inkscape-font-specification:'Arial Rounded MT Bold, ';stroke-linecap:butt;-inkscape-stroke:none"
         d="m 188.08594,161.20634 h -6.53321 v 3.51563 h 6.01563 q 0.66406,0 0.98633,0.30273 0.33203,0.29297 0.33203,0.78125 0,0.48829 -0.32227,0.80079 -0.32226,0.30273 -0.99609,0.30273 h -6.01563 v 4.07227 h 6.75782 q 0.68359,0 1.02539,0.32226 0.35156,0.3125 0.35156,0.83984 0,0.50782 -0.35156,0.83008 -0.3418,0.3125 -1.02539,0.3125 h -7.88086 q -0.94727,0 -1.36719,-0.41992 -0.41016,-0.41992 -0.41016,-1.35742 v -10.76172 q 0,-0.625 0.18555,-1.01562 0.18555,-0.4004 0.57617,-0.57618 0.40039,-0.18554 1.01563,-0.18554 h 7.65625 q 0.69336,0 1.02539,0.3125 0.34179,0.30273 0.34179,0.80078 0,0.50781 -0.34179,0.82031 -0.33203,0.30273 -1.02539,0.30273 z"
         id="path6610" />
    </g>
    <g
       id="path6537">
      <path
         style="color:#000000;-inkscape-font-specification:'Arial Rounded MT Bold, ';fill:#000000;stroke-linecap:butt;-inkscape-stroke:none"
         d="m 193.82812,158.55859 c -0.69687,0 -1.27571,0.14432 -1.67773,0.51953 -0.40981,0.3825 -0.57031,0.96885 -0.57031,1.66993 v 11.03515 c 0,0.6369 0.15211,1.18514 0.50586,1.58203 v 0.002 l 0.002,0.002 c 0.34217,0.37555 0.83095,0.57422 1.35938,0.57422 0.51536,0 0.99615,-0.20756 1.33984,-0.58399 0.36265,-0.39717 0.51758,-0.95147 0.51758,-1.5957 v -3.64062 h 2.24414 c 1.83518,0 3.27627,-0.38452 4.27734,-1.21875 v -0.002 h 0.002 c 0.99843,-0.83925 1.49415,-2.09183 1.49415,-3.63476 0,-0.72806 -0.11757,-1.39779 -0.36133,-2 -0.24342,-0.60137 -0.60954,-1.12179 -1.08594,-1.54102 -0.47063,-0.41995 -1.03518,-0.72037 -1.67383,-0.89844 -0.65722,-0.18777 -1.53096,-0.26953 -2.65234,-0.26953 z m 0,0.82422 h 3.72071 c 1.07913,0 1.89811,0.0856 2.42578,0.23633 l 0.002,0.002 h 0.002 c 0.53142,0.14762 0.97497,0.38641 1.3496,0.72071 v 0.002 h 0.002 c 0.38196,0.33566 0.66629,0.74092 0.86523,1.23242 0.19896,0.49154 0.30274,1.05228 0.30274,1.69141 0,1.37373 -0.40272,2.33274 -1.20118,3.0039 -0.79584,0.66253 -2.02943,1.02735 -3.74804,1.02735 h -3.06836 v 4.46484 c 0,0.51462 -0.1185,0.83729 -0.30274,1.03906 -0.20317,0.22254 -0.4125,0.31641 -0.73046,0.31641 -0.34289,0 -0.55683,-0.0937 -0.74805,-0.30273 v -0.002 c -0.17957,-0.20214 -0.29492,-0.5232 -0.29492,-1.03125 v -11.03515 c 0,-0.57497 0.13247,-0.90202 0.30859,-1.06641 0.18391,-0.17165 0.53607,-0.29883 1.11523,-0.29883 z m 0.65235,1.35352 v 5.19922 h 2.36523 c 0.71162,0 1.31848,-0.0738 1.83008,-0.23438 0.5272,-0.16336 0.96698,-0.44798 1.26563,-0.85156 0.30416,-0.41103 0.4414,-0.93337 0.4414,-1.52344 0,-0.71221 -0.2225,-1.34749 -0.66797,-1.82422 l -0.004,-0.004 -0.004,-0.004 c -0.56643,-0.57529 -1.5209,-0.75781 -2.86133,-0.75781 z m 0.82422,0.82422 h 1.54101 c 1.24743,0 2.00076,0.23957 2.26953,0.50976 0.294,0.31678 0.44336,0.70759 0.44336,1.25586 0,0.46461 -0.10364,0.79319 -0.28125,1.0332 -0.18311,0.24746 -0.44646,0.43159 -0.84375,0.55469 h -0.002 c -0.39953,0.12556 -0.93112,0.19727 -1.58594,0.19727 h -1.54101 z"
         id="path6614" />
      <path
         style="color:#000000;-inkscape-font-specification:'Arial Rounded MT Bold, ';stroke-linecap:butt;-inkscape-stroke:none"
         d="m 197.54883,167.71025 h -2.65625 v 4.05274 q 0,0.86914 -0.41016,1.31835 -0.41015,0.44922 -1.03515,0.44922 -0.6543,0 -1.05469,-0.43945 -0.40039,-0.44922 -0.40039,-1.30859 v -11.03516 q 0,-0.95703 0.43945,-1.36719 0.43945,-0.41015 1.39648,-0.41015 h 3.72071 q 1.65039,0 2.53906,0.2539 0.87891,0.24414 1.51367,0.81055 0.64453,0.56641 0.97656,1.38672 0.33204,0.82031 0.33204,1.8457 0,2.1875 -1.34766,3.32031 -1.34766,1.12305 -4.01367,1.12305 z m -0.70313,-6.5625 h -1.95312 v 4.375 h 1.95312 q 1.02539,0 1.70899,-0.21484 0.69336,-0.21485 1.05468,-0.70313 0.36133,-0.48828 0.36133,-1.27929 0,-0.94727 -0.55664,-1.54297 -0.625,-0.63477 -2.56836,-0.63477 z"
         id="path6616" />
    </g>
    <g
       id="path6539">
      <path
         style="color:#000000;-inkscape-font-specification:'Arial Rounded MT Bold, ';fill:#000000;stroke-linecap:butt;-inkscape-stroke:none"
         d="m 207.10937,158.55859 c -0.45085,0 -0.84789,0.0657 -1.1875,0.22266 -0.34369,0.15543 -0.61735,0.43208 -0.77734,0.77734 -0.15913,0.33665 -0.22461,0.73347 -0.22461,1.18946 v 10.76172 c 0,0.68507 0.14682,1.25495 0.52735,1.64453 l 0.002,0.002 0.002,0.002 c 0.38947,0.38947 0.96582,0.54102 1.6582,0.54102 h 7.88086 c 0.51851,0 0.97393,-0.12125 1.30274,-0.42188 h 0.002 c 0.31384,-0.28767 0.48438,-0.69919 0.48438,-1.13281 0,-0.44093 -0.17096,-0.85788 -0.48828,-1.14258 -0.32723,-0.30496 -0.78335,-0.43164 -1.30079,-0.43164 h -6.3457 v -3.24804 h 5.60352 c 0.51091,0 0.95806,-0.1161 1.27734,-0.41602 l 0.004,-0.002 0.002,-0.002 c 0.29183,-0.28298 0.44727,-0.67954 0.44727,-1.0957 0,-0.41583 -0.16461,-0.81364 -0.4668,-1.08398 -0.31756,-0.29636 -0.76,-0.41211 -1.26367,-0.41211 h -5.60352 v -2.69141 h 6.12109 c 0.5222,0 0.97588,-0.11215 1.30274,-0.41016 v -0.002 c 0.30987,-0.28332 0.47656,-0.69208 0.47656,-1.12305 0,-0.4241 -0.16975,-0.82743 -0.47851,-1.10351 -0.32521,-0.30244 -0.77971,-0.42188 -1.30079,-0.42188 z m 0,0.82422 h 7.65625 c 0.40035,0 0.62505,0.089 0.74219,0.19922 l 0.006,0.004 0.004,0.006 c 0.14392,0.12747 0.20312,0.25439 0.20312,0.49218 0,0.24612 -0.0612,0.38228 -0.20703,0.51563 -0.11586,0.10563 -0.34576,0.19531 -0.74805,0.19531 h -6.94531 v 4.33985 h 6.42774 c 0.3801,0 0.59316,0.0843 0.70507,0.18945 l 0.004,0.006 0.004,0.004 c 0.13622,0.1202 0.19336,0.24052 0.19336,0.47266 0,0.2338 -0.0588,0.36887 -0.19532,0.50195 -0.11099,0.10293 -0.32566,0.18946 -0.71093,0.18946 h -6.42774 v 4.89648 h 7.16992 c 0.391,0 0.61408,0.0882 0.74219,0.20899 l 0.006,0.004 0.004,0.004 c 0.14838,0.13189 0.21289,0.27319 0.21289,0.5332 0,0.24348 -0.0638,0.38339 -0.21875,0.52539 -0.1271,0.11563 -0.35409,0.20508 -0.7461,0.20508 h -7.88086 c -0.5687,0 -0.90131,-0.13121 -1.07226,-0.30078 -0.16552,-0.17085 -0.29297,-0.50146 -0.29297,-1.06445 v -10.76172 c 0,-0.3759 0.0593,-0.65635 0.14648,-0.83985 v -0.002 -0.002 c 0.087,-0.18773 0.19712,-0.29388 0.37305,-0.37305 h 0.002 l 0.002,-0.002 c 0.19389,-0.0899 0.47306,-0.14649 0.84179,-0.14649 z"
         id="path6620" />
      <path
         style="color:#000000;-inkscape-font-specification:'Arial Rounded MT Bold, ';stroke-linecap:butt;-inkscape-stroke:none"
         d="m 214.76562,161.20634 h -6.5332 v 3.51563 h 6.01563 q 0.66406,0 0.98632,0.30273 0.33204,0.29297 0.33204,0.78125 0,0.48829 -0.32227,0.80079 -0.32227,0.30273 -0.99609,0.30273 h -6.01563 v 4.07227 h 6.75781 q 0.6836,0 1.02539,0.32226 0.35157,0.3125 0.35157,0.83984 0,0.50782 -0.35157,0.83008 -0.34179,0.3125 -1.02539,0.3125 h -7.88086 q -0.94726,0 -1.36718,-0.41992 -0.41016,-0.41992 -0.41016,-1.35742 v -10.76172 q 0,-0.625 0.18555,-1.01562 0.18554,-0.4004 0.57617,-0.57618 0.40039,-0.18554 1.01562,-0.18554 h 7.65625 q 0.69336,0 1.0254,0.3125 0.34179,0.30273 0.34179,0.80078 0,0.50781 -0.34179,0.82031 -0.33204,0.30273 -1.0254,0.30273 z"
         id="path6622" />
    </g>
    <g
       id="path6541">
      <path
         style="color:#000000;-inkscape-font-specification:'Arial Rounded MT Bold, ';fill:#000000;stroke-linecap:butt;-inkscape-stroke:none"
         d="m 224.22852,158.31445 c -0.44963,0 -0.85977,0.0897 -1.20704,0.28711 -0.31895,0.17893 -0.58858,0.42395 -0.79296,0.72266 l -0.002,0.002 -0.002,0.004 c -0.18377,0.27933 -0.35058,0.61523 -0.50781,1.01172 v 0.002 l -0.002,0.002 c -0.14309,0.37075 -0.26523,0.68881 -0.36914,0.95508 l -3.66211,9.29492 c -0.15151,0.37565 -0.26099,0.67123 -0.33203,0.89844 -0.0761,0.24333 -0.11719,0.48741 -0.11719,0.72852 10e-6,0.45209 0.20397,0.87812 0.54688,1.20507 0.34459,0.32857 0.78683,0.51563 1.25195,0.51563 0.50875,0 0.97562,-0.166 1.25586,-0.5332 v -0.002 l 0.002,-0.002 c 0.24399,-0.32813 0.46777,-0.82759 0.74023,-1.55859 l 0.58398,-1.56641 h 5.25 l 0.58594,1.54102 c 9.5e-4,0.002 0.003,0.005 0.004,0.008 l 0.0937,0.24804 h 0.01 c 0.0686,0.16493 0.1337,0.32273 0.2168,0.51954 l 0.002,0.004 0.002,0.006 c 0.1377,0.30294 0.26602,0.54004 0.41015,0.72656 l 0.004,0.004 0.002,0.002 c 0.14719,0.18182 0.33509,0.32885 0.54688,0.43164 0.23127,0.11896 0.49281,0.17188 0.76953,0.17188 0.48675,0 0.94432,-0.18846 1.28711,-0.53125 0.33753,-0.33753 0.54101,-0.76117 0.54101,-1.20899 0,-0.44512 -0.16923,-0.96786 -0.4707,-1.6914 l -3.73828,-9.23633 0.002,0.01 c -0.17546,-0.46138 -0.32107,-0.82815 -0.4414,-1.10938 -0.12114,-0.30641 -0.27503,-0.59361 -0.46094,-0.85937 -0.19948,-0.29523 -0.47227,-0.53525 -0.79492,-0.71289 -0.34369,-0.19923 -0.75318,-0.28907 -1.20703,-0.28907 z m 0,0.82422 c 0.35048,0 0.60808,0.0672 0.79687,0.17774 l 0.006,0.002 0.006,0.004 c 0.22201,0.12157 0.38475,0.27005 0.50976,0.45507 l 0.002,0.002 0.002,0.004 c 0.15039,0.21402 0.27588,0.44458 0.375,0.69532 l 0.002,0.006 0.002,0.006 c 0.11345,0.26473 0.25902,0.62886 0.43359,1.08789 l 0.002,0.004 3.74219,9.24414 v 0.002 c 0.28446,0.68271 0.4082,1.1821 0.4082,1.375 0,0.21626 -0.0765,0.4046 -0.29882,0.62696 -0.20408,0.20407 -0.41058,0.28906 -0.70508,0.28906 -0.17686,0 -0.30354,-0.0317 -0.39649,-0.0801 l -0.006,-0.004 -0.006,-0.004 c -0.11019,-0.0529 -0.19334,-0.11833 -0.26563,-0.20703 -0.0771,-0.10085 -0.18721,-0.29155 -0.30859,-0.5586 -0.11923,-0.28244 -0.22418,-0.5317 -0.3125,-0.74609 l -0.004,-0.0117 -0.006,-0.0156 -0.77539,-2.03516 h -6.39062 l -0.78321,2.10352 c -0.26062,0.69924 -0.4912,1.16874 -0.625,1.34961 -0.0974,0.12757 -0.24898,0.20898 -0.59961,0.20898 -0.26404,0 -0.46633,-0.0818 -0.68164,-0.28711 -0.217,-0.2069 -0.29297,-0.38439 -0.29297,-0.60937 0,-0.14952 0.0239,-0.30909 0.0781,-0.48243 0.0591,-0.18902 0.16504,-0.47238 0.3125,-0.83789 v -0.002 l 3.66211,-9.29883 0.002,-0.002 c 0.10417,-0.26693 0.22623,-0.58481 0.36914,-0.95508 l 0.002,-0.002 c 0.14086,-0.35476 0.28344,-0.63915 0.42383,-0.85352 l 0.002,-0.002 c 0.13388,-0.19495 0.29962,-0.34672 0.51367,-0.4668 l 0.002,-0.002 h 0.002 c 0.19884,-0.11362 0.45767,-0.17969 0.80079,-0.17969 z m -0.0234,1.4336 -2.70117,7.53125 h 0.58593 4.86719 z m 0.008,2.42187 1.56641,4.28516 h -3.10352 z"
         id="path6626" />
      <path
         style="color:#000000;-inkscape-font-specification:'Arial Rounded MT Bold, ';stroke-linecap:butt;-inkscape-stroke:none"
         d="m 227.83203,171.66533 -0.68359,-1.79688 h -5.82032 l -0.68359,1.83594 q -0.40039,1.07422 -0.68359,1.45508 -0.28321,0.37109 -0.92774,0.37109 -0.54687,0 -0.96679,-0.40039 -0.41993,-0.40039 -0.41993,-0.9082 0,-0.29297 0.0977,-0.60547 0.0977,-0.3125 0.32227,-0.86914 l 3.66211,-9.29687 q 0.15625,-0.4004 0.37109,-0.95704 0.22461,-0.5664 0.46875,-0.9375 0.25391,-0.37109 0.6543,-0.5957 0.41015,-0.23437 1.00586,-0.23437 0.60546,0 1.00585,0.23437 0.41016,0.22461 0.6543,0.58594 0.25391,0.36133 0.41992,0.78125 0.17578,0.41015 0.43946,1.10351 l 3.74023,9.23829 q 0.43945,1.05468 0.43945,1.5332 0,0.49805 -0.41992,0.91797 -0.41015,0.41015 -0.99609,0.41015 -0.3418,0 -0.58594,-0.12695 -0.24414,-0.11719 -0.41016,-0.32227 -0.16601,-0.21484 -0.36132,-0.64453 -0.18555,-0.43945 -0.32227,-0.77148 z m -5.74219,-3.97461 h 4.27735 l -2.15821,-5.9082 z"
         id="path6628" />
    </g>
    <g
       id="path6543">
      <path
         style="color:#000000;-inkscape-font-specification:'Arial Rounded MT Bold, ';fill:#000000;stroke-linecap:butt;-inkscape-stroke:none"
         d="m 234.43359,158.31445 c -0.52331,0 -1.00856,0.19991 -1.34961,0.57422 l -0.002,0.002 -0.002,0.002 c -0.35102,0.39489 -0.49414,0.94482 -0.49414,1.59179 v 11.0254 c 0,0.68507 0.14683,1.25495 0.52734,1.64453 l 0.002,0.002 0.002,0.002 c 0.38947,0.38947 0.96581,0.54102 1.6582,0.54102 h 7.00195 c 0.53734,0 1.00751,-0.12336 1.35352,-0.42383 l 0.002,-0.002 0.004,-0.002 c 0.32816,-0.29362 0.50781,-0.71781 0.50781,-1.16601 0,-0.44458 -0.1869,-0.86537 -0.51562,-1.16211 -0.34266,-0.31483 -0.81675,-0.45117 -1.35157,-0.45117 h -5.46679 v -10.00782 c 0,-0.65342 -0.15306,-1.20878 -0.52149,-1.59765 -0.34202,-0.3734 -0.8286,-0.57227 -1.35547,-0.57227 z m 0,0.82422 c 0.34397,0 0.55832,0.0943 0.75,0.30469 l 0.004,0.004 0.002,0.002 c 0.1755,0.18385 0.29688,0.50609 0.29688,1.03515 v 10.83204 h 6.29101 c 0.402,0 0.6429,0.0924 0.79493,0.23242 l 0.002,0.002 0.002,0.002 c 0.17698,0.15882 0.24414,0.30873 0.24414,0.55274 0,0.25384 -0.0674,0.40038 -0.23242,0.54883 -0.14908,0.12818 -0.39946,0.2207 -0.81055,0.2207 h -7.00195 c -0.56872,0 -0.90131,-0.13121 -1.07227,-0.30078 -0.16551,-0.17085 -0.29296,-0.50145 -0.29296,-1.06445 v -11.0254 c 0,-0.52399 0.11778,-0.85178 0.28711,-1.04296 0.19196,-0.20919 0.40209,-0.30274 0.73632,-0.30274 z"
         id="path6632" />
      <path
         style="color:#000000;-inkscape-font-specification:'Arial Rounded MT Bold, ';stroke-linecap:butt;-inkscape-stroke:none"
         d="m 235.89844,160.48369 v 10.41992 h 5.8789 q 0.70313,0 1.07422,0.3418 0.38086,0.34179 0.38086,0.85937 0,0.52735 -0.37109,0.85938 -0.3711,0.32226 -1.08399,0.32226 h -7.00195 q -0.94727,0 -1.36719,-0.41992 -0.41015,-0.41992 -0.41015,-1.35742 v -11.02539 q 0,-0.87891 0.39062,-1.31836 0.40039,-0.43945 1.04492,-0.43945 0.6543,0 1.05469,0.43945 0.41016,0.42969 0.41016,1.31836 z"
         id="path6634" />
    </g>
  </g>
</svg>
